<svg width="15" height="15" viewBox="0 0 9 9" fill="none" xmlns="http://www.w3.org/2000/svg">
<path d="M5.85156 4.5L8.38281 1.99219C8.52344 1.85156 8.52344 1.59375 8.38281 1.45312L7.79688 0.867188C7.65625 0.726562 7.39844 0.726562 7.25781 0.867188L4.75 3.39844L2.21875 0.867188C2.07812 0.726562 1.82031 0.726562 1.67969 0.867188L1.09375 1.45312C0.953125 1.59375 0.953125 1.85156 1.09375 1.99219L3.625 4.5L1.09375 7.03125C0.953125 7.17188 0.953125 7.42969 1.09375 7.57031L1.67969 8.15625C1.82031 8.29688 2.07812 8.29688 2.21875 8.15625L4.75 5.625L7.25781 8.15625C7.39844 8.29688 7.65625 8.29688 7.79688 8.15625L8.38281 7.57031C8.52344 7.42969 8.52344 7.17188 8.38281 7.03125L5.85156 4.5Z" fill="#00BE7B"/>
</svg>
