<svg xmlns="http://www.w3.org/2000/svg" width="19" height="19.5" viewBox="0 0 38 39"><g><g><path fill="#35393b" d="M23.115 3.09l-7.325 7.324a10.178 10.178 0 0 1 5.381.633l4.95-4.951a4.258 4.258 0 0 1 6.013 0 4.258 4.258 0 0 1 0 6.013l-8.788 8.787a4.257 4.257 0 0 1-6.012 0c-.073-.075-.137-.154-.204-.232l-.017.02a2.126 2.126 0 0 0-2.9 3.102c.028.029.06.055.09.082l-.003.004.028.03a8.504 8.504 0 0 0 12.025 0l8.787-8.788A8.503 8.503 0 0 0 23.115 3.09z"/></g><g><path fill="#35393b" d="M14.56 35.694l7.325-7.324a10.174 10.174 0 0 1-5.38-.633l-4.951 4.951a4.258 4.258 0 0 1-6.013 0 4.258 4.258 0 0 1 0-6.013l8.788-8.787a4.257 4.257 0 0 1 6.012 0c.073.075.137.154.204.232l.017-.02a2.126 2.126 0 0 0 2.9-3.102c-.028-.029-.06-.055-.09-.082l.003-.004-.028-.03a8.503 8.503 0 0 0-12.024 0L2.535 23.67A8.503 8.503 0 0 0 14.56 35.694z"/></g></g></svg>