<?xml version="1.0" encoding="UTF-8"?>
<svg id="SVGDoc" width="35.5" height="35.5" xmlns="http://www.w3.org/2000/svg" version="1.1" xmlns:xlink="http://www.w3.org/1999/xlink" xmlns:avocode="https://avocode.com/" viewBox="0 0 71 71"><defs></defs><desc>Generated with Avocode.</desc><g><g><path d="M70.458,35.8389c0,19.33 -15.67,35 -35,35c-19.33,0 -35,-15.67 -35,-35c0,-19.33 15.67,-35 35,-35c19.33,0 35,15.67 35,35z" fill="#7db0ef" fill-opacity="1"></path></g><g><path d="M35.458,48.4521c10.477,0 19.794,-4.94 25.768,-12.613c-5.974,-7.673 -15.291,-12.614 -25.768,-12.614c-10.477,0 -19.793,4.941 -25.767,12.614c5.974,7.673 15.29,12.613 25.767,12.613z" fill="#ffffff" fill-opacity="1"></path></g><g><path d="M45.7065,35.8389c0,5.659 -4.588,10.248 -10.249,10.248c-5.659,0 -10.248,-4.589 -10.248,-10.248c0,-5.66 4.589,-10.249 10.248,-10.249c5.661,0 10.249,4.589 10.249,10.249z" fill="#232323" fill-opacity="1"></path></g></g></svg>