<svg xmlns="http://www.w3.org/2000/svg" width="124.5" height="118" viewBox="0 0 249 236"><g><g><path fill="#b8e2ff" d="M248.2 118.022c0 64.971-52.67 117.641-117.64 117.641-64.972 0-117.64-52.67-117.64-117.64C12.92 53.05 65.587.382 130.56.382c64.97 0 117.64 52.668 117.64 117.64z"/></g><g><path fill="none" stroke="#1f70ff" stroke-miterlimit="20" stroke-width="8" d="M95.476 133.281c0 8.758-7.1 15.858-15.858 15.858-8.76 0-15.86-7.1-15.86-15.858 0-8.759 7.1-15.859 15.86-15.859 8.758 0 15.858 7.1 15.858 15.86z"/></g><g><path fill="none" stroke="#1f70ff" stroke-miterlimit="20" stroke-width="8" d="M197.36 133.281c0 8.758-7.1 15.858-15.859 15.858-8.758 0-15.859-7.1-15.859-15.858 0-8.759 7.101-15.859 15.86-15.859 8.757 0 15.858 7.1 15.858 15.86z"/></g><g><path fill="none" stroke="#1f70ff" stroke-miterlimit="20" stroke-width="8" d="M165.643 133.281H95.476"/></g><g><g><text dominant-baseline="text-before-edge" transform="translate(63 59)"><tspan fill="#232323" font-family="'Aileron Bold','Aileron-Bold'" font-size="44" font-weight="700">A</tspan></text></g></g><g><g><text dominant-baseline="text-before-edge" transform="translate(165 59)"><tspan fill="#232323" font-family="'Aileron Bold','Aileron-Bold'" font-size="44" font-weight="700">B</tspan></text></g></g><g><path fill="#ff5900" d="M.008 22.274L21.9.382l31.18 31.182-21.89 21.89z"/></g><g><path fill="#eeeee8" d="M53.081 31.564l7.05 28.942-28.942-7.05z"/></g><g><path fill="#232323" d="M48.148 57.586l9.063-9.064 2.92 11.983z"/></g></g></svg>