<?xml version="1.0" encoding="UTF-8" standalone="no"?><!DOCTYPE svg PUBLIC "-//W3C//DTD SVG 1.1//EN" "http://www.w3.org/Graphics/SVG/1.1/DTD/svg11.dtd"><svg width="100%" height="100%" viewBox="0 0 14 13" version="1.1" xmlns="http://www.w3.org/2000/svg" xmlns:xlink="http://www.w3.org/1999/xlink" xml:space="preserve" xmlns:serif="http://www.serif.com/" style="fill-rule:evenodd;clip-rule:evenodd;stroke-linejoin:round;stroke-miterlimit:2;"><rect id="Plan-de-travail1" serif:id="Plan de travail1" x="0" y="0" width="14" height="12.25" style="fill:none;"/><path d="M12.688,0l-11.376,0c-0.738,0 -1.312,0.602 -1.312,1.313l-0,2.187c-0,0.246 0.191,0.438 0.437,0.438l0.438,-0.001l-0,7.438c-0,0.492 0.383,0.875 0.875,0.875l10.5,0c0.465,0 0.875,-0.383 0.875,-0.875l-0,-7.438l0.437,0c0.219,0 0.438,-0.191 0.438,-0.437l-0,-2.188c-0,-0.71 -0.602,-1.312 -1.313,-1.312Zm-0.875,10.938l-9.625,-0.001l0,-7l9.625,0l0,7Zm0.875,-8.312l-11.375,-0l0,-1.313l11.375,0l0,1.313Zm-7.109,3.937l2.844,0c0.164,0 0.328,-0.136 0.328,-0.328l0,-0.656c0,-0.164 -0.164,-0.328 -0.328,-0.328l-2.844,-0c-0.191,-0 -0.328,0.164 -0.328,0.328l-0,0.656c-0,0.192 0.137,0.328 0.328,0.328Z" style="fill:#3a3a3a;fill-rule:nonzero;"/></svg>