<?xml version="1.0" encoding="UTF-8" standalone="no"?><!DOCTYPE svg PUBLIC "-//W3C//DTD SVG 1.1//EN" "http://www.w3.org/Graphics/SVG/1.1/DTD/svg11.dtd"><svg width="100%" height="100%" viewBox="0 0 11 14" version="1.1" xmlns="http://www.w3.org/2000/svg" xmlns:xlink="http://www.w3.org/1999/xlink" xml:space="preserve" xmlns:serif="http://www.serif.com/" style="fill-rule:evenodd;clip-rule:evenodd;stroke-linejoin:round;stroke-miterlimit:2;"><rect id="Plan-de-travail1" serif:id="Plan de travail1" x="0" y="0" width="10.5" height="14" style="fill:none;"/><path d="M4.074,9.57l0,-0.027l-0.902,-0.793l0.902,-0.766c0.11,-0.109 0.11,-0.246 0.028,-0.355l-0.493,-0.52c-0.082,-0.082 -0.246,-0.082 -0.328,0l-1.586,1.477c-0.082,0.109 -0.082,0.246 0,0.355l1.586,1.477c0.055,0.027 0.11,0.055 0.164,0.055c0.055,-0 0.137,-0.028 0.164,-0.055l0.493,-0.52c0.082,-0.109 0.082,-0.246 -0.028,-0.328Zm6.016,-6.89l-2.27,-2.297c-0.246,-0.246 -0.601,-0.383 -0.929,-0.383l-5.579,-0c-0.738,-0 -1.312,0.602 -1.312,1.312l-0,11.375c-0,0.739 0.574,1.313 1.312,1.313l7.876,-0c0.71,-0 1.312,-0.574 1.312,-1.313l0,-9.078c0,-0.328 -0.164,-0.683 -0.41,-0.929Zm-3.09,-1.258l2.078,2.078l-2.078,-0l0,-2.078Zm2.188,11.265l-7.876,0l0,-11.375l4.376,0l-0.001,2.844c0,0.383 0.274,0.656 0.657,0.656l2.843,0l0,7.875Zm-3.472,-6.835c-0.137,-0.028 -0.246,0.054 -0.301,0.164l-1.477,5.168c-0.054,0.109 0.028,0.246 0.165,0.273l0.656,0.219c0.136,0.027 0.273,-0.055 0.301,-0.164l1.503,-5.168c0.028,-0.11 -0.054,-0.246 -0.164,-0.301l-0.683,-0.191Zm0.683,2.105l0,0.027l0.903,0.766l-0.903,0.793c-0.109,0.109 -0.109,0.246 -0.027,0.355l0.492,0.52c0.082,0.082 0.246,0.082 0.328,-0l1.586,-1.477c0.082,-0.109 0.082,-0.273 0,-0.355l-1.586,-1.477c-0.082,-0.082 -0.246,-0.082 -0.328,0l-0.492,0.52c-0.082,0.082 -0.082,0.246 0.027,0.328Z" style="fill:#3a3a3a;fill-rule:nonzero;"/></svg>