<?xml version="1.0" encoding="UTF-8" standalone="no"?><!DOCTYPE svg PUBLIC "-//W3C//DTD SVG 1.1//EN" "http://www.w3.org/Graphics/SVG/1.1/DTD/svg11.dtd"><svg width="100%" height="100%" viewBox="0 0 13 14" version="1.1" xmlns="http://www.w3.org/2000/svg" xmlns:xlink="http://www.w3.org/1999/xlink" xml:space="preserve" xmlns:serif="http://www.serif.com/" style="fill-rule:evenodd;clip-rule:evenodd;stroke-linejoin:round;stroke-miterlimit:2;"><rect id="Plan-de-travail1" serif:id="Plan de travail1" x="0" y="0" width="12.25" height="14" style="fill:none;"/><path d="M3.5,4.156c0,0.137 0.082,0.219 0.219,0.219l5.687,0c0.11,0 0.219,-0.082 0.219,-0.219l0,-0.875c0,-0.109 -0.109,-0.218 -0.219,-0.218l-5.687,-0c-0.137,-0 -0.219,0.109 -0.219,0.218l-0,0.875Zm0.219,2.407l5.687,-0c0.11,-0 0.219,-0.083 0.219,-0.219l0,-0.875c0,-0.11 -0.109,-0.219 -0.219,-0.219l-5.687,0c-0.137,0 -0.219,0.109 -0.219,0.219l-0,0.875c-0,0.136 0.082,0.219 0.219,0.219Zm8.175,4.375c0.192,-0.028 0.356,-0.219 0.356,-0.438l-0,-10.062c-0,-0.219 -0.219,-0.438 -0.438,-0.438l-9.625,0c-1.23,0 -2.187,0.984 -2.187,2.188l-0,9.625c-0,1.23 0.957,2.187 2.187,2.187l9.625,0c0.219,0 0.438,-0.191 0.438,-0.437l-0,-0.438c-0,-0.191 -0.164,-0.383 -0.356,-0.41c-0.136,-0.356 -0.136,-1.422 0,-1.777Zm-1.121,-0c-0.082,0.492 -0.082,1.285 0,1.75l-8.586,-0c-0.492,-0 -0.875,-0.383 -0.875,-0.875c0,-0.465 0.383,-0.875 0.875,-0.875l8.586,-0Zm0.164,-9.625l0,8.312l-8.75,0c-0.328,0 -0.628,0.082 -0.875,0.191l0,-7.628c0,-0.465 0.383,-0.875 0.875,-0.875l8.75,-0Z" style="fill:#3a3a3a;fill-rule:nonzero;"/></svg>