<?xml version="1.0" encoding="UTF-8" standalone="no"?><!DOCTYPE svg PUBLIC "-//W3C//DTD SVG 1.1//EN" "http://www.w3.org/Graphics/SVG/1.1/DTD/svg11.dtd"><svg width="100%" height="100%" viewBox="0 0 11 14" version="1.1" xmlns="http://www.w3.org/2000/svg" xmlns:xlink="http://www.w3.org/1999/xlink" xml:space="preserve" xmlns:serif="http://www.serif.com/" style="fill-rule:evenodd;clip-rule:evenodd;stroke-linejoin:round;stroke-miterlimit:2;"><rect id="Plan-de-travail1" serif:id="Plan de travail1" x="0" y="0" width="10.5" height="14" style="fill:none;"/><path d="M10.09,2.68l-2.27,-2.297c-0.246,-0.246 -0.601,-0.383 -0.929,-0.383l-5.579,0c-0.738,0 -1.312,0.602 -1.312,1.313l-0,11.375c-0,0.738 0.574,1.312 1.312,1.312l7.876,0c0.71,0 1.312,-0.574 1.312,-1.313l0,-9.078c0,-0.328 -0.164,-0.683 -0.41,-0.929Zm-1.012,0.82l-2.078,0l0,-2.078l2.078,2.078Zm-7.765,9.188l-0,-11.376l4.375,0l-0,2.844c-0,0.383 0.273,0.656 0.656,0.656l2.844,0l-0,7.876l-7.875,-0.001Z" style="fill:#3a3a3a;fill-rule:nonzero;"/></svg>