<?xml version="1.0" encoding="UTF-8" standalone="no"?><!DOCTYPE svg PUBLIC "-//W3C//DTD SVG 1.1//EN" "http://www.w3.org/Graphics/SVG/1.1/DTD/svg11.dtd"><svg width="100%" height="100%" viewBox="0 0 14 14" version="1.1" xmlns="http://www.w3.org/2000/svg" xmlns:xlink="http://www.w3.org/1999/xlink" xml:space="preserve" xmlns:serif="http://www.serif.com/" style="fill-rule:evenodd;clip-rule:evenodd;stroke-linejoin:round;stroke-miterlimit:2;"><rect id="Plan-de-travail1" serif:id="Plan de travail1" x="0" y="0" width="13.986" height="13.986" style="fill:none;"/><path d="M8.593,5.394c-0.301,-0.301 -0.629,-0.52 -0.985,-0.711c-0.136,-0.055 -0.273,-0.028 -0.382,0.082l-0.11,0.109c-0.246,0.219 -0.383,0.52 -0.41,0.82c-0.027,0.137 0.055,0.274 0.164,0.356c0.192,0.082 0.492,0.273 0.629,0.437c0.902,0.903 0.902,2.352 0,3.254l-2.051,2.051c-0.902,0.902 -2.351,0.902 -3.254,0c-0.902,-0.902 -0.902,-2.352 0,-3.254l1.258,-1.258c0.082,-0.082 0.11,-0.191 0.082,-0.3c-0.054,-0.274 -0.109,-0.739 -0.137,-1.04c0,-0.273 -0.355,-0.41 -0.546,-0.218c-0.329,0.328 -0.848,0.847 -1.723,1.722c-1.504,1.504 -1.504,3.938 -0,5.414c1.477,1.504 3.91,1.504 5.414,0c2.242,-2.242 2.133,-2.132 2.297,-2.351c1.23,-1.477 1.148,-3.719 -0.246,-5.113Zm4.265,-4.266c-1.476,-1.504 -3.91,-1.504 -5.414,-0c-2.242,2.242 -2.132,2.133 -2.297,2.352c-1.23,1.476 -1.148,3.718 0.247,5.113c0.3,0.301 0.628,0.519 0.984,0.711c0.137,0.054 0.273,0.027 0.383,-0.082l0.109,-0.11c0.246,-0.218 0.383,-0.519 0.41,-0.82c0.028,-0.137 -0.054,-0.273 -0.164,-0.355c-0.191,-0.082 -0.492,-0.274 -0.629,-0.438c-0.902,-0.902 -0.902,-2.351 0,-3.254l2.051,-2.051c0.902,-0.902 2.352,-0.902 3.254,0c0.902,0.903 0.902,2.352 0,3.254l-1.258,1.258c-0.082,0.082 -0.109,0.192 -0.082,0.301c0.055,0.273 0.11,0.738 0.137,1.039c-0,0.273 0.355,0.41 0.547,0.219c0.328,-0.328 0.847,-0.848 1.722,-1.723c1.504,-1.504 1.504,-3.937 0,-5.414Z" style="fill:#3a3a3a;fill-rule:nonzero;"/></svg>