<?xml version="1.0" encoding="UTF-8" standalone="no"?><!DOCTYPE svg PUBLIC "-//W3C//DTD SVG 1.1//EN" "http://www.w3.org/Graphics/SVG/1.1/DTD/svg11.dtd"><svg width="100%" height="100%" viewBox="0 0 14 13" version="1.1" xmlns="http://www.w3.org/2000/svg" xmlns:xlink="http://www.w3.org/1999/xlink" xml:space="preserve" xmlns:serif="http://www.serif.com/" style="fill-rule:evenodd;clip-rule:evenodd;stroke-linejoin:round;stroke-miterlimit:2;"><rect id="Plan-de-travail1" serif:id="Plan de travail1" x="0" y="0" width="14" height="12.25" style="fill:none;"/><path d="M12.688,0l-11.376,0c-0.738,0 -1.312,0.602 -1.312,1.313l-0,9.625c-0,0.738 0.574,1.312 1.312,1.312l11.375,0c0.711,0 1.313,-0.574 1.313,-1.313l-0,-9.625c-0,-0.71 -0.602,-1.312 -1.313,-1.312Zm-6.343,10.938l-4.867,-0.001c-0.11,0 -0.165,-0.054 -0.165,-0.164l0,-3.554l5.032,-0l-0,3.718Zm-0,-5.031l-5.032,0l0,-3.719l5.032,0l-0,3.719Zm6.179,5.031l-4.867,0l0,-3.718l5.031,-0l0,3.554c0,0.11 -0.082,0.164 -0.164,0.164Zm0.164,-5.031l-5.031,0l0,-3.719l5.031,0l0,3.719Z" style="fill:#3a3a3a;fill-rule:nonzero;"/></svg>