<svg xmlns="http://www.w3.org/2000/svg" width="134" height="134" viewBox="0 0 268 268"><g><g><path fill="#1f70ff" d="M134.416-.114c-.137 0-.271.004-.408.005C60.398.112.793 59.847.793 133.51c0 73.661 59.605 133.397 133.215 133.618.137 0 .271.005.408.005 73.799 0 133.623-59.825 133.623-133.623 0-73.798-59.824-133.623-133.623-133.623z"/></g><g><path fill="none" stroke="#7db0ef" stroke-linecap="round" stroke-miterlimit="20" stroke-width="7" d="M79.7 79.429c13.84-13.841 32.961-22.401 54.08-22.401 42.24 0 76.482 34.242 76.482 76.482 0 42.239-34.242 76.48-76.482 76.48-25.359 0-47.836-12.341-61.75-31.347"/></g><g><path fill="#232323" d="M104.248 79.346c0 12.592-10.207 22.799-22.799 22.799-12.592 0-22.8-10.207-22.8-22.8 0-12.591 10.208-22.798 22.8-22.798s22.799 10.207 22.799 22.799z"/></g><g><path fill="none" stroke="#fff" stroke-linecap="round" stroke-linejoin="round" stroke-miterlimit="20" stroke-width="4" d="M80.919 79.346V63.97"/></g><g><path fill="none" stroke="#fff" stroke-linecap="round" stroke-linejoin="round" stroke-miterlimit="20" stroke-width="4" d="M81.184 79.61h10.074"/></g></g></svg>