<svg xmlns="http://www.w3.org/2000/svg" width="134" height="134" viewBox="0 0 268 268"><g><g><path fill="#1f70ff" d="M268.04 133.695C268.04 59.897 208.213.072 134.415.072S.793 59.897.793 133.695c0 24.934 6.837 48.267 18.726 68.242h229.794c11.89-19.975 18.726-43.308 18.726-68.242z"/></g><g><path fill="#7db0ef" d="M249.314 201.937H19.52c23.3 39.147 66.031 65.381 114.897 65.381 48.864 0 91.594-26.234 114.896-65.381z"/></g><g><path fill="#ff5900" d="M152.82 91.464c1.132 0 2.34.062 3.63.187 7.85.768 16.93 7.959 18.037 21.74v4.587c-1.03 13.19-10.984 29.459-40.07 49.87-29.09-20.411-39.042-36.68-40.072-49.87v-4.587c1.106-13.781 10.184-20.972 18.036-21.74a37.69 37.69 0 0 1 3.628-.187c9.072 0 13.424 3.922 18.407 9.862 4.981-5.94 9.331-9.862 18.404-9.862z"/></g></g></svg>