<?xml version="1.0" standalone="no"?>
<!DOCTYPE svg PUBLIC "-//W3C//DTD SVG 20010904//EN"
 "http://www.w3.org/TR/2001/REC-SVG-20010904/DTD/svg10.dtd">
<svg version="1.0" xmlns="http://www.w3.org/2000/svg"
 width="20" height="20" viewBox="0 0 1280.000000 1280.000000"
 preserveAspectRatio="xMidYMid meet">
<metadata>
Created by potrace 1.15, written by Peter Selinger 2001-2017
</metadata>
<g transform="translate(0.000000,1280.000000) scale(0.100000,-0.100000)"
fill="#000000" stroke="none">
<path d="M2200 12793 c-234 -23 -378 -53 -565 -114 -341 -112 -655 -309 -930
-584 -389 -390 -609 -831 -687 -1380 -19 -132 -19 -8498 0 -8630 78 -548 299
-993 686 -1381 388 -387 833 -608 1381 -686 132 -19 8498 -19 8630 0 549 78
990 298 1380 687 389 390 609 831 687 1380 19 132 19 8498 0 8630 -53 375
-171 695 -361 980 -104 158 -189 262 -319 392 -384 386 -802 600 -1347 691
-92 15 -429 17 -4310 18 -2316 0 -4226 -1 -4245 -3z m1017 -2167 c318 -65 568
-253 703 -531 124 -255 137 -564 33 -823 -86 -218 -285 -421 -507 -522 -298
-135 -731 -133 -1025 6 -121 57 -198 113 -291 210 -126 132 -200 264 -242 431
-19 74 -23 114 -23 258 1 145 4 182 24 255 46 170 124 305 250 431 155 155
357 256 571 288 41 6 86 13 100 15 50 9 337 -4 407 -18z m5758 -2650 c257 -38
443 -94 650 -196 561 -274 932 -757 1094 -1423 106 -435 113 -590 109 -2692
l-3 -1580 -962 -3 -962 -2 -4 1687 c-3 1851 0 1747 -62 1993 -104 407 -337
643 -697 706 -128 22 -370 14 -482 -16 -164 -44 -296 -122 -429 -253 -105
-104 -174 -197 -237 -319 -63 -121 -87 -214 -100 -382 -6 -80 -10 -774 -10
-1773 l0 -1643 -959 0 -959 0 2 2895 1 2895 957 0 958 0 2 -407 3 -408 53 77
c116 172 308 374 462 489 274 205 597 328 965 368 121 13 486 5 610 -13z
m-5075 -3001 l0 -2895 -962 2 -963 3 -3 2880 c-1 1584 0 2886 3 2893 3 9 206
12 965 12 l960 0 0 -2895z"/>
</g>
</svg>
