<svg width="36" height="36" viewBox="0 0 36 36" fill="none" xmlns="http://www.w3.org/2000/svg">
<rect width="36" height="36" rx="18" fill="#00BE7B"/>
<path d="M22.875 18.25C23.0312 18.125 23.0312 17.875 22.875 17.75L22.6562 17.5C22.5 17.375 22.2812 17.375 22.125 17.5L18.5312 21.125V11.375C18.5312 11.1875 18.3438 11 18.1562 11H17.8438C17.625 11 17.4688 11.1875 17.4688 11.375V21.125L13.8438 17.5C13.6875 17.375 13.4688 17.375 13.3125 17.5L13.0938 17.7188C12.9375 17.875 12.9375 18.125 13.0938 18.25L17.7188 22.9062C17.875 23.0625 18.0938 23.0625 18.25 22.9062L22.875 18.25ZM24 24.625V24.375C24 24.1875 23.8125 24 23.625 24H12.375C12.1562 24 12 24.1875 12 24.375V24.625C12 24.8438 12.1562 25 12.375 25H23.625C23.8125 25 24 24.8438 24 24.625Z" fill="white"/>
</svg>
