<svg xmlns="http://www.w3.org/2000/svg" width="113" height="113" viewBox="0 0 226 226"><g><g><path fill="#b8e2ff" d="M113.377.799C55.875.799 8.462 43.967 1.762 99.663h223.229C218.291 43.967 170.879.799 113.377.799z"/></g><g><path fill="#b8e2ff" d="M1.762 99.663a113.564 113.564 0 0 0-.817 13.567c0 62.095 50.338 112.433 112.432 112.433 62.095 0 112.432-50.338 112.432-112.433 0-4.592-.282-9.119-.818-13.567z"/></g><g><path fill="#1f70ff" d="M45.166 34.747c0 10.405-8.435 18.84-18.839 18.84-10.405 0-18.84-8.435-18.84-18.84 0-10.404 8.435-18.839 18.84-18.839 10.404 0 18.839 8.435 18.839 18.84z"/></g><g><path fill="#1f70ff" d="M26.327 2.61L41.6 23.717l-30.477-.05z"/></g><g><path fill="#7db0ef" d="M118.917 188.183H111.4V72.272h7.517z"/></g><g><path fill="#7db0ef" d="M116.148 75.436s-15.824-1.978-15.824-17.802c0 0-.396-13.054 15.428-26.9z"/></g><g><path fill="#7db0ef" d="M111.454 98.7s9.791-12.588-1.398-23.777c0 0-8.952-9.51-29.93-8.112z"/></g><g><path fill="#7db0ef" d="M118.878 98.7s-9.79-12.588 1.399-23.777c0 0 8.952-9.51 29.93-8.112z"/></g><g><path fill="#7db0ef" d="M111.454 132.722s9.791-12.588-1.398-23.777c0 0-8.952-9.511-29.93-8.112z"/></g><g><path fill="#7db0ef" d="M118.878 132.722s-9.79-12.588 1.399-23.777c0 0 8.952-9.511 29.93-8.112z"/></g><g><path fill="#7db0ef" d="M111.454 166.744s9.791-12.588-1.398-23.777c0 0-8.952-9.511-29.93-8.112z"/></g><g><path fill="#7db0ef" d="M118.878 166.744s-9.79-12.588 1.399-23.777c0 0 8.952-9.511 29.93-8.112z"/></g><g><path fill="#070d54" d="M115.752 75.436s15.823-1.978 15.823-17.802c0 0 .396-13.054-15.427-26.9z"/></g><g><path fill="#070d54" d="M111.735 98.42s-12.588 9.79-23.777-1.398c0 0-9.51-8.952-8.113-29.932z"/></g><g><path fill="#070d54" d="M118.598 98.42s12.588 9.79 23.777-1.398c0 0 9.51-8.952 8.113-29.932z"/></g><g><path fill="#070d54" d="M111.735 132.441s-12.588 9.791-23.777-1.398c0 0-9.51-8.952-8.113-29.932z"/></g><g><path fill="#070d54" d="M118.598 132.441s12.588 9.791 23.777-1.398c0 0 9.51-8.952 8.113-29.932z"/></g><g><path fill="#070d54" d="M111.735 166.463s-12.588 9.79-23.777-1.398c0 0-9.51-8.952-8.113-29.932z"/></g><g><path fill="#070d54" d="M118.598 166.463s12.588 9.79 23.777-1.398c0 0 9.51-8.952 8.113-29.932z"/></g></g></svg>