<svg width="20" height="19" viewBox="0 0 20 19" fill="none" xmlns="http://www.w3.org/2000/svg">
<path d="M18.125 0.75H1.875C0.820312 0.75 0 1.60938 0 2.625V16.375C0 17.4297 0.820312 18.25 1.875 18.25H18.125C19.1406 18.25 20 17.4297 20 16.375V2.625C20 1.60938 19.1406 0.75 18.125 0.75ZM6.25 17H1.875C1.52344 17 1.25 16.7266 1.25 16.375V13.25H6.25V17ZM6.25 12H1.25V8.25H6.25V12ZM6.25 7H1.25V3.25H6.25V7ZM12.5 17H7.5V13.25H12.5V17ZM12.5 12H7.5V8.25H12.5V12ZM12.5 7H7.5V3.25H12.5V7ZM18.75 13.25V16.375C18.75 16.7266 18.4375 17 18.125 17H13.75V13.25H18.75ZM18.75 12H13.75V8.25H18.75V12ZM18.75 7H13.75V3.25H18.75V7Z" fill="#3A3A3A"/>
</svg>
