<svg width="20" height="15" viewBox="0 0 20 15" fill="none" xmlns="http://www.w3.org/2000/svg">
<path d="M19.6875 13.75H1.25V0.3125C1.25 0.15625 1.09375 0 0.9375 0H0.3125C0.117188 0 0 0.15625 0 0.3125V14.375C0 14.7266 0.273438 15 0.625 15H19.6875C19.8438 15 20 14.8828 20 14.6875V14.0625C20 13.9062 19.8438 13.75 19.6875 13.75ZM3.82812 7.8125C3.71094 7.92969 3.71094 8.125 3.82812 8.24219L4.25781 8.67188C4.375 8.78906 4.57031 8.78906 4.6875 8.67188L7.53906 5.85938L10.8594 9.17969C11.0938 9.41406 11.4844 9.41406 11.7188 9.17969L15.3906 5.50781L17.1094 7.22656C17.3047 7.42188 17.5391 7.5 17.7734 7.5C18.2812 7.5 18.75 7.14844 18.75 6.5625V1.91406C18.75 1.5625 18.4375 1.25 18.0859 1.25H13.4375C12.5781 1.25 12.1484 2.30469 12.7734 2.89062L14.4922 4.64844L11.2891 7.85156L8.00781 4.53125C7.73438 4.29688 7.34375 4.29688 7.10938 4.53125L3.82812 7.8125ZM14.1406 2.5H17.5V5.85938L14.1406 2.5Z" fill="#3A3A3A"/>
</svg>
