<svg xmlns="http://www.w3.org/2000/svg" width="118.5" height="118" viewBox="0 0 237 236"><g><g><path fill="#070d54" d="M236.189 118.022c0 64.971-52.67 117.641-117.641 117.641-64.97 0-117.64-52.67-117.64-117.64C.909 53.05 53.579.382 118.549.382c64.971 0 117.64 52.668 117.64 117.64z"/></g><g><path fill="#ff5900" d="M41.84 23.727l-9.144 9.145-22.106-6.189A2.58 2.58 0 0 0 8.41 31.28l15.202 10.674-3.83 3.831-10.34-.805a2.983 2.983 0 0 0-2.345.867c-1.68 1.678-.825 4.55 1.499 5.04l10.043 2.712 2.712 10.043c.489 2.323 3.36 3.177 5.04 1.498a2.995 2.995 0 0 0 .866-2.346l-.805-10.339 3.83-3.83 10.674 15.202a2.582 2.582 0 0 0 4.599-2.18l-6.19-22.105 9.145-9.145a4.463 4.463 0 0 0 0-6.292l-.38-.378a4.462 4.462 0 0 0-6.29 0z"/></g><g><path fill="#1f70ff" d="M153.552 112.836c-3.636-3.02-7.556-5.966-11.948-7.558-10.132 24.065-26.075 45.08-46.07 61.298a53.415 53.415 0 0 0 22.805 5.087c27.654 0 50.412-20.936 53.307-47.82a19.138 19.138 0 0 1-3.228-.887c-5.646-2.105-10.23-6.27-14.866-10.12z"/></g><g><path fill="#7db0ef" d="M150.795 75.36a156.275 156.275 0 0 1-9.191 29.918c4.392 1.592 8.312 4.538 11.948 7.558 4.636 3.85 9.22 8.015 14.866 10.12 1.035.386 2.12.683 3.228.886.205-1.907.317-3.842.317-5.803 0-17.414-8.307-32.883-21.168-42.679z"/></g><g><path fill="#1f70ff" d="M109.622 109.365c-8.43.627-17.414-3.371-21.375-10.84-3.81-7.185-2.47-16.227 1.404-23.38.724-1.334 1.544-2.603 2.407-3.843-16.317 9.195-27.343 26.673-27.343 46.737 0 1.083.042 2.157.104 3.223 4.16.79 8.205 1.965 11.91 3.987 6.603 3.606 11.934 10.612 11.248 18.105-.459 5.025-3.536 9.469-7.51 12.646a53.718 53.718 0 0 0 15.068 10.576c19.993-16.218 35.937-37.232 46.068-61.297a20.401 20.401 0 0 0-3.73-.985c-9.514-1.523-18.642 4.356-28.25 5.07z"/></g><g><path fill="#7db0ef" d="M118.339 64.415a53.363 53.363 0 0 0-26.281 6.886c-.863 1.24-1.683 2.51-2.406 3.845-3.875 7.152-5.215 16.194-1.405 23.38 3.96 7.468 12.945 11.466 21.375 10.839 9.61-.715 18.738-6.595 28.25-5.071a20.41 20.41 0 0 1 3.732.984 156.275 156.275 0 0 0 9.19-29.918 53.38 53.38 0 0 0-32.455-10.945z"/></g><g><path fill="#7db0ef" d="M87.978 143.353c.686-7.493-4.646-14.499-11.25-18.104-3.703-2.022-7.75-3.196-11.908-3.986.804 13.544 6.627 25.738 15.646 34.736 3.976-3.176 7.052-7.62 7.512-12.645z"/></g></g></svg>