<svg xmlns="http://www.w3.org/2000/svg" width="118" height="118" viewBox="0 0 236 236"><g><g><path fill="#b8e2ff" d="M235.621 118.022c0 64.971-52.67 117.641-117.64 117.641S.34 182.993.34 118.023C.34 53.05 53.01.382 117.98.382s117.64 52.668 117.64 117.64z"/></g><g><path fill="#232323" d="M121.93 57.757h-7.897a6.816 6.816 0 0 1-6.816-6.815V7.817a6.816 6.816 0 0 1 6.816-6.815h7.897a6.815 6.815 0 0 1 6.814 6.815v43.125a6.815 6.815 0 0 1-6.814 6.815z"/></g><g><path fill="#1f70ff" d="M158.722 111.944c-6.578-8.67 0-17.64 0-17.64l3.887-8.371c5.68-18.836-13.454-28.702-13.454-28.702-17.94-7.176-31.174-5.382-31.174-5.382s-13.235-1.794-31.173 5.382c0 0-19.135 9.866-13.454 28.702l3.887 8.37s6.577 8.97 0 17.64c-6.58 8.67-18.263 23.346-16.445 40.064 1.819 16.719 8.072 24.815 21.826 31.99 12.662 6.607 32.316 6.118 35.359 5.999 3.043.119 22.698.608 35.359-5.998 13.753-7.176 20.007-15.272 21.825-31.991 1.819-16.718-9.866-31.393-16.443-40.063z"/></g><g><path fill="#ff5900" d="M139.507 157.09H96.454v-10.763h43.053z"/></g><g><path fill="#232323" d="M135.62 108.488c0 9.742-7.897 17.64-17.64 17.64-9.742 0-17.639-7.898-17.639-17.64s7.897-17.64 17.64-17.64c9.742 0 17.64 7.898 17.64 17.64z"/></g><g><path fill="#fff" d="M70.037 30.35c0 11.448-13.809 20.729-30.843 20.729S8.351 41.798 8.351 30.349c0-11.447 13.81-20.728 30.843-20.728 17.034 0 30.843 9.28 30.843 20.729z"/></g><g><path fill="#fff" d="M39.194 51.079l21.412 6.679-5.419-15.01z"/></g></g></svg>