<svg xmlns="http://www.w3.org/2000/svg" width="112.5" height="119" viewBox="0 0 225 238"><g><g><path fill="#b8e2ff" d="M224.219 111.663c-6.7-55.696-54.113-98.864-111.614-98.864C55.103 12.8 7.69 55.967.99 111.663a113.372 113.372 0 0 0-.818 13.568c0 62.095 50.338 112.432 112.433 112.432 62.093 0 112.43-50.337 112.43-112.432 0-4.593-.281-9.119-.816-13.568z"/></g><g><path fill="#070d54" d="M53.28 8.213a8.093 8.093 0 0 0-16.187 0c0 .772.115 1.517.317 2.225h-.007l5.14 17.737a2.698 2.698 0 0 0 5.286 0h.001l5.138-17.737h-.006a8.094 8.094 0 0 0 .317-2.225z"/></g><g><path fill="#070d54" d="M66.18 57.051a8.093 8.093 0 0 0 7.71-14.23 8.084 8.084 0 0 0-2.107-.782l.002-.006-18.043-3.93a2.698 2.698 0 0 0-2.518 4.648L64.37 55.718l.003-.006a8.115 8.115 0 0 0 1.806 1.34z"/></g><g><path fill="#070d54" d="M16.742 43.898a8.092 8.092 0 1 0 8.241 13.93 8.044 8.044 0 0 0 1.753-1.406l.004.006 12.65-13.454a2.698 2.698 0 0 0-2.693-4.55L18.815 43.03l.003.007a8.047 8.047 0 0 0-2.076.86z"/></g><g><path fill="#1f70ff" d="M52.53 36.474a7.345 7.345 0 1 1-14.69 0 7.345 7.345 0 0 1 14.69 0z"/></g><g clip-path="url(#clip-2:7:c)"><path fill="#7db0ef" d="M250.618 168.143c-32.686-3.284-60.35-25.304-70.36-56.592-2.69-8.405-6.065-19.216-9.22-27.457-3.155-8.241-10.517-16.18-18.598-19.724-13.947-6.12-28.296 3.135-37.398 15.345-9.104 12.21-13.796 27.21-22.548 39.675-8.752 12.464-24.299 22.569-38.716 17.66-12.222-4.162-18.684-17.095-24.736-28.5C22.99 97.145 14.113 84.878 1.22 84.227c-11.607-.586-21.493 8.94-26.523 19.417-5.03 10.476-6.743 22.248-11.208 32.977-12.137 29.168-46.308 47.29-77.264 40.976l-10.434 75.973h383.337z"/></g><g><path fill="#fff" d="M147.433 155.172h-46.341v-30.229h46.341z"/></g><g><path fill="#ff5900" d="M101.092 124.943l23.17-17.308 23.17 17.308z"/></g><g><path fill="#7db0ef" d="M124.674 140.509a5.45 5.45 0 0 1 5.45 5.45v9.664h-10.9v-9.663a5.45 5.45 0 0 1 5.45-5.451z"/></g></g></svg>