<?xml version="1.0" encoding="UTF-8"?>
<svg id="SVGDoc" width="35" height="35.5" xmlns="http://www.w3.org/2000/svg" version="1.1" xmlns:xlink="http://www.w3.org/1999/xlink" xmlns:avocode="https://avocode.com/" viewBox="0 0 70 71"><defs></defs><desc>Generated with Avocode.</desc><g><g><title>&lt;Path&gt;</title><path d="M69.9565,35.8389c0,19.33 -15.67,35 -35,35c-19.33,0 -35,-15.67 -35,-35c0,-19.33 15.67,-35 35,-35c19.33,0 35,15.67 35,35z" fill="#232323" fill-opacity="1"></path></g><g><title>&lt;Path&gt;</title><path d="M39.2344,19.5361v0l-7.325,7.325c1.804,-0.277 3.668,-0.066 5.38,0.632l4.951,-4.95c1.658,-1.658 4.355,-1.658 6.013,0c1.657,1.657 1.657,4.353 0,6.012l-8.788,8.787c-1.657,1.658 -4.355,1.658 -6.012,0c-0.073,-0.075 -0.137,-0.154 -0.204,-0.232l-0.017,0.021c-0.835,-0.731 -2.104,-0.701 -2.901,0.095c-0.83,0.831 -0.83,2.176 0,3.006c0.029,0.03 0.061,0.055 0.091,0.082l-0.003,0.004c0.009,0.01 0.018,0.02 0.028,0.03c3.32,3.32 8.704,3.32 12.024,0l8.788,-8.788c3.32,-3.32 3.32,-8.703 0,-12.024c-3.321,-3.32 -8.704,-3.32 -12.025,0z" fill="#ffffff" fill-opacity="1"></path></g><g><title>&lt;Path&gt;</title><path d="M39.2344,19.5361v0l-7.325,7.325c1.804,-0.277 3.668,-0.066 5.38,0.632l4.951,-4.95c1.658,-1.658 4.355,-1.658 6.013,0c1.657,1.657 1.657,4.353 0,6.012l-8.788,8.787c-1.657,1.658 -4.355,1.658 -6.012,0c-0.073,-0.075 -0.137,-0.154 -0.204,-0.232l-0.017,0.021c-0.835,-0.731 -2.104,-0.701 -2.901,0.095c-0.83,0.831 -0.83,2.176 0,3.006c0.029,0.03 0.061,0.055 0.091,0.082l-0.003,0.004c0.009,0.01 0.018,0.02 0.028,0.03c3.32,3.32 8.704,3.32 12.024,0l8.788,-8.788c3.32,-3.32 3.32,-8.703 0,-12.024c-3.321,-3.32 -8.704,-3.32 -12.025,0z" fill="#ffffff" fill-opacity="1"></path></g><g><title>&lt;Path&gt;</title><path d="M30.6787,52.1416v0l7.325,-7.325c-1.804,0.277 -3.669,0.066 -5.381,-0.632l-4.95,4.95c-1.658,1.658 -4.355,1.658 -6.013,0c-1.657,-1.657 -1.657,-4.353 0,-6.012l8.788,-8.787c1.657,-1.658 4.355,-1.658 6.012,0c0.073,0.075 0.137,0.154 0.204,0.231l0.017,-0.02c0.835,0.731 2.104,0.701 2.901,-0.095c0.83,-0.831 0.83,-2.176 0,-3.006c-0.029,-0.03 -0.061,-0.055 -0.091,-0.082l0.003,-0.004c-0.009,-0.01 -0.018,-0.02 -0.028,-0.03c-3.321,-3.32 -8.704,-3.32 -12.025,0l-8.787,8.788c-3.32,3.32 -3.32,8.703 0,12.024c3.321,3.32 8.704,3.32 12.025,0z" fill="#ffffff" fill-opacity="1"></path></g></g></svg>