<svg width="36" height="36" viewBox="0 0 36 36" fill="none" xmlns="http://www.w3.org/2000/svg">
<rect width="36" height="36" rx="18" fill="#232323"/>
<path d="M24.5312 16.0625L22.9375 14.4688C22.6875 14.2188 22.2188 14 21.875 14H21V12.5C21 11.6875 20.3125 11 19.5 11H17.4062C17.1875 10.4375 16.625 10 16 10C15.3438 10 14.7812 10.4375 14.5625 11H12.5C11.6562 11 11 11.6875 11 12.5V21.5C11 22.3438 11.6562 23 12.5 23H15V24.5C15 25.3438 15.6562 26 16.5 26H23.5C24.3125 26 25 25.3438 25 24.5V17.125C25 16.7812 24.7812 16.3125 24.5312 16.0625ZM23.8438 16.7812C23.9062 16.8438 23.9375 16.9375 23.9688 17H22V15.0312C22.0625 15.0625 22.1562 15.0938 22.2188 15.1562L23.8438 16.7812ZM16 10.9375C16.2812 10.9375 16.5625 11.2188 16.5625 11.5C16.5625 11.8125 16.2812 12.0625 16 12.0625C15.6875 12.0625 15.4375 11.8125 15.4375 11.5C15.4375 11.2188 15.6875 10.9375 16 10.9375ZM12.5 22C12.2188 22 12 21.7812 12 21.5V12.5C12 12.25 12.2188 12 12.5 12H14.5625C14.7812 12.5938 15.3438 13 16 13C16.625 13 17.1875 12.5938 17.4062 12H19.5C19.75 12 20 12.25 20 12.5V14H16.5C15.6562 14 15 14.6875 15 15.5V22H12.5ZM23.5 25H16.5C16.2188 25 16 24.7812 16 24.5V15.5C16 15.25 16.2188 15 16.5 15H21V17.25C21 17.6875 21.3125 18 21.75 18H24V24.5C24 24.7812 23.75 25 23.5 25Z" fill="white"/>
</svg>
