<svg xmlns="http://www.w3.org/2000/svg" width="36" height="36" viewBox="0 0 72 72"><g><g><path fill="#fff" d="M70.919 35.958c0 19.329-15.67 35-35 35s-35-15.671-35-35c0-19.33 15.67-35 35-35s35 15.67 35 35z"/></g><g><path fill="none" stroke="#e8e8e8" stroke-miterlimit="20" stroke-width="2" d="M70.919 35.958c0 19.329-15.67 35-35 35s-35-15.671-35-35c0-19.33 15.67-35 35-35s35 15.67 35 35z"/></g><g><path fill="#7c7c7c" d="M32.264 46.457l-5.556-5.556 13.517-13.517 5.556 5.556z"/></g><g><path fill="#7c7c7c" d="M29.36 49.361l-5.556-5.556 1.268-1.268 5.557 5.555z"/></g><g><path fill="#7c7c7c" d="M47.464 31.258L41.908 25.7l1.803-1.802a1.736 1.736 0 0 1 2.455 0l3.1 3.1a1.736 1.736 0 0 1 0 2.456z"/></g><g><path fill="#7c7c7c" d="M22.289 50.371l1.515-6.565 5.556 5.555z"/></g></g></svg>