<svg width="36" height="36" viewBox="0 0 36 36" fill="none" xmlns="http://www.w3.org/2000/svg">
<rect width="36" height="36" rx="18" fill="#00BE7B"/>
<path d="M17.75 11.1562L17.5312 11.375C17.375 11.5312 17.375 11.75 17.5312 11.9062L23.0938 17.4688H11.375C11.1562 17.4688 11 17.6562 11 17.8438V18.1562C11 18.375 11.1562 18.5312 11.375 18.5312H23.0938L17.5312 24.125C17.375 24.2812 17.375 24.5 17.5312 24.6562L17.75 24.875C17.9062 25.0312 18.125 25.0312 18.2812 24.875L24.875 18.2812C25.0312 18.125 25.0312 17.9062 24.875 17.75L18.2812 11.1562C18.125 11 17.9062 11 17.75 11.1562Z" fill="white"/>
</svg>
