<?xml version="1.0" encoding="UTF-8" standalone="no"?>
<!-- Created with Inkscape (http://www.inkscape.org/) -->

<svg
   xmlns:dc="http://purl.org/dc/elements/1.1/"
   xmlns:cc="http://creativecommons.org/ns#"
   xmlns:rdf="http://www.w3.org/1999/02/22-rdf-syntax-ns#"
   xmlns:svg="http://www.w3.org/2000/svg"
   xmlns="http://www.w3.org/2000/svg"
   xmlns:sodipodi="http://sodipodi.sourceforge.net/DTD/sodipodi-0.dtd"
   xmlns:inkscape="http://www.inkscape.org/namespaces/inkscape"
   version="1.1"
   width="512.5965"
   height="99.499977"
   id="svg2"
   inkscape:version="0.91 r13725"
   sodipodi:docname="logo-header.svg">
  <metadata
     id="metadata11">
    <rdf:RDF>
      <cc:Work
         rdf:about="">
        <dc:format>image/svg+xml</dc:format>
        <dc:type
           rdf:resource="http://purl.org/dc/dcmitype/StillImage" />
        <dc:title></dc:title>
      </cc:Work>
    </rdf:RDF>
  </metadata>
  <sodipodi:namedview
     pagecolor="#ffffff"
     bordercolor="#666666"
     borderopacity="1"
     objecttolerance="10"
     gridtolerance="10"
     guidetolerance="10"
     inkscape:pageopacity="0"
     inkscape:pageshadow="2"
     inkscape:window-width="1232"
     inkscape:window-height="755"
     id="namedview9"
     showgrid="false"
     fit-margin-top="0"
     fit-margin-left="0"
     fit-margin-right="0"
     fit-margin-bottom="0"
     inkscape:zoom="0.7071068"
     inkscape:cx="327.98573"
     inkscape:cy="32.785304"
     inkscape:window-x="45"
     inkscape:window-y="0"
     inkscape:window-maximized="0"
     inkscape:current-layer="svg2" />
  <defs
     id="defs4" />
  <g
     id="g3369"
     transform="scale(1.1306819,1.1306819)">
    <rect
       style="fill:#ffffff;stroke:none"
       id="rect6"
       y="0"
       x="0"
       height="50.507721"
       width="160.62041" />
    <path
       inkscape:connector-curvature="0"
       style="fill:#000000;stroke:none"
       id="path8"
       d="m 128.26328,87.94375 c -0.0886,-0.0336 -0.0941,-0.12359 -0.0196,-0.32224 0.0943,-0.25164 0.13781,-0.2713 0.50036,-0.22607 0.32883,0.041 0.4256,0.0117 0.56298,-0.17076 0.26419,-0.3508 0.0603,-0.60386 -0.41914,-0.52021 -0.3677,0.0642 -0.37345,0.0603 -0.30261,-0.20218 0.22496,-0.83365 0.24633,-0.78773 -0.42401,-0.91136 -0.798,-0.14716 -1.56153,-0.56291 -2.148,-1.16958 -0.88061,-0.91094 -1.186,-1.83245 -1.09824,-3.31382 0.0447,-0.75464 0.11383,-1.04886 0.36967,-1.57364 0.78296,-1.60599 2.57134,-2.42493 4.97509,-2.27821 0.52044,0.0318 1.18122,0.11419 1.46842,0.18315 l 0.52217,0.1254 0.03,0.89845 0.03,0.89846 -0.31723,0 c -0.18709,0 -0.31722,-0.0507 -0.31722,-0.12357 0,-0.25232 -0.63952,-0.83625 -1.09179,-0.9969 -0.58374,-0.20734 -1.71627,-0.16007 -2.28357,0.0953 -1.29669,0.58372 -1.88788,2.09899 -1.49364,3.82825 0.18317,0.80345 0.4858,1.34241 1.06436,1.89555 0.54839,0.5243 1.1016,0.73593 1.93048,0.73852 0.87664,0.003 1.49038,-0.32488 1.87639,-1.00161 0.26225,-0.4598 0.35581,-0.51621 0.6088,-0.3671 0.11774,0.0694 0.11882,0.22926 0.007,0.96687 l -0.13449,0.88374 -0.47654,0.15315 c -0.26208,0.0842 -0.86424,0.17947 -1.33812,0.21163 -0.81706,0.0555 -0.86158,0.0703 -0.86158,0.28687 0,0.17293 0.0578,0.2284 0.23785,0.2284 0.34879,0 0.67598,0.25123 0.75323,0.57835 0.0897,0.38009 -0.20108,0.94239 -0.58224,1.12571 -0.2757,0.1326 -1.35004,0.18501 -1.62837,0.0794 z M 66.128723,87.53497 c -0.904087,-0.24789 -1.683802,-0.62184 -2.621639,-1.25734 l -0.810213,-0.54902 -1.253215,-0.0598 c -1.389565,-0.0663 -1.875093,-0.21055 -2.773981,-0.82425 -1.980152,-1.3519 -2.052044,-4.79211 -0.13514,-6.46654 1.443073,-1.26054 3.981774,-1.52098 5.80914,-0.59597 2.466992,1.24879 2.728901,4.93276 0.487886,6.86243 -0.347762,0.29945 -0.688361,0.54462 -0.756884,0.54483 -0.21345,7e-4 2.240821,1.2493 2.958443,1.50515 0.792845,0.28268 1.719189,0.32045 2.397771,0.0978 0.493638,-0.16198 0.578012,-0.14257 0.660849,0.15204 0.04838,0.17208 -0.03607,0.24456 -0.535677,0.45975 -0.787551,0.33921 -2.437783,0.40225 -3.42734,0.13092 z M 63.066359,84.5332 c 1.748728,-0.84965 2.08165,-3.57057 0.649492,-5.30817 -1.327251,-1.61031 -3.653506,-1.36654 -4.527881,0.4745 -0.790011,1.6634 0.111338,4.23502 1.722952,4.91573 0.652273,0.27551 1.484739,0.24382 2.155437,-0.0821 z M 8.1820083,85.53982 C 7.7023422,85.34511 7.1760909,84.73942 6.344472,83.42489 5.066844,81.40536 4.8273943,81.10948 4.4706888,81.10948 l -0.3094126,0 0.00211,1.09271 c 0.00383,1.99438 0.2194389,2.67689 0.8954975,2.8347 0.1808505,0.0422 0.2511829,0.12611 0.2511829,0.29961 l 0,0.24097 -2.1409093,0 -2.1409093,0 0,-0.22877 c 0,-0.17327 0.079779,-0.25006 0.3287853,-0.31648 0.1808304,-0.0482 0.4275571,-0.21076 0.5482815,-0.36118 0.2142279,-0.26691 0.2194966,-0.36407 0.2194966,-4.0473 0,-3.68327 -0.00527,-3.78039 -0.2194966,-4.04722 C 1.7845904,76.42616 1.5378637,76.26367 1.3570333,76.21543 1.1167739,76.15133 1.028248,76.07033 1.028248,75.91453 c 0,-0.21225 0.011803,-0.21348 2.6525554,-0.27668 2.8106399,-0.0673 3.4300019,-0.0175 4.2222144,0.33917 0.6920788,0.3116 1.2689371,1.25574 1.2705475,2.07951 0.00183,0.94309 -0.7522581,2.00823 -1.7473237,2.46803 l -0.520879,0.24069 1.1512473,1.60478 c 1.3543864,1.88796 1.7797295,2.3923 2.1799011,2.58476 0.37357,0.17967 0.409457,0.57157 0.06031,0.65859 -0.4200538,0.1047 -1.7933385,0.0569 -2.1148007,-0.0736 z M 5.5687893,80.12697 C 6.9688165,79.76548 7.4413321,77.95607 6.3818033,77.0137 5.8837441,76.57071 5.3548444,76.40991 4.6798116,76.49626 l -0.5185354,0.0663 0,1.83636 0,1.83636 0.4960641,-7e-4 c 0.2728355,-3e-4 0.6829877,-0.0488 0.911449,-0.1078 z m 24.0622347,5.41354 c -0.572373,-0.19024 -1.112056,-0.52899 -1.39776,-0.87737 -0.519225,-0.63313 -0.573749,-0.96601 -0.580096,-3.54159 -0.0066,-2.69202 -0.06109,-2.98779 -0.592346,-3.21737 -0.213417,-0.0922 -0.337962,-0.21698 -0.339356,-0.33995 -0.0021,-0.18673 0.06668,-0.19426 1.773161,-0.19426 1.771511,0 1.775369,3.5e-4 1.775333,0.21854 -2.1e-5,0.14682 -0.06261,0.21854 -0.190699,0.21854 -0.104864,0 -0.304596,0.11278 -0.443847,0.25061 l -0.253183,0.25061 0,2.63902 c 0,2.48361 0.01278,2.66166 0.216958,3.02368 0.318444,0.5646 0.953674,0.85502 1.770606,0.80949 0.878937,-0.049 1.354376,-0.33889 1.705317,-1.03986 0.269287,-0.53788 0.271779,-0.56452 0.273697,-2.92676 0.0018,-2.11526 -0.0188,-2.4134 -0.182142,-2.64526 -0.101246,-0.14372 -0.300978,-0.2886 -0.443847,-0.32195 -0.162206,-0.0379 -0.259766,-0.12964 -0.259766,-0.24437 0,-0.17114 0.09655,-0.18373 1.409866,-0.18373 1.313312,0 1.409869,0.0126 1.409869,0.18373 0,0.11441 -0.09739,0.20646 -0.258076,0.24397 -0.480913,0.11227 -0.519309,0.32048 -0.576235,3.12483 l -0.05338,2.6298 -0.314389,0.57133 c -0.371068,0.67433 -0.972055,1.14056 -1.745649,1.35422 -0.652558,0.18024 -2.180182,0.1882 -2.704032,0.0141 z m 40.729496,0 c -0.578734,-0.19235 -1.113,-0.53014 -1.408613,-0.8906 -0.492279,-0.60027 -0.562858,-1.04417 -0.569247,-3.58015 -0.0067,-2.6367 -0.06279,-2.93674 -0.592342,-3.16558 -0.213421,-0.0922 -0.337962,-0.21698 -0.33936,-0.33995 -0.0021,-0.18673 0.06669,-0.19426 1.773165,-0.19426 1.754731,0 1.775368,0.002 1.775333,0.21178 -2.5e-5,0.14231 -0.07368,0.22197 -0.224534,0.24283 -0.123478,0.0171 -0.323206,0.15434 -0.443847,0.30505 -0.205557,0.25679 -0.221514,0.41682 -0.25382,2.54537 -0.03969,2.6151 0.03881,3.16661 0.515208,3.61981 0.861851,0.81986 2.653193,0.59085 3.160833,-0.4041 0.319718,-0.62663 0.401784,-1.41167 0.362458,-3.46733 -0.04163,-2.17656 -0.111503,-2.44791 -0.663442,-2.57675 -0.162202,-0.0379 -0.259766,-0.12964 -0.259766,-0.24437 0,-0.17114 0.09656,-0.18373 1.409869,-0.18373 1.309894,0 1.409866,0.013 1.409866,0.18248 0,0.11018 -0.121155,0.22915 -0.305797,0.30028 -0.168192,0.0648 -0.341771,0.1903 -0.385732,0.27889 -0.04396,0.0886 -0.106082,1.34456 -0.138047,2.79102 l -0.05812,2.62994 -0.314389,0.57119 c -0.371075,0.67418 -0.972181,1.14046 -1.745649,1.35408 -0.652555,0.18024 -2.180178,0.1882 -2.704028,0.0141 z m 33.05671,-0.004 c -0.41744,-0.16903 -0.91396,-0.74463 -1.68221,-1.95012 -0.99214,-1.55682 -1.10486,-1.69726 -1.36337,-1.69858 -0.23125,-0.001 -0.23497,0.0181 -0.23497,1.21604 0,1.45234 0.13037,1.86175 0.62198,1.9532 0.24719,0.046 0.31793,0.11046 0.31793,0.28982 l 0,0.23069 -1.775388,0 -1.77539,0 0,-0.23069 c 0,-0.17936 0.07073,-0.24384 0.31793,-0.28982 0.594975,-0.11068 0.637106,-0.3737 0.601389,-3.75472 l -0.03161,-2.9942 -0.25318,-0.2505 c -0.139254,-0.13777 -0.338986,-0.2505 -0.443847,-0.2505 -0.118212,0 -0.190668,-0.0707 -0.190668,-0.18597 0,-0.16024 0.105991,-0.19521 0.76603,-0.25273 0.421309,-0.0367 1.58445,-0.0501 2.584754,-0.0297 1.62627,0.0332 1.86476,0.0597 2.25378,0.25054 0.69108,0.33904 1.07925,1.00015 1.07925,1.8381 0,0.79597 -0.49066,1.49508 -1.38138,1.9682 -0.28434,0.15104 -0.46803,0.30276 -0.40819,0.33716 0.0598,0.0344 0.52133,0.64037 1.02553,1.3466 0.98979,1.38641 1.53994,2.01254 1.76833,2.01254 0.20131,0 0.18349,0.45095 -0.0207,0.52383 -0.29636,0.10577 -1.44576,0.0545 -1.77598,-0.0792 z m -1.93016,-4.56915 c 0.41512,-0.19965 0.82275,-0.67982 0.8993,-1.05932 0.0983,-0.48728 -0.13231,-1.13006 -0.53081,-1.47961 -0.36903,-0.3237 -0.7255,-0.41651 -1.34243,-0.34953 l -0.37645,0.0409 0,1.49489 0,1.49489 0.52735,0 c 0.29005,0 0.66041,-0.064 0.82304,-0.1422 z m 46.48625,4.55234 c -0.31284,-0.0782 -0.58755,-0.15963 -0.61047,-0.18095 -0.0229,-0.0213 -0.0993,-0.4571 -0.16975,-0.96841 l -0.12806,-0.92965 0.29469,0 c 0.16208,0 0.29469,0.0362 0.29469,0.0805 0,0.25271 0.68532,0.99706 1.08273,1.17598 1.07412,0.48361 2.36413,0.0283 2.36323,-0.83406 -0.001,-0.56593 -0.29609,-0.90418 -1.30232,-1.49083 -1.41191,-0.82316 -1.95711,-1.25782 -2.2387,-1.78478 -0.28073,-0.52537 -0.33089,-1.34296 -0.11901,-1.94009 0.13986,-0.39413 0.79596,-0.98268 1.34828,-1.20946 0.55604,-0.2283 2.2963,-0.22094 3.01707,0.0128 l 0.54828,0.17778 0,0.86637 0,0.86637 -0.30198,0 c -0.23443,0 -0.31654,-0.0539 -0.36703,-0.24105 -0.10948,-0.40565 -0.66932,-0.91219 -1.1379,-1.02954 -1.25354,-0.31394 -2.25755,0.88217 -1.47061,1.75197 0.15029,0.16612 0.83161,0.65401 1.51406,1.08419 1.3219,0.83328 1.81026,1.28702 1.9739,1.83398 0.36008,1.20358 -0.238,2.26664 -1.5277,2.71542 -0.69204,0.24082 -2.18909,0.26208 -3.0634,0.0435 z M 11.158394,85.3157 c 0,-0.17217 0.05847,-0.22379 0.253507,-0.22379 0.149478,0 0.342328,-0.10502 0.469956,-0.25592 0.208548,-0.24659 0.216449,-0.36737 0.216449,-3.30882 0,-2.13469 -0.03654,-3.1167 -0.121493,-3.26504 -0.155587,-0.2717 -0.403549,-0.44798 -0.635658,-0.4519 -0.124436,-0.002 -0.182761,-0.0806 -0.182761,-0.24591 l 0,-0.24283 3.133038,0 3.133038,0 0,1.02632 0,1.02632 -0.274185,-0.0307 c -0.206514,-0.0232 -0.303172,-0.11239 -0.39163,-0.3616 -0.205885,-0.58 -0.54966,-0.72777 -1.792738,-0.77056 l -1.092223,-0.0376 0,1.38332 0,1.38332 0.840007,-0.0452 c 0.915495,-0.0493 1.37652,-0.25602 1.438709,-0.64511 0.02462,-0.15404 0.10679,-0.20876 0.313304,-0.20867 l 0.279932,1e-4 0,1.26257 0,1.26258 -0.287195,-2e-5 c -0.231653,-10e-6 -0.287196,-0.0441 -0.287196,-0.22778 0,-0.43374 -0.348235,-0.59451 -1.368463,-0.63178 l -0.929098,-0.0339 0,1.36398 c 0,1.644 0.01623,1.66639 1.208651,1.66639 1.175967,0 1.788994,-0.277 2.0959,-0.94702 0.155111,-0.33863 0.516704,-0.43536 0.627118,-0.16775 0.07286,0.1766 -0.221451,1.31687 -0.442509,1.71446 l -0.156446,0.28137 -3.024006,-0.0225 -3.024008,-0.0225 0,-0.22379 z m 8.041466,0.0312 c 0,-0.17767 0.0707,-0.24383 0.307624,-0.2879 0.551013,-0.1025 0.577181,-0.24632 0.612529,-3.36662 0.03681,-3.24886 -0.0079,-3.54151 -0.578481,-3.78808 -0.23798,-0.10284 -0.337817,-0.2127 -0.339412,-0.37347 l -0.0021,-0.22777 2.375884,0.0403 c 2.568885,0.0435 2.778452,0.0813 3.474704,0.62619 0.765195,0.59884 0.963561,1.78986 0.445534,2.67507 -0.45182,0.77208 -1.232972,1.18208 -2.478256,1.30074 l -0.652316,0.0621 -0.162071,-0.3761 -0.162075,-0.3761 0.385904,-0.0525 c 0.490284,-0.0667 1.022698,-0.35547 1.304678,-0.70764 0.160374,-0.20029 0.217842,-0.41034 0.212597,-0.77704 -0.01352,-0.94576 -0.585172,-1.52417 -1.582335,-1.60108 l -0.564323,-0.0435 0.0326,3.24211 c 0.03553,3.53583 0.05232,3.63519 0.633079,3.74587 0.216166,0.0412 0.287193,0.11179 0.287193,0.28542 l 0,0.23069 -1.775386,0 -1.775389,0 0,-0.23069 z m 17.336144,-0.0355 c 0,-0.15043 0.06206,-0.21947 0.197299,-0.21947 0.108515,0 0.308243,-0.0835 0.443848,-0.18557 l 0.246547,-0.18556 0.03161,-3.01057 c 0.0354,-3.37015 -0.0047,-3.62457 -0.60419,-3.83503 -0.188042,-0.066 -0.315128,-0.18039 -0.315128,-0.2836 0,-0.15724 0.144753,-0.17517 1.592627,-0.19725 3.04769,-0.0465 3.685531,-0.0146 4.181211,0.20851 0.642509,0.28928 0.942723,0.70811 0.995684,1.38907 0.0238,0.30607 0.01426,0.66399 -0.02119,0.79537 -0.10289,0.38127 -0.589667,0.84685 -1.127864,1.07876 l -0.497478,0.21436 0.421379,0.11742 c 1.006854,0.28057 1.648796,1.25977 1.515803,2.31218 -0.112249,0.88827 -0.522104,1.38781 -1.472929,1.79524 -0.499372,0.21398 -0.632759,0.22379 -3.054713,0.22468 l -2.532537,0.001 0,-0.21948 z m 4.605786,-0.73135 c 0.532266,-0.3307 0.743554,-0.78106 0.684263,-1.45846 -0.0892,-1.01913 -0.854543,-1.62349 -2.05594,-1.62349 l -0.638292,0 0.03362,1.46576 c 0.03224,1.40498 0.04386,1.47345 0.280181,1.65121 0.360666,0.27131 1.232102,0.25331 1.696158,-0.035 z m -0.431274,-4.03603 c 0.641164,-0.22852 0.978595,-0.69538 0.91188,-1.26167 -0.08964,-0.76093 -0.748911,-1.1838 -1.845567,-1.1838 l -0.62996,0 0,1.31125 0,1.31126 0.548282,-0.005 c 0.301555,-0.003 0.758468,-0.0802 1.015365,-0.17175 z m 4.284723,4.7729 c -2.5e-5,-0.15698 0.07191,-0.22008 0.276834,-0.24283 0.155651,-0.0173 0.372835,-0.15079 0.496063,-0.30496 0.211471,-0.26456 0.219197,-0.37929 0.219197,-3.25387 0,-2.38807 -0.02929,-3.02784 -0.1476,-3.22245 -0.184445,-0.30344 -0.424593,-0.47855 -0.661767,-0.48256 -0.118923,-0.002 -0.182762,-0.0794 -0.182762,-0.22164 0,-0.21854 0,-0.21854 1.879824,-0.21854 1.879824,0 1.879824,0 1.879824,0.21854 0,0.1517 -0.0621,0.21855 -0.203047,0.21855 -0.111676,0 -0.334904,0.10543 -0.496063,0.2343 l -0.293019,0.23431 -0.03031,3.06332 -0.03031,3.06333 0.267256,0.16286 c 0.211556,0.12892 0.437719,0.15369 1.085135,0.11884 0.993781,-0.0535 1.459178,-0.28224 1.736019,-0.85323 0.184194,-0.3799 0.379096,-0.47216 0.654237,-0.3097 0.103284,0.061 0.08645,0.24045 -0.07901,0.84213 -0.115646,0.42055 -0.282909,0.86775 -0.371694,0.99378 l -0.161431,0.22914 -2.918678,-0.0286 -2.918675,-0.0286 -3.1e-5,-0.2121 z m 7.310389,0.0299 c 0,-0.17936 0.07074,-0.24384 0.317926,-0.28982 0.57665,-0.10726 0.622033,-0.37219 0.621593,-3.62869 -3.13e-4,-2.70437 -0.01376,-2.91313 -0.205628,-3.20581 -0.112883,-0.17219 -0.324188,-0.34083 -0.469564,-0.37477 -0.179879,-0.042 -0.264327,-0.12816 -0.264327,-0.26971 0,-0.20444 0.03048,-0.20802 1.775389,-0.20802 1.744892,0 1.775386,0.004 1.775386,0.20802 0,0.14059 -0.0842,0.22766 -0.259766,0.26865 -0.142869,0.0333 -0.342601,0.17817 -0.443847,0.32184 -0.165672,0.23508 -0.184082,0.55791 -0.184082,3.22803 0,3.29785 0.04255,3.56239 0.589385,3.66411 0.227642,0.0423 0.29831,0.11014 0.29831,0.28617 l 0,0.23069 -1.775386,0 -1.775389,0 0,-0.23069 z m 24.959868,-0.0176 c 0,-0.15978 0.07957,-0.22792 0.31793,-0.27226 0.576833,-0.10729 0.621984,-0.37142 0.621984,-3.63861 0,-2.86203 -0.0035,-2.90728 -0.238568,-3.23269 -0.131212,-0.18153 -0.34269,-0.34401 -0.469956,-0.36108 -0.16627,-0.0223 -0.23139,-0.0975 -0.23139,-0.26711 l 0,-0.23607 3.080823,0 3.08082,0 0,1.01987 c 0,1.01043 -0.0025,1.01987 -0.249466,1.01987 -0.201847,0 -0.262394,-0.0641 -0.317225,-0.33594 -0.116456,-0.57735 -0.543041,-0.77121 -1.791582,-0.8142 l -1.056591,-0.0364 -0.06796,0.46112 c -0.03738,0.25362 -0.06796,0.87641 -0.06796,1.38399 l 0,0.92287 0.888462,-0.0515 c 0.978176,-0.0568 1.365327,-0.21688 1.470979,-0.60841 0.04672,-0.17312 0.135985,-0.24159 0.314963,-0.24159 l 0.249765,0 0,1.26269 0,1.26269 -0.261085,0 c -0.177767,0 -0.262149,-0.0542 -0.264409,-0.16997 -0.0094,-0.48077 -0.506373,-0.7042 -1.566347,-0.7042 l -0.852357,0 0.03612,1.36775 c 0.04376,1.65687 0.03312,1.64329 1.287172,1.64329 1.106822,0 1.682427,-0.24661 1.983725,-0.84989 0.15175,-0.30385 0.267273,-0.4128 0.43768,-0.4128 0.127336,0 0.263285,0.0478 0.302114,0.10623 0.09518,0.14323 -0.368072,1.72211 -0.556765,1.89761 -0.124538,0.11582 -0.654833,0.13603 -3.115481,0.11873 l -2.965403,-0.0208 0,-0.21311 z m 11.487808,0.023 c 0,-0.15925 0.09731,-0.26603 0.331957,-0.36424 0.182575,-0.0764 0.429303,-0.26237 0.548282,-0.41322 0.209764,-0.26596 0.216322,-0.38527 0.216322,-3.93378 0,-4.11651 -0.0082,-4.16611 -0.729225,-4.38741 -0.285704,-0.0877 -0.367336,-0.16504 -0.367336,-0.34805 l 0,-0.23529 3.655213,0 3.655211,0 0,1.21413 0,1.21413 -0.313305,0 c -0.255175,0 -0.313375,-0.0406 -0.313699,-0.21855 -7.04e-4,-0.35744 -0.393895,-0.85039 -0.811258,-1.01693 -0.246977,-0.0985 -0.818945,-0.17191 -1.564231,-0.20064 l -1.174892,-0.0453 0,1.66343 0,1.66344 0.861587,-0.005 c 1.148361,-0.007 1.541401,-0.13984 1.783982,-0.60158 0.156048,-0.29701 0.247614,-0.36424 0.496066,-0.36424 l 0.304709,0 0,1.46311 0,1.4631 -0.335308,-0.0305 c -0.2303,-0.0209 -0.352947,-0.0913 -0.391632,-0.2247 -0.165644,-0.57131 -0.80476,-0.8256 -2.074991,-0.8256 l -0.667701,0 0.04255,1.72406 c 0.04855,1.96753 0.13754,2.25508 0.762999,2.46543 0.274363,0.0923 0.366527,0.17941 0.366527,0.34658 l 0,0.22331 -2.14091,0 -2.140913,0 0,-0.2253 z m 16.709546,-0.0175 c 0,-0.17749 0.0558,-0.24283 0.20738,-0.24283 0.32001,0 0.68549,-0.60532 1.47984,-2.45096 1.06371,-2.47149 2.07242,-4.98452 2.07242,-5.16307 0,-0.12209 0.10878,-0.15595 0.49606,-0.1544 l 0.49607,0.002 1.40861,3.3579 c 1.52965,3.64641 1.8116,4.21319 2.16827,4.35874 0.14408,0.0588 0.23498,0.1809 0.23498,0.31567 0,0.21968 -0.001,0.21979 -1.77539,0.21979 l -1.77538,0 0,-0.23068 c 0,-0.17816 0.0707,-0.24384 0.31051,-0.28845 0.44883,-0.0835 0.4759,-0.36601 0.12705,-1.32634 l -0.29991,-0.82561 -1.23404,0 -1.23404,0 -0.24807,0.67991 c -0.31255,0.85667 -0.29444,1.44303 0.046,1.488 0.17008,0.0224 0.23498,0.0962 0.23498,0.2671 l 0,0.23607 -1.35765,0 -1.35764,0 0,-0.24282 z m 4.80399,-3.40112 c 0,-0.14778 -0.76718,-2.08674 -0.82565,-2.08674 -0.0381,0 -0.14453,0.18576 -0.23658,0.4128 -0.0921,0.22705 -0.28807,0.70784 -0.43559,1.06844 l -0.26821,0.65562 0.88301,0 c 0.48566,0 0.88302,-0.0226 0.88302,-0.0501 z m 4.49068,3.41326 c 0,-0.17363 0.071,-0.24422 0.2872,-0.28542 0.56496,-0.10767 0.59033,-0.24449 0.63422,-3.42079 0.0453,-3.27681 0.001,-3.55232 -0.60628,-3.76548 -0.18805,-0.066 -0.31514,-0.18039 -0.31514,-0.2836 0,-0.15563 0.11776,-0.17294 1.17489,-0.17276 l 1.17489,2e-4 0.67883,0.79904 c 0.37335,0.43947 1.33676,1.52205 2.1409,2.40574 0.80415,0.88368 1.56986,1.73693 1.70158,1.89611 l 0.23949,0.28942 -0.0338,-2.19427 c -0.0369,-2.39097 -0.0953,-2.63762 -0.65532,-2.76836 -0.16221,-0.0379 -0.25978,-0.12964 -0.25978,-0.24437 0,-0.17115 0.0966,-0.18373 1.40987,-0.18373 1.32331,0 1.40987,0.0115 1.40987,0.18751 0,0.11747 -0.0838,0.1991 -0.2245,0.21854 -0.12348,0.0171 -0.32321,0.15437 -0.44385,0.3051 -0.21209,0.26499 -0.2204,0.39279 -0.25134,3.86093 l -0.032,3.58686 -0.45529,0 c -0.41185,0 -0.48823,-0.0394 -0.80057,-0.4128 -0.2761,-0.3301 -4.70044,-5.42667 -4.86942,-5.60927 -0.0247,-0.0267 -0.0244,1.04415 0.001,2.37969 0.0509,2.70819 0.11447,3.03217 0.61329,3.12496 0.23066,0.0429 0.30135,0.11016 0.30135,0.28674 l 0,0.23068 -1.40987,0 -1.40987,0 0,-0.23068 z m 18.27606,-0.0121 c 0,-0.14429 0.0598,-0.24282 0.14737,-0.24282 0.20639,0 0.59348,-0.45578 0.86989,-1.02426 0.38441,-0.79058 2.17169,-5.0813 2.47836,-5.94976 l 0.2847,-0.80626 0.46685,0.0292 0.46684,0.0292 1.38553,3.30242 c 0.76205,1.81634 1.46922,3.45541 1.57151,3.64239 0.23349,0.42681 0.5734,0.77704 0.75414,0.77704 0.0781,0 0.13845,0.10593 0.13845,0.24283 l 0,0.24282 -1.77539,0 -1.77539,0 0,-0.24282 c 0,-0.16908 0.0571,-0.24283 0.18798,-0.24283 0.50542,0 0.55226,-0.41047 0.16897,-1.4809 l -0.26966,-0.75309 -1.2256,0 -1.22559,0 -0.22226,0.65562 c -0.4198,1.23837 -0.39988,1.57837 0.0925,1.57837 0.13954,0 0.19609,0.07 0.19609,0.24283 l 0,0.24282 -1.35765,0 -1.35765,0 0,-0.24282 z m 4.43117,-4.34657 c -0.19745,-0.54757 -0.38696,-1.06115 -0.42115,-1.14128 -0.0371,-0.087 -0.24595,0.28452 -0.51858,0.92274 -0.25104,0.58763 -0.45787,1.10121 -0.45963,1.14127 -0.002,0.0401 0.39314,0.0729 0.87757,0.0729 l 0.88079,0 -0.359,-0.99558 z m 4.75907,4.34657 c 0,-0.18998 0.0533,-0.24282 0.2449,-0.24282 0.1347,0 0.33443,-0.0919 0.44385,-0.20431 0.18519,-0.19019 0.20107,-0.41353 0.22963,-3.22958 0.0169,-1.6639 0.005,-3.12241 -0.0274,-3.24113 -0.0744,-0.27675 -0.4577,-0.60975 -0.70183,-0.60975 -0.12654,0 -0.18918,-0.0724 -0.1892,-0.21854 -4e-5,-0.21807 0.004,-0.21854 1.77532,-0.21854 1.70747,0 1.77538,0.007 1.77543,0.19483 4e-5,0.1215 -0.11369,0.24166 -0.30218,0.31925 -0.16621,0.0684 -0.35071,0.24301 -0.40998,0.38795 -0.15218,0.37221 -0.23876,3.40311 -0.14396,5.0405 0.0661,1.14207 0.11316,1.41176 0.27528,1.57837 0.10754,0.11052 0.28223,0.20095 0.38821,0.20095 0.13591,0 0.19269,0.0716 0.19269,0.24282 l 0,0.24283 -1.77539,0 -1.77539,0 0,-0.24283 z m 11.69668,-0.0174 c 0,-0.17385 0.058,-0.22537 0.2535,-0.22537 0.14948,0 0.34233,-0.10503 0.46996,-0.25593 0.20854,-0.24658 0.21645,-0.36736 0.21645,-3.30881 0,-2.13469 -0.0365,-3.1167 -0.12149,-3.26505 -0.15559,-0.27169 -0.40356,-0.44797 -0.63566,-0.45189 -0.12443,-0.002 -0.18276,-0.0806 -0.18276,-0.24592 l 0,-0.24282 3.13304,0 3.13304,0 0,1.02632 0,1.02632 -0.27419,-0.0307 c -0.20652,-0.0232 -0.30317,-0.1124 -0.39163,-0.3616 -0.20588,-0.58 -0.54966,-0.72777 -1.79274,-0.77057 l -1.09222,-0.0376 0,1.37084 0,1.37084 0.65271,-0.005 c 0.90607,-0.008 1.34794,-0.16565 1.54042,-0.55092 0.11472,-0.22963 0.22654,-0.3141 0.41773,-0.31553 l 0.26109,-0.002 0,1.26257 0,1.26258 -0.2872,-2e-5 c -0.23165,-1e-5 -0.28719,-0.0441 -0.28719,-0.22778 0,-0.43374 -0.34824,-0.59451 -1.36846,-0.63178 l -0.9291,-0.0339 0,1.36398 c 0,1.64401 0.0162,1.66639 1.20865,1.66639 1.17597,0 1.789,-0.27699 2.0959,-0.94702 0.15512,-0.33864 0.5167,-0.43536 0.62712,-0.16775 0.0729,0.1766 -0.22146,1.31688 -0.44251,1.71446 l -0.15646,0.28138 -3.02399,-0.0209 -3.02401,-0.0209 0,-0.22537 z m -139.936528,-8.86248 -0.255243,-0.18245 0.620764,-0.8823 c 0.341421,-0.48526 0.687408,-0.88298 0.768862,-0.88382 0.353135,-0.004 1.477539,0.22106 1.449378,0.28963 -0.05608,0.13656 -2.117308,1.84458 -2.224083,1.84297 -0.05744,-7e-4 -0.219294,-0.0837 -0.359678,-0.18403 z m -13.26903786,-6.70946 159.05390586,0 0,0.87418 -159.05390586,0 0,-0.87418 z M 61.24912,67.75749 c -0.835433,-0.277 -1.305272,-1.00125 -1.153089,-1.77748 0.102556,-0.52311 0.420936,-0.88915 0.98465,-1.13206 l 0.493286,-0.21256 -0.300137,-0.1602 c -0.170579,-0.091 -0.300132,-0.24274 -0.300132,-0.35142 0,-0.17575 0.765765,-0.88625 0.955187,-0.88625 0.04516,0 -0.02038,-0.16159 -0.145679,-0.35909 -0.534811,-0.84304 -0.106955,-2.0619 0.891549,-2.53981 0.54058,-0.25873 0.723082,-0.26968 2.615867,-0.15691 1.08888,0.0649 1.129406,0.0753 1.071882,0.27464 -0.03288,0.11397 -0.06043,0.24 -0.06122,0.28006 -7.04e-4,0.0401 -0.184952,0.0728 -0.40926,0.0728 l -0.407834,0 0.05506,0.56469 c 0.120116,1.23202 -0.821959,2.07581 -2.342838,2.09843 -0.790022,0.0118 -1.172403,0.16758 -0.864192,0.35218 0.08568,0.0513 0.595708,0.22572 1.133398,0.38756 1.728999,0.52042 2.04852,0.7823 1.974783,1.61858 -0.07658,0.86857 -0.82777,1.62586 -1.914492,1.93004 -0.622326,0.17419 -1.746459,0.17259 -2.276789,-0.003 z m 2.325291,-0.59968 c 0.847827,-0.39295 1.215114,-1.14171 0.751463,-1.53196 -0.312368,-0.26292 -1.669011,-0.66654 -2.020557,-0.60115 -0.715704,0.13313 -1.384289,0.9447 -1.260892,1.53056 0.16959,0.80516 1.43999,1.10772 2.529986,0.60255 z m 0.2796,-4.39484 c 0.636536,-0.36101 0.882387,-1.38555 0.454017,-1.89205 -0.585971,-0.69283 -1.701223,0.0794 -1.711628,1.18516 -0.0032,0.3436 0.05003,0.46441 0.289055,0.65563 0.35232,0.28186 0.544069,0.29201 0.968556,0.0513 z m 3.960155,2.25388 c -0.458786,-0.0872 -0.704577,-0.37199 -0.75674,-0.8769 -0.133563,-1.29278 1.035894,-3.18751 2.344661,-3.79878 0.680286,-0.31773 2.02217,-0.34978 2.916151,-0.0697 0.0802,0.0251 0.02091,0.35718 -0.185782,1.04009 -0.404226,1.33567 -0.635698,2.67257 -0.502737,2.90363 0.08722,0.15156 0.149086,0.16207 0.42591,0.0723 0.255513,-0.0828 0.343189,-0.0766 0.415395,0.0295 0.150328,0.22101 0.05897,0.30508 -0.537761,0.49484 -0.802282,0.25511 -1.169541,0.20538 -1.290129,-0.1747 l -0.0952,-0.30006 -0.427613,0.22228 c -0.721836,0.37522 -1.708615,0.57094 -2.306156,0.4574 z m 1.805362,-0.87327 c 0.303678,-0.13418 0.620404,-0.34084 0.703828,-0.45926 0.139473,-0.19798 0.564879,-1.65505 0.730966,-2.50364 0.06806,-0.34774 0.0597,-0.35968 -0.319964,-0.45718 -0.701427,-0.18012 -1.406867,0.29562 -1.968828,1.32776 -0.589522,1.08276 -0.738168,2.04731 -0.354069,2.29753 0.260772,0.16988 0.420541,0.14274 1.208067,-0.20521 z m 49.446572,0.84473 c -0.46865,-0.10348 -0.634,-0.25475 -0.7621,-0.69724 -0.19426,-0.67095 0.25523,-1.94014 1.01964,-2.87903 0.91537,-1.12432 1.93278,-1.5038 3.43504,-1.28122 0.39553,0.0586 0.75022,0.13687 0.78823,0.17395 0.038,0.0371 -0.094,0.65747 -0.29328,1.37866 -0.1993,0.72119 -0.37138,1.59537 -0.38239,1.94261 l -0.02,0.63134 0.44385,-0.0184 c 0.39823,-0.0165 0.44384,0.004 0.44384,0.20316 0,0.18545 -0.0982,0.24921 -0.60257,0.39124 -0.82999,0.23373 -1.21516,0.18376 -1.25807,-0.16321 -0.0182,-0.14691 -0.0521,-0.26711 -0.0754,-0.26711 -0.0233,0 -0.29637,0.10451 -0.60691,0.23223 -0.49959,0.2055 -1.51778,0.46493 -1.71793,0.43774 -0.0403,-0.005 -0.22564,-0.0436 -0.41196,-0.0847 z m 1.74863,-0.83145 c 0.25848,-0.12014 0.54616,-0.29965 0.63929,-0.39891 0.23109,-0.24628 0.64589,-1.51398 0.86059,-2.63008 0.0572,-0.29755 0.04,-0.3178 -0.35552,-0.41685 -0.3384,-0.0847 -0.4836,-0.0741 -0.78105,0.0572 -0.66298,0.2926 -1.32086,1.28521 -1.66203,2.50763 -0.32675,1.17079 0.0807,1.44719 1.29872,0.88105 z M 7.5550288,64.76732 c -0.031113,-0.1202 0.1550553,-1.02371 0.4137084,-2.00779 0.5099677,-1.94025 0.5056596,-2.0979 -0.053257,-1.94882 -0.2764291,0.0737 -0.3078627,0.0596 -0.3078627,-0.13855 0,-0.18498 0.097115,-0.24703 0.600499,-0.38371 0.3302745,-0.0897 0.7649836,-0.1731 0.9660199,-0.18536 0.3440923,-0.021 0.3674877,-0.003 0.3990592,0.3035 0.018448,0.17919 -0.1616897,1.06702 -0.4003007,1.97295 -0.2386113,0.90593 -0.4058978,1.71487 -0.3717464,1.79764 0.049456,0.11987 0.1591613,0.13695 0.539108,0.084 0.4545316,-0.0634 0.4753967,-0.056 0.4426438,0.15606 C 9.7558033,64.59272 9.626945,64.6752 9.1741364,64.80693 8.8582217,64.89883 8.3774133,64.9767 8.1056725,64.97997 7.677077,64.98497 7.6041,64.95697 7.5550284,64.76736 Z m 4.0150032,0.0392 -0.23811,-0.17933 0.809066,-3.30581 c 0.444985,-1.8182 0.793655,-3.43121 0.774821,-3.58447 -0.03511,-0.28575 -0.07295,-0.30048 -0.478091,-0.18618 -0.200382,0.0565 -0.234978,0.0302 -0.234978,-0.1785 0,-0.2829 0.366787,-0.41957 1.383759,-0.5156 0.582615,-0.055 0.600499,-0.0497 0.600499,0.17867 0,0.12946 -0.164485,0.9286 -0.365521,1.77588 -0.201037,0.84728 -0.365522,1.59729 -0.365522,1.66669 0,0.0942 0.114816,0.0789 0.453349,-0.0603 1.163066,-0.4785 2.176917,-0.4532 2.540866,0.0634 0.340769,0.4837 0.16433,1.73548 -0.389252,2.76161 -0.288047,0.53393 -1.145112,1.3649 -1.610607,1.56157 -0.611488,0.25835 -2.53828,0.25994 -2.880279,0.002 z m 2.642671,-0.61591 c 0.523613,-0.34464 1.107327,-1.50934 1.271955,-2.53796 0.16493,-1.03051 -0.567409,-1.23609 -1.737138,-0.48763 -0.247069,0.15809 -0.445312,0.39346 -0.547622,0.6502 -0.189349,0.47514 -0.579419,2.02578 -0.579419,2.30334 0,0.40871 1.01121,0.45447 1.592224,0.072 z m 3.988457,0.49738 c -0.282882,-0.2747 -0.306237,-0.35212 -0.300341,-0.99559 0.01502,-1.63959 1.017216,-3.10702 2.397799,-3.51089 0.688811,-0.20151 1.29474,-0.13321 1.700899,0.19172 0.234242,0.18739 0.281163,0.30451 0.281163,0.7018 0,0.99999 -0.98051,1.7585 -2.391597,1.85011 -0.407792,0.0265 -0.77597,0.0967 -0.818167,0.15597 -0.117568,0.16521 -0.09419,0.72674 0.04014,0.9641 0.260596,0.46046 0.634448,0.47126 1.529887,0.0442 0.557888,-0.26609 0.672672,-0.29192 0.75555,-0.17001 0.184571,0.27147 0.09909,0.35673 -0.713082,0.7112 -0.676322,0.29518 -0.929153,0.35527 -1.49476,0.35527 -0.623375,0 -0.706616,-0.0251 -0.987493,-0.29785 z m 1.870143,-2.3323 c 0.888469,-0.22946 1.474563,-1.11287 1.019258,-1.53633 -0.287109,-0.26703 -0.552605,-0.25826 -0.921479,0.0304 -0.293797,0.22992 -0.771183,0.95846 -0.912222,1.39214 -0.05947,0.18286 -0.03158,0.21846 0.170938,0.218 0.133109,-2.9e-4 0.422688,-0.0472 0.643505,-0.10422 z m 3.514808,2.59706 c 0,-0.0162 0.187697,-0.76929 0.417102,-1.67364 0.229406,-0.90435 0.417388,-1.83561 0.417736,-2.06948 l 7.04e-4,-0.42522 -0.417736,0.0621 c -0.37029,0.0551 -0.417739,0.0401 -0.417739,-0.13198 0,-0.21302 0.337663,-0.37614 1.185321,-0.57264 0.57992,-0.13443 0.798938,-0.0422 0.798938,0.33633 l 0,0.22801 0.370656,-0.23395 c 0.651957,-0.41148 1.050213,-0.4869 1.52334,-0.28847 0.226617,0.095 0.397636,0.22 0.38004,0.27769 -0.283564,0.92962 -0.444872,1.22188 -0.674372,1.22188 -0.205297,0 -0.242018,-0.0498 -0.242018,-0.32806 0,-0.70664 -0.660947,-0.71168 -1.140286,-0.009 -0.298669,0.43802 -0.607454,1.43411 -0.852618,2.75043 -0.07313,0.39263 -0.183339,0.72766 -0.244915,0.7445 -0.183754,0.0503 -1.104086,0.14295 -1.104086,0.11118 z m 5.238682,-0.0936 c -0.115277,-0.12918 -0.05196,-0.47826 0.545174,-3.00575 l 0.246685,-1.04415 -0.352187,0 c -0.193705,0 -0.35219,-0.0247 -0.35219,-0.0549 0,-0.15189 0.233813,-0.4307 0.361184,-0.4307 0.254612,0 0.74354,-0.45992 0.948665,-0.89237 0.229303,-0.48343 0.320471,-0.56105 0.661355,-0.5631 0.224358,-0.001 0.241539,0.0287 0.179984,0.31419 -0.03743,0.17362 -0.0963,0.47958 -0.130838,0.67991 l -0.06279,0.36424 0.483303,0 c 0.493645,0 0.566326,0.0743 0.419911,0.42914 -0.04558,0.11048 -0.203766,0.15364 -0.563066,0.15364 -0.580547,0 -0.48525,-0.1942 -0.948482,1.93282 -0.340289,1.5625 -0.317324,1.70647 0.248153,1.55564 0.471895,-0.12587 0.50989,-0.11545 0.472465,0.12964 -0.02531,0.16578 -0.159449,0.25771 -0.555544,0.38074 -0.63939,0.1986 -1.447156,0.22435 -1.601786,0.0511 z m 4.21257,-0.12538 c -0.764304,-0.76702 -0.211221,-2.94833 1.005548,-3.96579 0.496464,-0.41515 1.271646,-0.73577 1.778892,-0.73577 0.321101,0 1.028575,0.30602 1.134985,0.49095 0.168323,0.29252 0.115889,0.99126 -0.09898,1.31899 -0.440331,0.67162 -1.389492,1.10397 -2.423626,1.10397 l -0.613476,0 0,0.5126 c 0,0.99506 0.444625,1.16969 1.613402,0.63365 0.372596,-0.17089 0.697988,-0.29108 0.723093,-0.26711 0.0251,0.024 0.06186,0.13101 0.08168,0.23785 0.02893,0.15592 -0.116255,0.26617 -0.735384,0.5585 -0.67043,0.31656 -0.865913,0.36424 -1.49318,0.36424 -0.642798,0 -0.749239,-0.0276 -0.972953,-0.25208 z m 1.838211,-2.38529 c 0.551837,-0.17409 0.93884,-0.46812 1.106068,-0.84036 0.140684,-0.31315 0.13677,-0.36105 -0.0484,-0.59262 -0.287027,-0.35896 -0.568849,-0.36121 -1.001397,-0.008 -0.333707,0.27251 -0.902275,1.18611 -0.902275,1.44982 0,0.13549 0.401769,0.13129 0.846004,-0.009 z m 39.222073,2.57262 c -0.14747,-0.13716 -0.05183,-0.71029 0.449124,-2.69157 0.681504,-2.69531 1.047774,-4.28218 1.047774,-4.53951 0,-0.18417 -0.04283,-0.20215 -0.365524,-0.15345 -0.332629,0.0502 -0.36552,0.0342 -0.36552,-0.17781 0,-0.243 0.260547,-0.35056 1.298288,-0.53598 0.535945,-0.0958 0.685971,-0.0326 0.685971,0.28888 0,0.14519 -0.352159,1.68124 -0.782574,3.41345 -0.430415,1.73222 -0.782879,3.29748 -0.783259,3.47836 l -7.04e-4,0.32887 0.477083,-0.0608 c 0.44856,-0.0572 0.475098,-0.048 0.443847,0.15371 -0.0257,0.16588 -0.163525,0.25245 -0.607629,0.38164 -0.586675,0.17068 -1.371779,0.23058 -1.496894,0.11422 z m 3.936821,-0.0539 c -0.128139,-0.19283 -0.05485,-0.61346 0.389889,-2.23764 0.231616,-0.84585 0.403547,-1.61238 0.382075,-1.7034 -0.04121,-0.17471 -0.06731,-0.17866 -0.522699,-0.079 -0.242581,0.0531 -0.287193,0.0317 -0.287193,-0.13819 0,-0.23155 0.445752,-0.43726 1.257918,-0.58051 0.580177,-0.10233 0.830772,-0.0499 0.830772,0.17369 0,0.0836 -0.21278,0.9772 -0.472848,1.98569 -0.260068,1.00849 -0.441855,1.88027 -0.40397,1.93729 0.04217,0.0635 0.248548,0.0807 0.532196,0.0446 0.433858,-0.0553 0.461205,-0.0454 0.430077,0.15547 -0.0257,0.16588 -0.163525,0.25245 -0.607625,0.38164 -0.679639,0.19772 -1.417934,0.22686 -1.528592,0.0603 z m 3.857202,-0.0433 c -0.03676,-0.0891 -0.0088,-0.40597 0.0622,-0.7042 0.232971,-0.979 0.742223,-3.21949 0.742223,-3.26544 0,-0.0248 -0.144432,-0.045 -0.32096,-0.045 -0.453359,0 -0.368787,-0.27149 0.164401,-0.52775 0.317416,-0.15255 0.500484,-0.34642 0.762819,-0.80779 0.298697,-0.52533 0.384842,-0.60707 0.639771,-0.60707 l 0.294599,0 -0.140039,0.60707 c -0.07702,0.33389 -0.141688,0.63984 -0.143704,0.67991 -0.0021,0.0401 0.231306,0.0729 0.518503,0.0729 0.545582,0 0.558363,0.0102 0.45635,0.36424 -0.05502,0.19093 -0.13124,0.21854 -0.603398,0.21854 l -0.540426,0 -0.351233,1.63916 c -0.193181,0.90154 -0.322939,1.70775 -0.288347,1.79159 0.05083,0.1232 0.128891,0.13482 0.407088,0.0606 0.478621,-0.12767 0.502226,-0.12117 0.502226,0.13822 0,0.1974 -0.08612,0.2525 -0.607348,0.38852 -0.809167,0.21116 -1.466777,0.20969 -1.554727,-0.004 z m 4.300757,-0.058 c -0.259949,-0.20796 -0.305037,-0.32205 -0.342285,-0.86612 -0.0837,-1.22251 0.518031,-2.60267 1.411284,-3.23701 0.986406,-0.70051 2.063769,-0.7935 2.669198,-0.23042 0.280854,0.26121 0.305645,0.3349 0.260308,0.77372 -0.0994,0.96209 -1.090771,1.66089 -2.447301,1.72508 -0.848366,0.0401 -0.937619,0.13492 -0.771208,0.81906 0.18115,0.74475 0.510298,0.82119 1.555618,0.36126 0.692409,-0.30465 0.851869,-0.30446 0.851869,0.001 0,0.31043 -1.253402,0.80914 -2.148981,0.85505 -0.666551,0.0342 -0.768511,0.0144 -1.038502,-0.20162 z m 2.245752,-2.59594 c 0.651243,-0.309 0.930724,-0.99636 0.560025,-1.37732 -0.46654,-0.47947 -1.330215,0.14848 -1.759063,1.27895 l -0.15758,0.4154 0.470684,-0.06 c 0.258875,-0.033 0.65755,-0.14867 0.885934,-0.25703 z m 24.961691,2.7801 c 0,-0.0147 0.1877,-0.76657 0.4171,-1.67092 0.22941,-0.90435 0.41739,-1.83561 0.41774,-2.06948 l 10e-4,-0.42522 -0.41774,0.0621 c -0.369,0.0549 -0.41774,0.0397 -0.41774,-0.12986 0,-0.23586 0.18379,-0.33139 1.0298,-0.53528 0.73509,-0.17716 0.95446,-0.10893 0.95446,0.29685 l 0,0.22801 0.37066,-0.23395 c 0.65003,-0.41027 1.05049,-0.48678 1.5191,-0.29025 0.22429,0.0941 0.40781,0.19718 0.40782,0.22913 1e-5,0.032 -0.10531,0.33127 -0.23405,0.66516 -0.19326,0.50126 -0.27517,0.60706 -0.46997,0.60706 -0.19836,0 -0.23591,-0.0522 -0.23591,-0.32806 0,-0.66392 -0.61372,-0.71345 -1.07195,-0.0865 -0.34845,0.47671 -0.52675,0.9941 -0.81237,2.35718 -0.12873,0.61434 -0.26263,1.14414 -0.29754,1.17732 -0.0627,0.0596 -1.16005,0.19832 -1.16005,0.14669 z m 12.04517,-0.11613 c -0.0857,-0.20768 0.0132,-0.80593 0.41658,-2.51914 l 0.343,-1.45695 -0.29295,-0.0305 c -0.35044,-0.0364 -0.40962,-0.35912 -0.0835,-0.45538 0.36711,-0.10837 0.79111,-0.50886 0.99598,-0.94077 0.22929,-0.48343 0.32046,-0.56105 0.66135,-0.5631 0.22436,-0.001 0.24154,0.0287 0.17998,0.31419 -0.0374,0.17362 -0.0963,0.47958 -0.13083,0.67991 l -0.0628,0.36424 0.4833,0 c 0.49365,0 0.56633,0.0743 0.41991,0.42914 -0.0456,0.11048 -0.20376,0.15364 -0.56307,0.15364 -0.58054,0 -0.48524,-0.1942 -0.94847,1.93281 -0.34029,1.56251 -0.31733,1.70648 0.24815,1.55565 0.4719,-0.12587 0.50989,-0.11545 0.47247,0.12964 -0.0253,0.16578 -0.15945,0.25771 -0.55555,0.38074 -0.69524,0.21594 -1.49969,0.22906 -1.58355,0.0258 z m 4.21367,-0.0995 c -0.79167,-0.73631 -0.24439,-2.93744 0.98621,-3.96647 0.49647,-0.41515 1.27165,-0.73577 1.7789,-0.73577 0.32109,0 1.02856,0.30602 1.13498,0.49095 0.16832,0.29252 0.11589,0.99126 -0.099,1.31899 -0.44239,0.67476 -1.38955,1.10397 -2.43618,1.10397 l -0.62603,0 0.0463,0.59583 c 0.0736,0.94623 0.44739,1.07545 1.59216,0.55042 0.3726,-0.17089 0.69799,-0.29108 0.7231,-0.26711 0.0251,0.024 0.0619,0.13101 0.0817,0.23785 0.0289,0.15592 -0.11625,0.26617 -0.73538,0.5585 -0.66438,0.3137 -0.86891,0.36424 -1.47396,0.36424 -0.61651,0 -0.73563,-0.0308 -0.97284,-0.2514 z m 2.18935,-2.53137 c 0.73049,-0.33765 1.05778,-1.12058 0.60243,-1.44104 -0.30245,-0.21285 -0.52177,-0.17699 -0.92336,0.15096 -0.33602,0.27439 -0.89555,1.18478 -0.89555,1.45711 0,0.16076 0.72172,0.0617 1.21648,-0.16703 z m 3.16978,2.69925 c 0,-0.0409 0.19071,-0.82859 0.42381,-1.75042 0.23311,-0.92183 0.40934,-1.81512 0.39163,-1.98508 -0.0302,-0.28963 -0.0561,-0.30775 -0.41279,-0.28883 -0.29842,0.0158 -0.39194,-0.0202 -0.43315,-0.16671 -0.0427,-0.15207 0.0477,-0.22131 0.48504,-0.37141 0.29567,-0.10147 0.71385,-0.21419 0.92929,-0.2505 0.40494,-0.0682 0.39809,-0.0735 0.65148,0.49677 0.005,0.0108 0.2839,-0.10935 0.62018,-0.26711 0.71961,-0.33759 0.84026,-0.34692 1.27779,-0.0988 l 0.3303,0.18731 -0.22586,0.63559 c -0.18845,0.53031 -0.26478,0.63597 -0.46084,0.63793 -0.19672,0.002 -0.23498,-0.0499 -0.23498,-0.31819 0,-0.84635 -0.86608,-0.67895 -1.34014,0.25903 -0.11911,0.23566 -0.35504,1.04815 -0.5243,1.80552 -0.16925,0.75737 -0.32421,1.38988 -0.34432,1.40555 -0.0919,0.0716 -1.13314,0.13534 -1.13314,0.0693 z m 5.22173,3.5e-4 c 0,-0.0437 0.16767,-0.68757 0.3726,-1.43081 0.2238,-0.81168 0.3802,-1.62288 0.39163,-2.03127 l 0.019,-0.67991 -0.37869,0.027 c -0.29766,0.0212 -0.38971,-0.0122 -0.43021,-0.15624 -0.0421,-0.14973 0.0462,-0.2109 0.48312,-0.33466 0.94946,-0.26894 1.17312,-0.28822 1.35721,-0.11701 0.0933,0.0867 0.16957,0.26386 0.16957,0.3936 0,0.12974 0.0193,0.23589 0.0428,0.23589 0.0235,0 0.33369,-0.12793 0.68918,-0.28429 0.84174,-0.37024 1.95741,-0.56445 2.29041,-0.39869 0.21731,0.10816 0.23284,0.16404 0.16935,0.60918 -0.0384,0.26955 -0.20743,1.01927 -0.37553,1.66605 -0.16809,0.64678 -0.31832,1.32894 -0.33383,1.51592 -0.0282,0.33991 -0.0282,0.33995 0.41115,0.33188 0.30028,-0.006 0.45839,0.0381 0.49949,0.13765 0.0828,0.20066 -0.0159,0.26604 -0.67061,0.44439 -0.74273,0.20232 -1.42651,0.20391 -1.50919,0.004 -0.0342,-0.0831 0.12519,-0.92972 0.35434,-1.88148 0.45947,-1.90831 0.48585,-2.12553 0.26762,-2.20342 -0.22527,-0.0804 -1.02431,0.28408 -1.5011,0.6847 -0.39247,0.32977 -0.44269,0.43226 -0.68368,1.39505 -0.14305,0.57153 -0.2933,1.25023 -0.33389,1.50824 -0.0406,0.258 -0.12665,0.48376 -0.19125,0.50168 -0.31674,0.0879 -1.10956,0.13294 -1.10956,0.0631 z m 7.16281,-0.0756 c -0.036,-0.0873 0.15038,-0.98713 0.41429,-1.99952 0.2639,-1.0124 0.4553,-1.90013 0.42534,-1.97274 -0.0417,-0.10114 -0.13499,-0.11055 -0.39867,-0.0402 -0.18931,0.0505 -0.35625,0.0918 -0.37099,0.0918 -0.0147,0 -0.0268,-0.10129 -0.0268,-0.22509 0,-0.1872 0.0923,-0.25105 0.54828,-0.3793 1.23738,-0.34804 1.61961,-0.289 1.49463,0.23086 -0.0301,0.12531 -0.24535,0.96795 -0.47828,1.87255 -0.23294,0.90459 -0.39737,1.70809 -0.3654,1.78556 0.0444,0.10758 0.17033,0.12655 0.53313,0.0803 0.44637,-0.0569 0.47302,-0.0476 0.4418,0.15398 -0.0643,0.41522 -2.06241,0.77728 -2.21733,0.4018 z m 3.94013,10e-4 c -0.0697,-0.16884 0.015,-0.63258 0.42311,-2.31928 0.45127,-1.86485 0.44478,-1.69978 0.0668,-1.69978 -0.45922,0 -0.38277,-0.26796 0.15056,-0.52774 0.30684,-0.14946 0.49609,-0.34959 0.74096,-0.78351 0.26742,-0.47388 0.38341,-0.58878 0.62074,-0.61484 0.31698,-0.0348 0.31928,-0.0101 0.0956,1.02764 l -0.068,0.31567 0.5464,0 c 0.45533,0 0.53583,0.0256 0.48301,0.15364 -0.0349,0.0845 -0.0634,0.21563 -0.0634,0.29139 0,0.10183 -0.14638,0.13775 -0.56133,0.13775 l -0.56131,0 -0.34486,1.63352 c -0.18966,0.89844 -0.31549,1.70465 -0.27962,1.79159 0.0534,0.1293 0.12787,0.14136 0.40941,0.0663 0.47863,-0.12767 0.50223,-0.12117 0.50223,0.13822 0,0.19741 -0.0861,0.2525 -0.60735,0.38852 -0.80099,0.20903 -1.46688,0.20943 -1.5529,10e-4 z m 4.29309,-0.0673 c -0.29906,-0.23944 -0.30523,-0.2638 -0.30523,-1.20489 0,-0.91545 0.0185,-0.99533 0.39454,-1.70274 0.46134,-0.86789 0.99076,-1.33746 1.84183,-1.63361 1.48243,-0.51586 2.54719,0.36048 1.89115,1.55648 -0.37094,0.67625 -1.36036,1.16439 -2.36693,1.16773 -0.6046,0.002 -0.64534,0.0168 -0.71029,0.25743 -0.0873,0.32354 0.0218,0.8114 0.23072,1.03168 0.23747,0.25038 0.64582,0.20849 1.37434,-0.14096 0.54328,-0.26058 0.66377,-0.28811 0.74412,-0.16997 0.18495,0.27192 0.0932,0.37649 -0.60586,0.69065 -0.53822,0.24188 -0.87972,0.32576 -1.44405,0.35469 -0.67013,0.0344 -0.7676,0.0151 -1.04434,-0.20649 z m 2.27468,-2.61472 c 0.70569,-0.36888 0.94121,-1.09439 0.45203,-1.3925 -0.19289,-0.11755 -0.33083,-0.13452 -0.54828,-0.0675 -0.36829,0.11359 -0.89425,0.74854 -1.11169,1.34206 l -0.16782,0.45808 0.47939,-0.0611 c 0.26368,-0.0336 0.66704,-0.15919 0.89637,-0.27906 z M 0.0032113,64.72147 c 0.01941279,-0.0938 0.12874786,-0.18641 0.24296693,-0.20589 0.31010213,-0.0529 0.58106608,-0.30869 0.79267337,-0.74829 0.2806837,-0.5831 1.1468008,-4.63825 1.1702179,-5.47895 0.019973,-0.71704 0.016935,-0.72592 -0.3152234,-0.92274 -0.6479999,-0.38396 -0.4748409,-0.44155 1.3275187,-0.44155 1.4278432,0 1.6709534,0.0215 1.6709534,0.14813 0,0.0872 -0.1301548,0.17233 -0.3164941,0.20699 -0.6660139,0.12389 -0.9188023,0.73536 -1.5475904,3.74349 -0.5876013,2.81109 -0.581849,2.75677 -0.3179144,3.00225 0.200553,0.18652 0.3096881,0.20249 1.123736,0.16439 1.0949477,-0.0512 1.4905189,-0.22263 1.8729655,-0.81151 0.3012813,-0.46391 0.3132736,-0.47171 0.5292988,-0.34443 0.1198983,0.0706 0.1154106,0.16063 -0.027776,0.55701 -0.09393,0.26001 -0.2772405,0.64759 -0.4073565,0.86127 l -0.2365757,0.38852 -2.7983471,0.0259 c -2.62035614,0.0242 -2.79610269,0.015 -2.7630513,-0.14458 z m 52.8245907,0.0296 c 0,-0.0757 0.176232,-0.21779 0.391628,-0.31568 0.272902,-0.12402 0.461057,-0.31048 0.620632,-0.61506 0.2992,-0.57106 1.203671,-4.70758 1.220251,-5.58072 0.01253,-0.65981 0.005,-0.68028 -0.322559,-0.87417 -0.70086,-0.41487 -0.542429,-0.44136 2.639989,-0.44136 2.919477,0 2.982024,0.004 2.918207,0.19111 -0.03587,0.10511 -0.123844,0.48756 -0.195501,0.84989 -0.110514,0.55879 -0.165088,0.66349 -0.359561,0.68982 -0.186518,0.0252 -0.229272,-0.0167 -0.229272,-0.22493 0,-0.6448 -0.411375,-0.82597 -1.875406,-0.82597 l -1.008762,0 -0.28964,1.23841 c -0.159304,0.68112 -0.312456,1.3149 -0.340345,1.40838 -0.04554,0.15268 0.04306,0.16984 0.870141,0.16855 1.039959,-0.002 1.346498,-0.10482 1.651679,-0.5561 0.271564,-0.40156 0.625806,-0.43385 0.543488,-0.0495 -0.03147,0.14691 -0.140445,0.67141 -0.242173,1.16556 -0.14589,0.70868 -0.222045,0.89846 -0.360525,0.89846 -0.110803,0 -0.198261,-0.10554 -0.23709,-0.28611 -0.0339,-0.15768 -0.168682,-0.33972 -0.300249,-0.40555 -0.250617,-0.12538 -1.892926,-0.18126 -2.014563,-0.0685 -0.07028,0.0651 -0.378635,1.46498 -0.513906,2.33297 -0.06502,0.41725 -0.0484,0.46957 0.196638,0.6189 0.215269,0.13118 0.446357,0.15476 1.18039,0.12043 1.089788,-0.051 1.477013,-0.2127 1.925211,-0.80409 0.19392,-0.25587 0.377407,-0.40334 0.463595,-0.37258 0.203156,0.0725 0.179136,0.24617 -0.128839,0.93151 -0.456724,1.01635 -0.196515,0.94409 -3.399912,0.94409 -2.350033,0 -2.803546,-0.0223 -2.803546,-0.13769 z m 53.052778,0.002 c 0,-0.0773 0.15274,-0.18906 0.33941,-0.24824 0.6593,-0.20903 0.8772,-0.76299 1.5368,-3.90697 0.56802,-2.70746 0.55411,-3.14049 -0.10719,-3.3357 -0.1177,-0.0347 -0.19576,-0.1141 -0.17348,-0.17634 0.0292,-0.0817 0.84679,-0.12036 2.93749,-0.139 2.84763,-0.0254 2.89584,-0.0226 2.83122,0.16682 -0.0362,0.10596 -0.12437,0.48911 -0.19603,0.85144 -0.11052,0.55879 -0.16509,0.66349 -0.35956,0.68982 -0.19353,0.0262 -0.22928,-0.0154 -0.22928,-0.26711 0,-0.61321 -0.50933,-0.81556 -1.92535,-0.76488 l -0.82879,0.0296 -0.29034,1.2627 c -0.15968,0.69448 -0.29192,1.31733 -0.29387,1.3841 -0.005,0.17929 1.5906,0.16334 1.97118,-0.0197 0.16137,-0.0776 0.35272,-0.2743 0.42522,-0.43708 0.0808,-0.18135 0.2078,-0.29598 0.32801,-0.29598 0.24309,0 0.24471,-0.0705 -0.0284,1.23842 -0.19148,0.91753 -0.25873,1.09271 -0.41943,1.09271 -0.11567,0 -0.19139,-0.0702 -0.19139,-0.17733 0,-0.45324 -0.97633,-0.79024 -1.87864,-0.64846 l -0.39912,0.0627 -0.21183,1.08574 c -0.37357,1.9146 -0.35782,2.08803 0.20952,2.30659 0.62445,0.24057 0.26397,0.33261 -1.40983,0.35997 -1.37187,0.0224 -1.63626,0.004 -1.63626,-0.11387 z M 44.618624,62.66365 c -0.467125,-0.1973 -0.876635,-0.80708 -0.876635,-1.30536 0,-0.7716 0.733321,-1.46162 1.550493,-1.45893 0.977307,0.003 1.581451,0.55845 1.582155,1.45407 0.0011,1.13805 -1.121,1.78962 -2.256013,1.31022 z m 53.155647,0.0459 c -0.179259,-0.0726 -0.459634,-0.29497 -0.623054,-0.49424 -0.242299,-0.29546 -0.295676,-0.45536 -0.289284,-0.86667 0.01387,-0.89237 0.610491,-1.44122 1.566664,-1.44122 0.473789,0 0.63158,0.0479 0.955054,0.28989 0.720899,0.5393 0.832949,1.44348 0.257685,2.07934 -0.483515,0.53443 -1.203703,0.70141 -1.867065,0.4329 z M 35.336898,59.25709 c -0.20542,-0.21111 -0.220208,-0.18899 0.966627,-1.44584 l 0.400407,-0.42403 0.594859,0.12381 c 0.327174,0.0681 0.594863,0.15316 0.594863,0.18902 0,0.0655 -2.236101,1.74936 -2.323123,1.74936 -0.02559,0 -0.130712,-0.0865 -0.233633,-0.19232 z m 53.131448,-9e-5 -0.231694,-0.1745 0.78835,-0.8364 c 0.433594,-0.46002 0.828228,-0.8364 0.876966,-0.8364 0.254714,0 1.149934,0.23874 1.125319,0.3001 -0.02591,0.0646 -1.97158,1.51982 -2.222288,1.66212 -0.05773,0.0328 -0.209219,-0.0189 -0.336653,-0.11492 z m 69.424484,7e-4 -0.252,-0.17679 0.81575,-0.83568 c 0.44867,-0.45963 0.85339,-0.83569 0.89938,-0.83569 0.20665,0 1.14341,0.23342 1.13894,0.28379 -0.005,0.0525 -1.97673,1.53243 -2.23299,1.67571 -0.0644,0.036 -0.23047,-0.0141 -0.36908,-0.11134 z M 8.8499551,58.75941 c -0.4244043,-0.39472 -0.010219,-1.15545 0.6290954,-1.15545 0.4446136,0 0.6767715,0.21697 0.6767715,0.63248 0,0.6482 -0.8186909,0.97607 -1.3058669,0.52297 z m 70.4781269,0.0692 c -0.256675,-0.18121 -0.241462,-0.78149 0.02612,-1.03035 0.430753,-0.40062 1.253215,-0.13913 1.253215,0.39845 0,0.5822 -0.794136,0.97445 -1.279323,0.6319 z m 69.359808,-0.0692 c -0.43182,-0.40162 -0.008,-1.15545 0.64906,-1.15545 0.65604,0 0.93712,0.68058 0.46313,1.12142 -0.32173,0.29922 -0.81095,0.31419 -1.11219,0.034 z m -91.495123,-2.7764 c -0.15954,-0.16539 -0.121482,-0.22476 0.633991,-0.989 l 0.803721,-0.81304 0.597218,0.1243 c 0.328472,0.0684 0.594855,0.15013 0.591962,0.1817 -0.0085,0.0924 -2.105678,1.58651 -2.289665,1.63125 -0.09213,0.0224 -0.24388,-0.0384 -0.337227,-0.13521 z" />
    <path
       inkscape:connector-curvature="0"
       style="fill:#e2011c;fill-opacity:1;stroke:none"
       id="path10"
       d="m 91.912877,50.50772 0.243658,-0.586 c 0.412878,-1.05863 0.84109,-1.86657 1.459082,-2.75295 0.654657,-0.93896 2.09566,-2.32207 2.695091,-2.5868 0.736722,-0.32536 1.65258,-0.43992 2.785151,-0.34836 0.972561,0.0786 3.960751,0.53307 5.166561,0.78573 0.91772,0.19231 2.26148,0.2107 2.89379,0.0396 1.21832,-0.32963 1.9401,-0.96681 2.28264,-2.01512 0.26276,-0.80419 0.26026,-1.53508 -0.007,-2.0225 -0.35888,-0.6547 -0.29778,-0.82498 0.57439,-1.60065 0.43079,-0.38312 0.78383,-0.73736 0.78454,-0.7872 0.004,-0.25932 -0.5932,-1.30059 -0.74686,-1.30294 -0.0942,-0.001 -0.28017,-0.0847 -0.41336,-0.18511 l -0.24218,-0.18251 0.5178,-0.24619 c 0.70702,-0.33616 1.23143,-0.85892 1.23143,-1.22756 0,-0.15925 -0.14897,-0.54966 -0.33103,-0.86758 -0.3494,-0.61009 -0.44286,-1.19302 -0.24615,-1.53511 0.12998,-0.22602 0.35412,-0.32107 1.45512,-0.61706 0.92518,-0.24872 1.25968,-0.50085 1.39157,-1.04893 0.11284,-0.46887 0.0574,-0.77023 -0.24534,-1.33356 -0.24648,-0.45867 -1.85168,-2.74586 -2.31925,-3.30463 -0.62833,-0.75087 -1.39377,-2.04812 -1.62015,-2.74584 -0.22315,-0.68774 -0.22465,-0.72672 -0.0618,-1.61575 0.3442,-1.87935 0.14294,-3.43749 -0.83648,-6.47562 -0.72789,-2.25792 -0.92336,-2.80606 -1.15129,-3.22849 -0.41209,-0.76373 -0.35703,-0.94252 0.48842,-1.58626 0.40467,-0.30813 0.78064,-0.63825 0.83547,-0.7336 0.2553,-0.44395 -0.03,-1.29937 -0.51376,-1.54031 -0.30702,-0.15293 -0.47792,-0.0479 -0.78963,0.48507 -0.23618,0.40385 -0.32876,0.48033 -0.58152,0.48033 -0.41143,0 -0.48358,-0.16052 -0.22082,-0.49128 0.30635,-0.38564 0.28209,-0.44747 -0.19915,-0.50755 -0.36021,-0.045 -0.55062,-0.17588 -1.33153,-0.91553 -1.04698,-0.99164 -1.75031,-1.44862 -3.15238,-2.04819 -0.64274,-0.27485 -0.86659,-0.40495 -0.63079,-0.36658 0.20104,0.0327 0.91184,0.085 1.57957,0.11616 1.93756,0.0905 2.40853,-0.14761 2.86007,-1.44579 0.30658,-0.8814 0.45362,-1.28904 -0.24987,-1.90442 L 102.6849,0 l 57.93552,0 0,50.50772 -68.707543,0 z" />
    <path
       inkscape:connector-curvature="0"
       style="fill:#003189;fill-opacity:1;stroke:none"
       id="path12"
       d="m 42.508296,50.50772 c -0.420468,-0.041 -0.785048,-0.0589 -0.810174,-0.0823 -0.04422,-0.0411 0.430679,-0.32509 2.605564,-1.55785 0.697597,-0.39541 0.984597,-0.60736 0.887691,-0.65555 -0.07877,-0.0392 -0.687688,-0.10127 -1.353162,-0.13799 -0.988666,-0.0546 -1.275166,-0.0389 -1.566516,0.0856 -0.196106,0.0838 -0.978736,0.30423 -1.739172,0.48984 -1.886048,0.46033 -2.520728,0.77637 -3.126323,1.55674 L 37.179924,50.50768 0,50.50772 0,0 73.766222,0 72.336947,0.86773 C 71.550086,1.23107 70.635661,1.73569 70.30489,1.98912 69.182865,2.8488 67.671965,4.80448 67.294691,5.88546 67.156025,6.28277 67.030135,6.4317 66.604662,6.70177 65.955409,7.11389 65.17769,7.89981 64.53372,8.79455 c -0.874421,1.21493 -2.541109,3.95297 -2.868592,4.71252 -0.508024,1.17831 -0.461874,2.07555 0.287879,5.59687 0.330081,1.55026 0.687241,3.12481 0.793693,3.49901 0.106449,0.3742 0.222961,1.0084 0.25891,1.40932 0.06419,0.71585 0.114217,0.87082 0.564809,1.74951 0.123358,0.24055 0.224157,0.51355 0.223999,0.60664 -2.11e-4,0.0931 0.0937,0.2239 0.208577,0.29067 0.119142,0.0692 0.208867,0.22666 0.208867,0.36643 0,0.16838 0.237853,0.48794 0.760295,1.02146 1.195219,1.22059 2.059432,2.36481 2.059432,2.72669 0,0.29721 -0.468758,0.37402 -1.224006,0.20056 -0.882724,-0.20273 -1.60481,-0.64062 -2.71839,-1.64849 -0.47387,-0.42889 -0.86158,-0.71724 -0.86158,-0.64078 0,0.0765 0.324899,0.47523 0.722001,0.88613 0.789761,0.81723 0.91363,1.0402 0.74285,1.33719 -0.149402,0.25981 -0.512913,0.33547 -1.004667,0.2091 -0.567481,-0.14582 -0.900004,0.0574 -0.806411,0.49297 0.05742,0.26718 0.04166,0.29862 -0.120617,0.24066 -0.320802,-0.11457 -1.022809,-0.2458 -1.654076,-0.30922 -0.579884,-0.0582 -0.6228,-0.0819 -0.973836,-0.53664 -0.266017,-0.34461 -0.472996,-0.50334 -0.751027,-0.57595 -1.03627,-0.27065 -3.613804,-0.68784 -5.344437,-0.86503 -3.042001,-0.31145 -3.774717,-0.3359 -5.232099,-0.1746 -1.119177,0.12386 -1.423509,0.19655 -2.036468,0.48641 -1.085089,0.51314 -2.965994,2.12102 -2.965994,2.53547 0,0.19444 0.414272,0.12584 0.887691,-0.14698 1.436681,-0.82793 6.357884,-1.99643 8.77248,-2.08295 1.196522,-0.0429 1.131659,0.0104 -0.303962,0.24978 -0.396937,0.0662 -1.336847,0.29014 -2.088687,0.49769 -0.751841,0.20755 -2.048418,0.52737 -2.881282,0.7107 -0.832864,0.18334 -1.772771,0.41969 -2.088687,0.52523 l -0.574387,0.1919 0.887692,0.009 c 4.523104,0.046 9.679116,1.38149 11.77744,3.05062 0.902859,0.71818 1.233489,0.80534 2.561557,0.67526 1.820055,-0.17826 4.175839,-0.98641 5.208952,-1.78692 0.448325,-0.34739 0.817126,-0.4855 0.816475,-0.30577 -0.0011,0.31747 -0.595042,2.02414 -0.85171,2.44756 -0.286141,0.47203 -0.302393,0.53998 -0.153398,0.64138 0.09166,0.0624 0.140342,0.13789 0.108187,0.16782 -0.03217,0.0299 0.03907,0.0832 0.158273,0.11843 0.342743,0.10124 0.256492,0.19908 -0.290516,0.32956 -0.533266,0.1272 -0.954824,0.34991 -0.954824,0.50443 0,0.0504 0.07327,0.0917 0.162817,0.0917 0.268224,0 0.06806,0.17444 -0.282353,0.24607 -0.239927,0.049 -0.287869,0.0891 -0.181562,0.15178 0.10421,0.0614 0.108085,0.0856 0.0139,0.0866 -0.0718,7.1e-4 -0.130542,0.10016 -0.130542,0.22075 0,0.15015 -0.09876,0.25995 -0.313305,0.34833 -0.522889,0.21541 -0.376309,0.33174 0.339412,0.26937 0.358995,-0.0313 0.582222,-0.031 0.496063,7.1e-4 -0.08616,0.0316 -0.673601,0.27898 -1.305427,0.54959 -0.631829,0.27062 -1.454249,0.59186 -1.827601,0.71388 -0.422636,0.13812 -0.692578,0.28358 -0.715271,0.38544 -0.03645,0.16362 0.159776,0.15819 0.65335,-0.0181 0.0915,-0.0327 0.165208,-0.0219 0.163811,0.0239 -0.0014,0.0458 -1.089109,0.63001 -2.417135,1.29822 -1.328022,0.66822 -2.570691,1.35708 -2.761482,1.53082 -0.190791,0.17373 -0.43491,0.31588 -0.542481,0.31588 -0.108244,0 -0.249709,0.11056 -0.316783,0.24756 -0.20285,0.41434 -0.160885,0.46474 0.322647,0.38749 0.718379,-0.11478 1.047629,-0.10847 1.095322,0.021 0.0258,0.0701 -0.04196,0.12149 -0.160033,0.12149 -0.11263,0 -0.260973,0.063 -0.329648,0.14003 -0.06868,0.077 -0.250026,0.15355 -0.403005,0.17009 -0.177985,0.0192 -0.353859,0.14146 -0.488421,0.33941 -0.115653,0.17015 -0.304269,0.33183 -0.419148,0.35929 -0.114878,0.0275 0.04961,0.032 0.365521,0.0102 4.697443,-0.32513 5.572613,-0.48691 7.467053,-1.38036 1.616179,-0.76221 3.29391,-1.8953 4.487405,-3.03065 0.342837,-0.32613 0.660056,-0.59297 0.704932,-0.59297 0.162283,0 0.07424,0.54519 -0.165373,1.02409 -0.414702,0.82882 -1.284821,1.59231 -3.073322,2.69668 -0.902187,0.55709 -1.875315,1.08175 -2.162512,1.16592 -0.897311,0.26297 -2.3459,0.5431 -3.864523,0.74732 -4.947399,0.66532 -6.840687,1.16996 -8.716104,2.3232 -0.313875,0.19301 -0.643358,0.33947 -0.732188,0.32546 -0.08883,-0.014 -0.32547,0.10495 -0.525874,0.26434 -0.563654,0.44831 -0.155292,0.37247 1.013742,-0.18826 1.197979,-0.57462 1.75962,-0.66517 0.815003,-0.1314 -1.158263,0.6545 -2.041195,1.06464 -2.905608,1.06464 l -4.647111,0 z m -6.145585,-5.63414 c 0.187767,-0.073 0.808948,-0.39669 1.380399,-0.71928 0.571451,-0.32258 1.25048,-0.67575 1.508954,-0.78483 0.258477,-0.10907 0.986906,-0.41529 1.618731,-0.6805 1.324295,-0.55587 3.267743,-1.08036 3.37951,-0.91206 0.03926,0.0591 0.328831,0.12424 0.643491,0.1447 0.440416,0.0286 0.518021,0.055 0.337132,0.11438 -0.129237,0.0424 -0.234978,0.11581 -0.234978,0.16304 0,0.17583 0.977367,0.12308 1.388862,-0.075 0.161325,-0.0776 0.525768,-0.16679 0.809874,-0.1981 0.353239,-0.0389 0.516557,-0.10146 0.516557,-0.19774 0,-0.1099 0.0897,-0.12669 0.408686,-0.0765 0.438926,0.069 1.382994,-0.0971 3.925338,-0.6906 1.721759,-0.40195 3.025785,-0.80647 4.171101,-1.29393 l 0.829207,-0.35291 -0.829207,-0.49423 c -2.021046,-1.2046 -4.050481,-1.94431 -8.505125,-3.10004 -0.775424,-0.20118 -1.456858,-0.40924 -1.514297,-0.46235 -0.06927,-0.0641 -0.03411,-0.0731 0.104435,-0.0269 0.444773,0.14844 0.783256,0.17689 0.783256,0.0658 0,-0.14405 -0.336332,-0.26017 -0.997117,-0.34426 -0.604363,-0.0769 -0.994478,-0.24472 -0.574619,-0.24716 0.64982,-0.004 -0.467284,-0.38701 -1.717943,-0.58935 -0.925897,-0.14981 -0.979232,-0.18187 -0.592501,-0.35618 0.337023,-0.15191 0.699516,-0.72676 0.604145,-0.95806 -0.08096,-0.19635 -0.181935,-0.1761 -0.682729,0.13693 -0.965525,0.6035 -1.851136,1.59177 -2.348825,2.62112 -0.283902,0.58718 -0.185603,0.64105 1.275655,0.69916 1.196564,0.0476 1.21554,0.0519 0.908779,0.20517 -0.172314,0.0861 -0.517968,0.18578 -0.768109,0.22147 -0.849584,0.12122 -1.321489,0.49639 -0.900318,0.71575 0.125076,0.0651 0.07544,0.12006 -0.231679,0.25637 -0.34426,0.15278 -0.368467,0.18512 -0.203062,0.27128 0.103291,0.0538 0.403624,0.0818 0.66741,0.0623 0.366604,-0.0271 0.534012,0.01 0.710494,0.1559 l 0.230887,0.1914 -0.463305,0.27344 c -0.254817,0.1504 -0.543041,0.41368 -0.6405,0.58508 -0.09746,0.17139 -0.447423,0.57916 -0.777698,0.90616 -0.330274,0.327 -0.600498,0.66522 -0.600498,0.7516 0,0.0864 -0.481701,0.51568 -1.070449,0.95398 -1.583317,1.17874 -2.271446,1.82661 -2.271446,2.13856 0,0.16506 -0.08947,0.3137 -0.246435,0.40942 -0.494285,0.30142 -0.752248,0.64964 -0.481251,0.64964 0.05928,0 0.261417,-0.0597 0.449188,-0.13276 z m 12.216652,-1.1357 c 0.391308,-0.0487 0.844434,-0.16157 1.006941,-0.25091 l 0.295473,-0.16244 -0.503945,-0.23372 -0.503944,-0.23371 -0.502997,0.18963 c -0.276648,0.10429 -0.659736,0.24482 -0.851302,0.31228 -0.770492,0.27132 -0.871034,0.63604 -0.147759,0.53598 0.272836,-0.0378 0.816225,-0.10844 1.207533,-0.15711 z M 30.897319,39.3181 c 2.327298,-2.26468 3.969613,-3.60818 6.054238,-4.95268 0.708421,-0.45691 1.207459,-0.72106 1.23212,-0.65221 0.06767,0.18894 0.371128,0.13331 0.865181,-0.15858 0.567719,-0.33542 0.851738,-0.67489 1.560401,-1.86505 0.735195,-1.23472 1.012986,-1.54326 2.074262,-2.30387 0.496412,-0.35577 1.227407,-0.88694 1.624435,-1.18037 0.572123,-0.42284 0.709551,-0.48968 0.662492,-0.3222 -0.03645,0.12972 -0.0113,0.21131 0.06518,0.21131 0.237273,0 1.355179,-0.44406 1.394536,-0.55395 0.06152,-0.17177 -1.074279,-0.34915 -1.914422,-0.29897 -0.644991,0.0385 -0.873435,0.10816 -1.673767,0.51026 -1.880701,0.94488 -3.239263,1.96407 -5.83345,4.37624 -1.866891,1.73591 -3.337565,2.89984 -4.080897,3.22974 -0.242081,0.10744 -0.424396,0.33265 -0.718063,0.887 -0.570761,1.07743 -1.589786,2.62367 -2.557111,3.88009 -0.914207,1.18742 -1.110429,1.59818 -0.39997,0.83728 0.244115,-0.26145 0.984294,-1.00127 1.644839,-1.64404 z M 54.18617,49.95137 c 2.79507,-0.54065 3.103612,-0.58091 5.065065,-0.66084 2.202488,-0.0897 2.483177,-0.14301 3.808143,-0.72255 0.424512,-0.18569 0.590998,-0.21945 0.649993,-0.13183 0.102689,0.15252 0.821304,-0.21172 2.225657,-1.12812 0.57439,-0.37481 1.386641,-0.8538 1.805003,-1.06441 0.630429,-0.31738 0.823297,-0.372 1.126548,-0.31906 0.323784,0.0565 0.419661,0.0198 0.833138,-0.31889 1.146042,-0.93886 2.124588,-1.37286 3.10187,-1.37574 0.29059,-7e-4 0.391624,0.0391 0.391624,0.15504 0,0.0989 0.05746,0.13567 0.156655,0.10024 0.291156,-0.10398 0.159262,0.015 -0.589484,0.53154 -0.866909,0.59811 -0.781694,0.77771 0.09963,0.20999 0.853231,-0.54963 0.855371,-0.55045 0.855371,-0.32817 0,0.12665 -0.321168,0.44465 -0.913799,0.90478 -1.348354,1.04689 -2.303104,1.9127 -3.756621,3.40666 l -1.300253,1.29771 -16.534921,0 2.976378,-0.55635 z m 0.02612,-19.78563 c 0.100521,-0.0244 0.265003,-0.0244 0.365521,0 0.100517,0.0245 0.01827,0.0445 -0.182759,0.0445 -0.201038,0 -0.283279,-0.02 -0.182762,-0.0445 z" />
    <path
       inkscape:connector-curvature="0"
       style="fill:#7f7f7f;stroke:none"
       id="path14"
       d="m 102.92911,26.46956 c -0.4561,-0.0642 -0.22073,-0.22181 0.33116,-0.22181 0.55366,0 0.8455,-0.1978 0.8455,-0.57307 0,-0.17644 -0.0413,-0.2054 -0.21815,-0.15315 -0.15261,0.0451 -0.26127,0.007 -0.36166,-0.12624 -0.0938,-0.12458 -0.32047,-0.21253 -0.65395,-0.2537 -0.59569,-0.0735 -1.5604,-0.60882 -1.38742,-0.76981 0.0591,-0.055 0.36576,-0.1199 0.68153,-0.14427 0.5442,-0.042 0.5802,-0.0614 0.69062,-0.3728 0.0826,-0.23306 0.19756,-0.34624 0.39556,-0.38957 0.15349,-0.0336 0.39657,-0.16182 0.54017,-0.28494 0.14359,-0.12313 0.61355,-0.43784 1.04434,-0.69937 0.72424,-0.43967 1.17294,-0.90835 1.01252,-1.05763 -0.16899,-0.15728 -1.73713,-0.32845 -2.4746,-0.27011 -0.85674,0.0678 -2.3329,0.3574 -2.95027,0.57885 -0.633707,0.22731 -0.44846,0.0294 0.42222,-0.45116 1.17537,-0.64868 3.43795,-1.25349 4.68927,-1.25349 0.48545,0 2.10986,0.35705 2.30335,0.50629 0.37901,0.29232 -0.0344,1.31847 -0.73741,1.83043 l -0.29357,0.21378 0.24136,0.23953 0.24134,0.23952 -0.24655,0.18613 c -0.13559,0.10238 -0.32134,0.18614 -0.41276,0.18614 -0.0914,0 -0.31778,0.13671 -0.50302,0.30381 -0.28511,0.25717 -0.32193,0.34021 -0.23994,0.54093 0.0635,0.15543 0.0573,0.30596 -0.018,0.43694 -0.0703,0.12232 -0.088,0.40045 -0.0454,0.71718 0.0868,0.64659 -0.0385,0.87824 -0.54585,1.00938 -0.37624,0.0972 -1.75381,0.11612 -2.35032,0.0322 z" />
  </g>
  <g
     transform="scale(1.0369194,0.96439512)"
     style="font-style:normal;font-weight:normal;font-size:14.94835186px;line-height:125%;font-family:sans-serif;letter-spacing:0px;word-spacing:0px;fill:#373c42;fill-opacity:1;stroke:none;stroke-width:1px;stroke-linecap:butt;stroke-linejoin:miter;stroke-opacity:1"
     id="text3345">
    <path
       d="m 228.82995,64.129326 6.2129,0 0,-34.38121 -6.2129,0 0,12.285677 c -2.24226,-2.242253 -4.8115,-3.363379 -7.80118,-3.363379 -6.44647,0 -11.6784,5.32535 -11.6784,13.079808 0,7.614317 5.51221,13.033094 11.81855,13.033094 3.12981,0 5.46549,-1.121126 7.66103,-3.269952 l 0,2.615962 z m -6.53991,-19.759853 c 3.92394,0 6.82019,2.942957 6.82019,7.287322 0,4.531219 -2.98967,7.427462 -6.82019,7.427462 -3.87723,0 -6.68004,-3.129811 -6.68004,-7.380749 0,-4.064083 2.56925,-7.334035 6.68004,-7.334035 z"
       style="font-style:normal;font-variant:normal;font-weight:bold;font-stretch:normal;font-size:46.71360016px;font-family:'Century Gothic Std';-inkscape-font-specification:'Century Gothic Std Bold';fill:#373c42;fill-opacity:1"
       id="path3359" />
    <path
       d="m 259.66822,64.129326 6.21291,0 0,-24.804922 -6.21291,0 0,2.709389 c -2.24225,-2.242253 -4.8115,-3.363379 -7.80117,-3.363379 -6.44648,0 -11.6784,5.32535 -11.6784,13.079808 0,7.614317 5.51221,13.033094 11.81854,13.033094 3.12981,0 5.46549,-1.121126 7.66103,-3.269952 l 0,2.615962 z m -6.5399,-19.759853 c 3.92394,0 6.82018,2.942957 6.82018,7.287322 0,4.531219 -2.98967,7.427462 -6.82018,7.427462 -3.87723,0 -6.68005,-3.129811 -6.68005,-7.380749 0,-4.064083 2.56925,-7.334035 6.68005,-7.334035 z"
       style="font-style:normal;font-variant:normal;font-weight:bold;font-stretch:normal;font-size:46.71360016px;font-family:'Century Gothic Std';-inkscape-font-specification:'Century Gothic Std Bold';fill:#373c42;fill-opacity:1"
       id="path3361" />
    <path
       d="m 272.89547,39.324404 -3.17652,0 0,5.325351 3.17652,0 0,19.479571 6.21291,0 0,-19.479571 3.69037,0 0,-5.325351 -3.69037,0 0,-9.155865 -6.21291,0 0,9.155865 z"
       style="font-style:normal;font-variant:normal;font-weight:bold;font-stretch:normal;font-size:46.71360016px;font-family:'Century Gothic Std';-inkscape-font-specification:'Century Gothic Std Bold';fill:#373c42;fill-opacity:1"
       id="path3363" />
    <path
       d="m 304.55707,64.129326 6.21291,0 0,-24.804922 -6.21291,0 0,2.709389 c -2.24225,-2.242253 -4.8115,-3.363379 -7.80117,-3.363379 -6.44647,0 -11.6784,5.32535 -11.6784,13.079808 0,7.614317 5.51221,13.033094 11.81854,13.033094 3.12981,0 5.46549,-1.121126 7.66103,-3.269952 l 0,2.615962 z m -6.5399,-19.759853 c 3.92394,0 6.82018,2.942957 6.82018,7.287322 0,4.531219 -2.98967,7.427462 -6.82018,7.427462 -3.87723,0 -6.68005,-3.129811 -6.68005,-7.380749 0,-4.064083 2.56925,-7.334035 6.68005,-7.334035 z"
       style="font-style:normal;font-variant:normal;font-weight:bold;font-stretch:normal;font-size:46.71360016px;font-family:'Century Gothic Std';-inkscape-font-specification:'Century Gothic Std Bold';fill:#373c42;fill-opacity:1"
       id="path3365" />
    <path
       d="m 320.44699,57.636135 c -1.96197,0 -3.59694,1.541549 -3.59694,3.550234 0,1.961971 1.63497,3.596947 3.59694,3.596947 2.00869,0 3.55024,-1.634976 3.55024,-3.596947 0,-1.961971 -1.58827,-3.550234 -3.55024,-3.550234 z"
       style="font-style:normal;font-variant:normal;font-weight:bold;font-stretch:normal;font-size:46.71360016px;font-family:'Century Gothic Std';-inkscape-font-specification:'Century Gothic Std Bold';fill:#373c42;fill-opacity:1"
       id="path3367" />
    <path
       d="m 354.65522,39.324404 -6.21291,0 0,2.709389 c -2.33568,-2.195539 -4.76479,-3.363379 -7.84788,-3.363379 -6.30634,0 -11.58498,5.045069 -11.58498,12.706099 0,7.427462 5.23193,12.752813 11.91197,12.752813 3.22324,0 5.46549,-1.074413 7.52089,-3.083098 0,2.33568 -0.0467,4.01737 -1.54155,5.418778 -1.12112,1.027699 -2.98967,1.634976 -5.27863,1.634976 -2.61597,0 -4.48451,-0.653991 -5.74578,-2.148826 l -6.8669,0 c 1.68169,5.18521 6.02606,7.847885 12.84624,7.847885 3.78381,0 6.77348,-0.887558 9.01573,-2.756102 2.84953,-2.429108 3.7838,-5.652346 3.7838,-10.463847 l 0,-21.254688 z m -12.65938,5.045069 c 4.11079,0 6.77347,3.083098 6.77347,7.100467 0,4.204224 -2.84953,6.960327 -6.68005,6.960327 -3.87723,0 -6.82018,-2.896244 -6.82018,-7.00704 0,-3.830516 2.61596,-7.053754 6.72676,-7.053754 z"
       style="font-style:normal;font-variant:normal;font-weight:bold;font-stretch:normal;font-size:46.71360016px;font-family:'Century Gothic Std';-inkscape-font-specification:'Century Gothic Std Bold';fill:#373c42;fill-opacity:1"
       id="path3369" />
    <path
       d="m 372.60054,38.670414 c -6.77347,0 -12.84624,5.558918 -12.84624,13.079808 0,7.287321 5.69906,13.033094 12.89295,13.033094 7.56761,0 13.12652,-5.885913 13.12652,-13.079808 0,-7.334035 -5.93262,-13.033094 -13.17323,-13.033094 z m 0.0934,5.885913 c 4.06408,0 6.82018,2.989671 6.82018,7.193895 0,4.344365 -2.98967,7.147181 -6.82018,7.147181 -4.01737,0 -6.68005,-2.989671 -6.68005,-7.193895 0,-4.110797 2.80282,-7.147181 6.68005,-7.147181 z"
       style="font-style:normal;font-variant:normal;font-weight:bold;font-stretch:normal;font-size:46.71360016px;font-family:'Century Gothic Std';-inkscape-font-specification:'Century Gothic Std Bold';fill:#373c42;fill-opacity:1"
       id="path3371" />
    <path
       d="m 390.80352,50.675809 c 0,2.055398 -0.0934,3.223238 0.23357,5.231923 0.98099,5.792487 4.67136,8.828871 10.6507,8.828871 3.45681,0 6.02606,-0.934272 7.98803,-3.129812 2.61596,-2.896243 2.89624,-6.259622 2.89624,-10.837555 l 0,-11.444832 -6.21291,0 0,13.219949 c 0,4.204224 -1.35469,6.49319 -4.67136,6.49319 -3.26995,0 -4.67136,-2.33568 -4.67136,-6.773472 l 0,-12.939667 -6.21291,0 0,11.351405 z"
       style="font-style:normal;font-variant:normal;font-weight:bold;font-stretch:normal;font-size:46.71360016px;font-family:'Century Gothic Std';-inkscape-font-specification:'Century Gothic Std Bold';fill:#373c42;fill-opacity:1"
       id="path3373" />
    <path
       d="m 426.79927,64.129326 4.01737,0 10.55728,-24.804922 -6.30634,0 -6.25962,14.621357 -6.25962,-14.621357 -6.35305,0 10.60398,24.804922 z"
       style="font-style:normal;font-variant:normal;font-weight:bold;font-stretch:normal;font-size:46.71360016px;font-family:'Century Gothic Std';-inkscape-font-specification:'Century Gothic Std Bold';fill:#373c42;fill-opacity:1"
       id="path3375" />
    <path
       d="m 446.5825,59.212944 q 1.18103,0 1.97754,0.823975 0.82398,0.796508 0.82398,1.950073 0,1.153564 -0.82398,1.977539 -0.82397,0.796509 -1.97754,0.796509 -1.15356,0 -1.97753,-0.796509 -0.79651,-0.823975 -0.79651,-1.977539 0,-1.153565 0.79651,-1.950073 0.82397,-0.823975 1.97753,-0.823975 z"
       style="font-style:italic;font-variant:normal;font-weight:normal;font-stretch:normal;font-size:56.25px;font-family:'Times New Roman';-inkscape-font-specification:'Times New Roman, Italic'"
       id="path3377" />
    <path
       d="m 472.64757,39.931938 -0.49439,1.812744 -4.01001,0 -3.02124,12.002564 q -2.005,7.937622 -4.03747,12.277221 -2.88391,6.124878 -6.20728,8.459473 -2.52685,1.785278 -5.05371,1.785278 -1.64795,0 -2.80151,-0.988769 -0.85144,-0.686646 -0.85144,-1.785278 0,-0.878907 0.71411,-1.538086 0.68664,-0.631714 1.70288,-0.631714 0.74158,0 1.26343,0.466919 0.49438,0.466919 0.49438,1.071167 0,0.604248 -0.57678,1.126098 -0.43945,0.384522 -0.43945,0.576783 0,0.247192 0.19226,0.384521 0.24719,0.192261 0.76904,0.192261 1.18103,0 2.49939,-0.741577 1.29089,-0.741577 2.30713,-2.224732 1.01623,-1.455688 1.92261,-4.229736 0.38452,-1.153565 2.05993,-7.608032 l 4.77906,-18.594361 -4.77906,0 0.38452,-1.812744 q 2.27967,0 3.18604,-0.302124 0.90637,-0.32959 1.64795,-1.208496 0.76904,-0.906372 1.97754,-3.35083 1.62048,-3.295898 3.10364,-5.108643 2.03247,-2.444458 4.2572,-3.652954 2.25219,-1.235962 4.22973,-1.235962 2.08741,0 3.35083,1.071167 1.26343,1.043702 1.26343,2.279663 0,0.961304 -0.63171,1.620484 -0.63172,0.65918 -1.62049,0.65918 -0.85144,0 -1.40075,-0.494385 -0.52185,-0.494385 -0.52185,-1.18103 0,-0.439454 0.35705,-1.071167 0.35706,-0.65918 0.35706,-0.878907 0,-0.384521 -0.24719,-0.576782 -0.35706,-0.274658 -1.04371,-0.274658 -1.73034,0 -3.10363,1.098633 -1.84021,1.455688 -3.2959,4.559326 -0.74158,1.620483 -2.71912,8.047485 l 4.03748,0 z"
       style="font-style:italic;font-variant:normal;font-weight:normal;font-stretch:normal;font-size:56.25px;font-family:'Times New Roman';-inkscape-font-specification:'Times New Roman, Italic'"
       id="path3379" />
    <path
       d="m 474.51524,40.810844 9.47571,-1.538086 -3.95508,13.348389 q 4.80652,-8.21228 8.73413,-11.480713 2.22474,-1.867676 3.62549,-1.867676 0.90637,0 1.42823,0.549317 0.52185,0.52185 0.52185,1.538086 0,1.812744 -0.93384,3.460693 -0.65918,1.235962 -1.89514,1.235962 -0.63172,0 -1.09864,-0.411987 -0.43945,-0.411988 -0.54931,-1.263428 -0.0549,-0.521851 -0.2472,-0.686645 -0.21972,-0.219727 -0.52185,-0.219727 -0.46691,0 -0.8789,0.219727 -0.71411,0.384521 -2.1698,2.142334 -2.27967,2.69165 -4.94385,6.976318 -1.15356,1.812744 -1.97754,4.092407 -1.15356,3.131104 -1.31836,3.762818 l -0.8789,3.460693 -4.20227,0 5.08117,-17.056275 q 0.87891,-2.966308 0.87891,-4.229736 0,-0.494385 -0.41199,-0.823974 -0.54932,-0.439454 -1.45569,-0.439454 -0.57678,0 -2.11487,0.247193 l -0.19226,-1.016236 z"
       style="font-style:italic;font-variant:normal;font-weight:normal;font-stretch:normal;font-size:56.25px;font-family:'Times New Roman';-inkscape-font-specification:'Times New Roman, Italic'"
       id="path3381" />
  </g>
</svg>
