<svg xmlns="http://www.w3.org/2000/svg" width="512.596" height="99.5"><path fill="#fff" d="M0 0h181.61v57.108H0z"/><path d="M145.025 99.436c-.1-.038-.106-.14-.022-.364.106-.284.156-.307.566-.256.37.047.48.014.63-.193.3-.396.07-.682-.48-.588-.42.073-.42.068-.34-.228.25-.943.27-.89-.48-1.03-.91-.167-1.77-.637-2.43-1.323-1-1.03-1.34-2.072-1.24-3.747.05-.853.12-1.186.41-1.78.88-1.815 2.9-2.74 5.62-2.575.59.036 1.33.13 1.66.207l.59.14.03 1.01.03 1.01h-.36c-.21 0-.36-.06-.36-.14 0-.29-.73-.95-1.24-1.13-.66-.24-1.94-.18-2.59.11-1.47.66-2.14 2.37-1.69 4.33.21.9.55 1.51 1.2 2.14.62.59 1.25.83 2.19.83.99 0 1.68-.37 2.12-1.14.3-.52.4-.59.69-.42.13.08.13.26.01 1.09l-.15 1-.54.17c-.3.09-.98.2-1.51.24-.93.06-.98.08-.98.32 0 .19.07.26.27.26.39 0 .76.28.85.65.1.43-.23 1.06-.66 1.27-.31.15-1.53.21-1.84.09zm-70.254-.462c-1.02-.28-1.9-.703-2.96-1.42l-.91-.622-1.41-.068c-1.57-.075-2.12-.238-3.13-.932-2.24-1.528-2.32-5.418-.15-7.31 1.64-1.427 4.51-1.72 6.57-.675 2.79 1.412 3.09 5.577.55 7.76-.39.338-.77.615-.85.615-.24 0 2.54 1.413 3.35 1.702.9.32 1.94.362 2.71.11.56-.183.66-.16.75.172.06.195-.04.277-.6.52-.89.384-2.75.455-3.87.148zm-3.46-3.394c1.98-.96 2.36-4.037.74-6.002-1.5-1.82-4.13-1.545-5.12.537-.89 1.88.13 4.788 1.95 5.558.74.31 1.68.276 2.44-.093zM9.25 96.718c-.54-.22-1.136-.905-2.076-2.39-1.445-2.284-1.716-2.62-2.12-2.62h-.35l.003 1.237c.005 2.255.25 3.026 1.013 3.205.204.047.284.142.284.338v.273h-4.84v-.25c0-.19.09-.28.37-.36.205-.05.484-.24.62-.41.243-.3.248-.41.248-4.57s-.005-4.27-.248-4.57c-.136-.17-.415-.35-.62-.41-.27-.07-.37-.16-.37-.34 0-.24.012-.24 2.998-.31 3.178-.07 3.878-.02 4.774.39.782.35 1.435 1.42 1.436 2.35.002 1.07-.85 2.27-1.975 2.79l-.59.27 1.303 1.81c1.53 2.14 2.01 2.71 2.46 2.93.42.2.46.65.07.74-.48.12-2.03.07-2.39-.08zm-2.953-6.12c1.583-.41 2.117-2.454.92-3.52-.564-.5-1.162-.683-1.926-.585l-.58.075v4.152h.56c.31 0 .78-.055 1.03-.122zm27.206 6.12c-.647-.214-1.257-.597-1.58-.99-.587-.717-.65-1.093-.656-4.005-.008-3.044-.07-3.38-.67-3.638-.24-.104-.382-.245-.384-.385-.002-.21.076-.22 2.005-.22 2.003 0 2.008 0 2.008.248 0 .166-.07.247-.216.247-.118 0-.344.128-.502.283l-.286.284v2.984c0 2.808.014 3.01.245 3.418.36.64 1.08.967 2.002.916.99-.056 1.53-.383 1.92-1.176.3-.608.31-.638.31-3.31 0-2.39-.02-2.728-.21-2.99-.12-.163-.34-.327-.5-.364-.19-.043-.3-.147-.3-.277 0-.193.11-.207 1.59-.207s1.59.014 1.59.207c0 .13-.11.234-.29.276-.55.12-.59.36-.65 3.53l-.06 2.97-.36.64c-.42.76-1.1 1.29-1.97 1.53-.74.2-2.47.21-3.06.01zm46.052 0c-.654-.216-1.258-.598-1.592-1.006-.557-.68-.637-1.18-.644-4.048-.01-2.98-.08-3.32-.67-3.58-.25-.103-.39-.244-.39-.384-.01-.21.07-.22 2-.22 1.98 0 2 .003 2 .24 0 .16-.09.25-.26.275-.14.02-.37.174-.5.345-.23.29-.25.47-.29 2.878-.05 2.957.04 3.58.58 4.093.97.93 3 .67 3.57-.45.36-.71.45-1.59.41-3.92-.05-2.46-.13-2.77-.75-2.91-.19-.04-.3-.14-.3-.27 0-.19.11-.2 1.59-.2s1.6.02 1.6.21c0 .13-.14.26-.35.34-.19.08-.39.22-.44.32-.05.1-.12 1.52-.16 3.16l-.07 2.98-.36.65c-.42.76-1.1 1.29-1.98 1.53-.74.21-2.47.22-3.06.02zm37.377-.003c-.472-.192-1.033-.842-1.902-2.205-1.122-1.76-1.25-1.92-1.542-1.92-.26-.002-.265.02-.265 1.374 0 1.642.147 2.105.703 2.208.28.052.36.125.36.328v.26h-4.016v-.26c0-.203.08-.276.36-.328.673-.125.72-.422.68-4.245l-.036-3.385-.286-.284c-.157-.155-.383-.283-.502-.283-.133 0-.215-.08-.215-.21 0-.18.12-.22.87-.286.48-.05 1.79-.06 2.92-.04 1.84.03 2.11.06 2.55.28.78.38 1.22 1.13 1.22 2.07 0 .9-.55 1.69-1.56 2.22-.32.17-.53.34-.46.38.07.04.59.72 1.16 1.52 1.12 1.57 1.74 2.27 2 2.27.23 0 .21.51-.02.59-.33.12-1.63.06-2-.09zm-2.182-5.167c.47-.225.93-.768 1.016-1.197.112-.55-.15-1.27-.6-1.67-.417-.36-.82-.47-1.518-.39l-.425.05v3.38h.596c.32 0 .74-.07.93-.16zm52.56 5.148c-.353-.09-.664-.18-.69-.205-.025-.02-.112-.51-.19-1.09l-.146-1.05h.333c.183 0 .333.04.333.09 0 .29.775 1.13 1.224 1.33 1.215.55 2.673.03 2.672-.94 0-.64-.334-1.02-1.472-1.68-1.596-.93-2.213-1.42-2.53-2.02-.32-.59-.375-1.52-.136-2.19.158-.44.9-1.11 1.525-1.36.628-.26 2.596-.25 3.41.01l.62.2v1.96h-.34c-.266 0-.358-.06-.416-.27-.123-.46-.756-1.03-1.286-1.16-1.41-.35-2.55 1-1.66 1.98.17.19.94.74 1.71 1.23 1.5.94 2.05 1.46 2.24 2.07.41 1.36-.27 2.57-1.73 3.07-.78.28-2.47.3-3.46.05zm-154.693-.23c0-.196.066-.254.286-.254.17 0 .387-.12.532-.29.235-.278.244-.415.244-3.74 0-2.414-.05-3.525-.14-3.692-.18-.308-.46-.507-.72-.51-.14-.004-.21-.093-.21-.28v-.274h7.09v2.32l-.31-.034c-.24-.026-.35-.127-.45-.41-.24-.654-.63-.822-2.03-.87l-1.24-.042v3.128l.95-.05c1.03-.057 1.55-.29 1.62-.73.02-.175.12-.237.35-.237h.31v2.86h-.32c-.26 0-.33-.05-.33-.26 0-.49-.4-.67-1.55-.71l-1.05-.04v1.55c0 1.86.01 1.89 1.36 1.89 1.33 0 2.02-.31 2.37-1.07.17-.38.58-.49.71-.19.08.2-.25 1.49-.5 1.94l-.18.32-3.42-.02-3.42-.02v-.25zm9.092.034c0-.2.08-.275.34-.325.62-.116.65-.28.69-3.807.04-3.673-.01-4.004-.66-4.283-.27-.116-.38-.24-.39-.422v-.258l2.68.046c2.9.05 3.14.1 3.93.71.86.68 1.09 2.03.5 3.03-.51.88-1.4 1.34-2.8 1.47l-.74.07-.18-.42-.19-.42.43-.06c.55-.07 1.15-.4 1.47-.8.18-.22.25-.46.24-.88-.02-1.07-.66-1.72-1.79-1.81l-.64-.05.03 3.67c.04 4 .06 4.11.72 4.24.24.05.32.13.32.33v.26h-4.01v-.26zm19.6-.04c0-.17.07-.248.22-.248.12 0 .35-.095.5-.21l.28-.21.03-3.404c.04-3.81-.01-4.098-.69-4.336-.22-.075-.36-.204-.36-.32 0-.178.16-.2 1.8-.224 3.44-.052 4.17-.016 4.73.236.72.327 1.06.8 1.12 1.57.02.347.01.752-.03.9-.12.43-.67.958-1.28 1.22l-.57.242.48.133c1.14.31 1.86 1.42 1.71 2.61-.13 1-.59 1.57-1.67 2.03-.57.24-.72.25-3.45.25H41.3v-.25zm5.2-.827c.6-.374.84-.883.77-1.65-.1-1.15-.97-1.835-2.33-1.835h-.72l.03 1.658c.03 1.588.05 1.666.31 1.867.4.306 1.39.286 1.91-.04zm-.49-4.563c.72-.26 1.1-.787 1.03-1.427-.1-.86-.85-1.338-2.09-1.338h-.71v2.965l.62-.006c.34-.003.85-.09 1.14-.194zm4.84 5.396c0-.177.08-.25.31-.274.17-.02.42-.17.56-.345.24-.3.25-.43.25-3.68 0-2.7-.04-3.423-.17-3.643-.21-.343-.48-.54-.75-.545-.14-.01-.21-.09-.21-.26 0-.25 0-.25 2.12-.25s2.12 0 2.12.24c0 .17-.07.24-.23.24-.13 0-.38.12-.56.26l-.3.29-.04 3.46-.03 3.46.3.18c.24.14.49.17 1.22.13 1.12-.06 1.65-.32 1.96-.97.2-.43.43-.53.74-.35.11.07.09.27-.09.95-.13.47-.32.98-.42 1.12l-.19.26-3.3-.04-3.3-.04v-.24zm8.26.034c0-.203.08-.276.36-.328.65-.12.7-.42.7-4.102 0-3.058-.02-3.294-.23-3.625-.13-.195-.37-.386-.53-.424-.21-.04-.3-.14-.3-.3 0-.23.03-.23 2.01-.23s2 .01 2 .24c0 .16-.1.26-.29.31-.16.04-.39.2-.5.37-.19.27-.21.63-.21 3.65 0 3.73.05 4.03.66 4.15.25.05.33.13.33.33v.26h-4.01v-.26zm28.22-.02c0-.18.09-.258.36-.308.65-.12.7-.42.7-4.114 0-3.236-.01-3.287-.27-3.655-.15-.205-.39-.39-.53-.408-.19-.025-.26-.11-.26-.302v-.267h6.96v1.153c0 1.14-.01 1.15-.29 1.15-.23 0-.3-.07-.36-.38-.14-.65-.62-.87-2.03-.92l-1.19-.04-.08.52c-.04.28-.08.99-.08 1.56v1.04l1-.06c1.1-.07 1.54-.25 1.66-.69.05-.2.15-.28.35-.28h.28v2.85h-.29c-.2 0-.3-.06-.3-.19-.01-.55-.58-.8-1.77-.8h-.97l.04 1.54c.05 1.87.04 1.86 1.45 1.86 1.25 0 1.9-.28 2.24-.96.17-.35.3-.47.49-.47.14 0 .3.05.34.12.11.16-.42 1.95-.63 2.14-.14.13-.74.15-3.52.13l-3.35-.02v-.24zm12.99.026c0-.18.11-.3.37-.412.21-.086.48-.296.62-.467.24-.3.24-.435.24-4.448 0-4.66-.01-4.71-.83-4.96-.32-.1-.42-.19-.42-.4v-.27h8.26v2.75h-.36c-.29 0-.36-.05-.36-.25 0-.41-.44-.96-.92-1.15-.28-.11-.92-.2-1.76-.23l-1.33-.05v3.76l.97-.01c1.3-.01 1.74-.16 2.02-.68.18-.34.28-.42.56-.42h.35v3.31l-.38-.04c-.26-.03-.4-.11-.44-.26-.19-.65-.91-.94-2.35-.94h-.76l.05 1.95c.05 2.22.15 2.55.86 2.78.31.1.41.2.41.39v.25h-4.84v-.25zm18.89-.02c0-.2.06-.274.23-.274.36 0 .77-.685 1.67-2.77 1.2-2.796 2.34-5.637 2.34-5.84 0-.137.12-.176.56-.174l.56.002 1.59 3.797c1.73 4.123 2.05 4.764 2.45 4.93.16.065.26.203.26.355 0 .25 0 .25-2.01.25h-2.01V96.5c0-.2.08-.276.35-.326.51-.094.54-.414.15-1.5l-.34-.933h-2.79l-.28.77c-.36.97-.34 1.63.05 1.69.19.03.26.11.26.3v.27h-3.07v-.27zm5.43-3.845c0-.16-.87-2.36-.94-2.36-.05 0-.17.21-.27.47l-.5 1.21-.3.74h1c.55 0 1-.02 1-.05zm5.08 3.86c0-.19.08-.27.32-.32.64-.12.66-.27.71-3.86.05-3.7 0-4.01-.69-4.25-.21-.07-.36-.2-.36-.32 0-.17.13-.19 1.33-.19h1.32l.77.91c.42.5 1.51 1.72 2.42 2.72.91 1 1.77 1.97 1.92 2.15l.27.33-.04-2.48c-.04-2.7-.11-2.98-.74-3.13-.19-.04-.3-.15-.3-.28 0-.19.11-.21 1.59-.21 1.5 0 1.59.02 1.59.22 0 .14-.1.23-.26.25-.14.02-.37.18-.5.35-.24.3-.25.45-.29 4.37l-.04 4.06h-.52c-.47 0-.56-.04-.91-.46-.32-.37-5.32-6.14-5.51-6.34-.03-.03-.03 1.18 0 2.69.05 3.07.13 3.43.69 3.54.26.05.34.12.34.32v.26h-3.18v-.26zm20.66-.01c0-.16.06-.27.16-.27.23 0 .67-.51.98-1.16.43-.89 2.45-5.74 2.8-6.72l.32-.91.53.04.53.04 1.56 3.74c.86 2.06 1.66 3.91 1.78 4.12.26.49.65.88.85.88.09 0 .16.12.16.28v.28h-4.02v-.28c0-.19.06-.27.21-.27.57 0 .62-.46.19-1.67l-.31-.85h-2.77l-.25.74c-.47 1.4-.45 1.79.11 1.79.16 0 .22.08.22.28v.28h-3.07v-.28zm5.01-4.91c-.23-.62-.44-1.2-.48-1.29-.04-.1-.28.32-.59 1.05-.29.67-.52 1.25-.52 1.29 0 .05.44.09.99.09h.99l-.41-1.12zm5.38 4.92c0-.21.06-.27.27-.27.15 0 .38-.1.5-.23.2-.21.22-.47.25-3.65.02-1.88.01-3.53-.03-3.66-.08-.31-.52-.69-.79-.69-.15 0-.22-.08-.22-.24 0-.24 0-.24 2-.24 1.93 0 2.01.01 2.01.22 0 .14-.13.28-.35.36-.19.08-.39.28-.46.44-.17.42-.27 3.85-.16 5.7.07 1.29.12 1.6.31 1.79.12.13.32.23.44.23.15 0 .21.08.21.28v.28h-4.01v-.28zm13.22-.02c0-.19.07-.25.29-.25.17 0 .38-.12.53-.29.23-.28.24-.41.24-3.74 0-2.41-.04-3.52-.14-3.69-.18-.3-.46-.5-.72-.51-.14 0-.21-.09-.21-.28v-.27h7.08v2.32l-.31-.03c-.23-.02-.34-.12-.44-.41-.23-.65-.62-.82-2.03-.87l-1.24-.04v3.1h.74c1.02-.01 1.52-.18 1.74-.62.13-.26.25-.35.47-.35h.29v2.85h-.3c-.27 0-.33-.05-.33-.26 0-.49-.39-.67-1.55-.71l-1.05-.04v1.54c0 1.86.02 1.89 1.37 1.89 1.33 0 2.02-.31 2.37-1.07.17-.38.58-.49.71-.19.08.2-.25 1.49-.5 1.94l-.18.32-3.42-.02-3.42-.02v-.26zM15.81 86.45l-.287-.207.702-.99c.386-.55.777-1 .87-1 .398 0 1.67.25 1.638.33-.064.158-2.394 2.09-2.515 2.087-.065 0-.248-.094-.407-.21zm-15-7.588h179.84v.985H.808v-.988zm68.445-2.25c-.944-.314-1.476-1.13-1.304-2.01.12-.59.48-1.006 1.12-1.28l.56-.24-.34-.18c-.19-.105-.34-.277-.34-.4 0-.2.87-1 1.08-1 .05 0-.02-.183-.16-.406-.6-.954-.12-2.332 1.01-2.872.61-.293.82-.305 2.96-.178 1.23.074 1.28.086 1.21.31-.03.13-.06.272-.07.318 0 .045-.2.082-.46.082h-.46l.06.638c.14 1.393-.93 2.347-2.65 2.373-.89.013-1.32.19-.97.398.1.058.68.255 1.28.438 1.96.59 2.32.887 2.24 1.83-.08.985-.93 1.84-2.16 2.185-.7.197-1.97.195-2.57-.004zm2.63-.68c.958-.443 1.373-1.29.85-1.73-.354-.297-1.888-.754-2.286-.68-.81.15-1.57 1.07-1.43 1.73.19.91 1.63 1.253 2.86.682zm.316-4.97c.72-.406 1-1.565.52-2.137-.66-.784-1.92.09-1.93 1.34 0 .388.06.525.33.74.4.32.62.33 1.1.06zm4.48 2.55c-.52-.1-.79-.42-.85-.99-.15-1.46 1.17-3.604 2.65-4.295.77-.36 2.29-.396 3.3-.08.09.03.03.405-.21 1.177-.45 1.51-.72 3.022-.57 3.283.1.17.17.183.49.082.29-.1.39-.09.47.03.17.25.07.34-.61.56-.9.29-1.32.23-1.46-.2l-.1-.34-.48.25c-.81.43-1.93.65-2.6.52zm2.04-.987c.35-.152.7-.385.8-.52.16-.223.64-1.87.83-2.83.08-.393.07-.407-.36-.517-.79-.208-1.59.33-2.22 1.5-.66 1.22-.83 2.312-.4 2.595.3.194.48.16 1.37-.23zm55.91.955c-.53-.12-.71-.29-.86-.79-.22-.76.29-2.197 1.16-3.26 1.04-1.27 2.19-1.7 3.89-1.45.45.066.85.155.89.197.05.04-.1.743-.33 1.56-.22.815-.42 1.803-.43 2.196l-.02.718.5-.02c.45-.02.5.01.5.23 0 .21-.11.28-.68.44-.93.27-1.37.21-1.42-.18-.02-.16-.06-.3-.08-.3-.02 0-.33.12-.68.26-.56.23-1.71.53-1.94.5-.04 0-.25-.05-.46-.09zm1.98-.94c.29-.14.62-.34.73-.45.26-.28.73-1.71.98-2.97.07-.34.05-.36-.4-.47-.38-.1-.54-.09-.88.06-.75.33-1.49 1.45-1.88 2.83-.37 1.322.09 1.634 1.47.994zm-128.06.69c-.03-.14.18-1.16.47-2.27.58-2.19.58-2.37-.06-2.2-.31.08-.34.06-.34-.16 0-.21.11-.28.68-.438.37-.1.87-.196 1.09-.21.39-.023.42-.003.45.344.02.203-.18 1.207-.45 2.23-.27 1.026-.46 1.94-.42 2.034.06.135.18.154.61.094.51-.073.54-.064.5.175-.03.2-.18.29-.69.44-.35.1-.9.19-1.21.19-.48 0-.56-.03-.62-.24zm4.54.05l-.27-.21.92-3.74c.5-2.057.9-3.88.88-4.054-.04-.323-.08-.34-.54-.21-.22.063-.26.034-.26-.2 0-.32.42-.475 1.57-.58.66-.06.68-.057.68.2 0 .146-.18 1.05-.41 2.008-.23.96-.41 1.805-.41 1.883 0 .11.13.09.51-.066 1.32-.54 2.46-.51 2.88.07.39.55.19 1.96-.44 3.12-.32.61-1.29 1.55-1.82 1.77-.69.29-2.87.3-3.26 0zm2.99-.7c.6-.39 1.26-1.71 1.44-2.87.19-1.17-.64-1.4-1.96-.55-.28.18-.5.44-.62.73-.21.54-.65 2.29-.65 2.602 0 .46 1.15.514 1.8.08zm4.51.56c-.32-.31-.34-.4-.34-1.13.02-1.856 1.15-3.515 2.71-3.97.78-.23 1.47-.15 1.93.215.27.212.32.344.32.793 0 1.13-1.1 1.99-2.7 2.09-.46.03-.88.11-.92.177-.13.188-.1.82.05 1.09.3.52.72.535 1.73.05.63-.3.76-.33.86-.19.21.307.11.404-.8.805-.76.332-1.05.4-1.69.4-.7 0-.8-.028-1.12-.336zm2.12-2.64c1.01-.26 1.67-1.26 1.16-1.74-.32-.302-.62-.292-1.04.035-.33.26-.87 1.083-1.03 1.574-.06.2-.03.24.2.24.15 0 .48-.06.73-.12zm3.98 2.935c0-.016.21-.87.47-1.89.26-1.023.48-2.076.48-2.34v-.48l-.47.07c-.42.06-.47.044-.47-.15 0-.24.38-.425 1.34-.648.66-.15.91-.047.91.38v.258l.42-.264c.74-.46 1.19-.55 1.72-.32.26.11.45.25.43.32-.32 1.05-.5 1.38-.76 1.38-.23 0-.27-.05-.27-.37 0-.8-.74-.8-1.29-.01-.33.5-.68 1.62-.96 3.11-.08.45-.21.82-.27.84-.21.06-1.25.16-1.25.13zm5.93-.104c-.13-.14-.06-.54.62-3.4l.28-1.18h-.4c-.22 0-.4-.03-.4-.06 0-.17.27-.49.41-.49.29 0 .84-.52 1.08-1.01.26-.54.36-.63.75-.63.26 0 .28.04.21.36-.04.2-.11.55-.15.77l-.07.41h.55c.56 0 .64.09.48.49-.05.13-.23.18-.63.18-.66 0-.55-.22-1.07 2.19-.38 1.77-.36 1.93.28 1.76.54-.14.58-.13.54.15-.03.19-.18.29-.63.43-.72.23-1.63.26-1.81.06zm4.77-.14c-.86-.86-.24-3.33 1.14-4.48.56-.47 1.44-.83 2.01-.83.37 0 1.17.35 1.29.56.19.33.13 1.12-.11 1.49-.49.76-1.57 1.25-2.74 1.25h-.69v.58c0 1.13.51 1.32 1.83.72.42-.19.79-.33.82-.3.03.03.07.15.1.27.03.18-.13.3-.83.63-.76.36-.98.41-1.69.41-.73 0-.85-.03-1.1-.28zm2.08-2.69c.63-.19 1.06-.53 1.25-.95.16-.35.16-.41-.05-.67-.32-.4-.64-.41-1.13-.01-.38.31-1.02 1.34-1.02 1.64 0 .16.45.15.95-.01zm44.35 2.91c-.16-.15-.06-.8.51-3.04.77-3.04 1.18-4.84 1.18-5.13 0-.21-.05-.23-.41-.17-.37.06-.41.04-.41-.2 0-.27.3-.4 1.47-.61.61-.1.78-.03.78.33 0 .17-.39 1.9-.88 3.86s-.89 3.73-.89 3.93v.37l.54-.06c.51-.06.54-.05.5.18-.03.19-.18.29-.68.43-.66.2-1.55.26-1.69.13zm4.45-.06c-.14-.22-.06-.69.44-2.53.27-.95.46-1.82.44-1.92-.05-.19-.08-.2-.59-.09-.27.06-.33.04-.33-.15 0-.26.51-.49 1.43-.66.66-.11.94-.05.94.2 0 .09-.24 1.1-.53 2.24-.29 1.14-.5 2.13-.45 2.19.05.07.28.09.6.05.5-.06.53-.05.49.18-.03.19-.18.29-.69.43-.76.23-1.6.26-1.72.07zm4.36-.05c-.04-.1-.01-.46.07-.79.27-1.1.84-3.64.84-3.69 0-.03-.16-.05-.36-.05-.51 0-.41-.31.19-.6.36-.17.57-.39.86-.91.34-.59.44-.68.73-.68h.33l-.16.69c-.09.38-.16.72-.16.77 0 .04.26.08.59.08.62 0 .64.01.52.41-.06.22-.15.25-.68.25h-.61l-.4 1.85c-.22 1.02-.37 1.93-.33 2.03.06.14.15.16.46.07.54-.14.57-.13.57.16 0 .22-.1.29-.69.44-.91.24-1.65.24-1.75 0zm4.87-.06c-.29-.23-.35-.36-.39-.98-.09-1.38.59-2.94 1.6-3.66 1.12-.79 2.34-.89 3.02-.26.32.3.35.38.29.88-.11 1.09-1.23 1.88-2.77 1.95-.96.05-1.06.16-.87.93.21.84.58.93 1.76.41.78-.34.96-.34.96 0 0 .35-1.41.92-2.43.97-.75.04-.87.02-1.17-.23zm2.5-2.94c.74-.35 1.06-1.12.64-1.55-.53-.54-1.5.17-1.99 1.45l-.17.47.53-.07c.29-.04.74-.17 1-.29zm28.23 3.15c0-.02.21-.87.47-1.89s.48-2.07.48-2.34v-.48l-.47.07c-.42.06-.47.05-.47-.15 0-.26.21-.37 1.17-.6.83-.2 1.08-.12 1.08.34v.26l.42-.26c.74-.46 1.19-.55 1.72-.33.26.11.46.23.46.26 0 .04-.11.38-.26.75-.22.57-.31.69-.53.69-.22 0-.27-.06-.27-.37 0-.75-.69-.81-1.21-.1-.39.54-.59 1.13-.92 2.67-.14.7-.29 1.3-.33 1.33-.07.07-1.31.23-1.31.17zm13.62-.13c-.09-.23.02-.91.47-2.85l.39-1.65-.33-.03c-.39-.04-.46-.4-.09-.51.42-.12.9-.57 1.13-1.06.26-.54.36-.63.75-.63.26 0 .28.04.21.36-.04.2-.11.55-.15.77l-.07.41h.55c.56 0 .64.09.48.49-.05.13-.23.18-.63.18-.65 0-.55-.22-1.07 2.19-.38 1.77-.36 1.93.28 1.76.54-.14.58-.13.54.15-.03.19-.18.29-.63.43-.78.25-1.69.26-1.79.03zm4.77-.11c-.89-.83-.27-3.32 1.12-4.48.56-.47 1.44-.83 2.01-.83.37 0 1.17.35 1.29.56.19.33.13 1.12-.11 1.5-.5.77-1.57 1.25-2.75 1.25h-.7l.06.68c.09 1.07.51 1.22 1.8.62.42-.19.79-.33.82-.3.03.03.07.15.1.27.04.18-.13.3-.83.63-.75.36-.98.41-1.66.41-.69 0-.83-.03-1.1-.28zm2.48-2.86c.83-.38 1.2-1.26.68-1.63-.34-.24-.59-.2-1.04.17-.38.31-1.02 1.34-1.02 1.65 0 .18.81.07 1.37-.19zm3.59 3.06c0-.05.22-.94.48-1.98.27-1.04.47-2.05.45-2.24-.03-.32-.06-.34-.47-.32-.33.01-.44-.03-.49-.19-.04-.17.06-.25.55-.42.34-.12.81-.24 1.05-.29.46-.08.45-.09.74.56.01.01.32-.13.7-.31.82-.38.95-.4 1.45-.11l.38.21-.25.71c-.21.6-.3.72-.52.72-.22 0-.27-.06-.27-.36 0-.96-.98-.77-1.51.29-.13.26-.4 1.18-.59 2.04-.19.86-.37 1.57-.39 1.59-.1.08-1.28.15-1.28.08zm5.91 0c0-.05.19-.78.43-1.62.25-.92.43-1.83.44-2.29l.02-.77-.42.04c-.33.03-.44-.01-.48-.17-.05-.17.05-.24.54-.38 1.07-.31 1.32-.33 1.53-.13.1.09.19.29.19.44 0 .14.02.26.05.26.02 0 .37-.15.78-.33.95-.42 2.21-.64 2.59-.45.24.12.26.18.19.69-.05.3-.24 1.15-.43 1.88s-.36 1.5-.38 1.71c-.03.38-.03.38.46.37.34-.01.52.04.56.15.09.23-.02.3-.76.5-.84.23-1.62.23-1.71 0-.04-.1.14-1.05.4-2.13.52-2.16.55-2.41.3-2.49-.26-.09-1.16.32-1.7.77-.45.37-.5.49-.78 1.57-.16.65-.33 1.41-.38 1.7-.05.29-.15.55-.22.57-.36.1-1.26.15-1.26.07zm8.1-.08c-.04-.1.17-1.11.47-2.26.3-1.14.52-2.14.48-2.23-.04-.11-.15-.12-.45-.04-.21.06-.4.11-.42.11-.01 0-.03-.11-.03-.25 0-.21.11-.28.62-.42 1.4-.39 1.83-.32 1.69.26-.03.15-.28 1.1-.54 2.12s-.45 1.93-.41 2.02c.05.12.2.15.61.09.5-.06.53-.05.5.18-.08.47-2.34.88-2.51.46zm4.46 0c-.08-.19.02-.71.48-2.62.51-2.11.51-1.92.08-1.92-.52 0-.43-.3.17-.59.35-.17.56-.39.84-.88.31-.53.44-.66.7-.69.36-.04.36-.01.11 1.17l-.07.36h.62c.52 0 .61.03.55.17-.04.1-.07.25-.07.33 0 .12-.16.16-.63.16h-.63l-.39 1.85c-.21 1.02-.35 1.93-.31 2.03.06.15.15.16.47.08.54-.14.57-.13.57.16 0 .23-.1.29-.69.44-.9.24-1.65.24-1.75 0zm4.86-.08c-.33-.27-.34-.3-.34-1.36 0-1.03.02-1.12.45-1.92.53-.98 1.12-1.51 2.09-1.84 1.68-.58 2.88.41 2.14 1.76-.42.77-1.53 1.32-2.67 1.32-.68 0-.73.02-.8.29-.1.37.03.92.26 1.17.27.29.73.24 1.56-.16.62-.29.75-.32.84-.19.21.31.11.43-.68.78-.61.28-1 .37-1.63.4-.76.04-.87.02-1.18-.23zm2.58-2.96c.8-.41 1.07-1.23.51-1.57-.21-.13-.37-.15-.62-.07-.41.12-1.01.84-1.25 1.51l-.19.52.55-.07c.3-.04.756-.18 1.015-.32zM.01 73.18c.02-.107.142-.21.27-.233.35-.06.65-.35.89-.846.31-.66 1.29-5.24 1.32-6.19.02-.81.02-.82-.36-1.04-.73-.43-.53-.5 1.51-.5 1.62 0 1.89.03 1.89.17 0 .1-.15.2-.36.24-.75.14-1.04.83-1.75 4.23-.66 3.18-.66 3.12-.36 3.4.23.21.35.23 1.27.19 1.24-.06 1.69-.25 2.12-.92.34-.52.36-.53.6-.39.14.08.13.19-.03.63-.1.3-.31.74-.46.98l-.27.44-3.16.03c-2.96.02-3.16.01-3.12-.17zm59.724.033c0-.086.2-.246.45-.357.31-.14.52-.35.7-.696.34-.645 1.36-5.322 1.38-6.31.02-.746.01-.77-.36-.988-.79-.47-.61-.5 2.99-.5 3.3 0 3.37.006 3.3.217-.04.11-.14.55-.22.96-.12.63-.18.75-.4.78-.21.03-.26-.02-.26-.26 0-.73-.46-.94-2.12-.94h-1.14l-.32 1.4c-.18.77-.35 1.48-.38 1.59-.05.17.05.19.99.19 1.18 0 1.53-.12 1.87-.63.31-.46.71-.49.62-.06l-.27 1.31c-.16.8-.25 1.01-.4 1.01-.12 0-.22-.12-.27-.33-.04-.18-.19-.39-.34-.46-.28-.14-2.14-.21-2.27-.08-.08.07-.43 1.65-.58 2.64-.07.47-.05.53.22.7.24.15.51.17 1.34.14 1.23-.06 1.67-.24 2.176-.91.22-.29.43-.46.523-.42.23.08.204.28-.144 1.05-.52 1.15-.23 1.07-3.85 1.07-2.65 0-3.17-.03-3.17-.16zm59.99.002c0-.087.18-.214.39-.28.75-.237 1-.863 1.74-4.418.64-3.06.63-3.55-.12-3.772-.13-.04-.22-.13-.19-.2.04-.09.96-.135 3.33-.156 3.22-.03 3.28-.03 3.2.18-.04.12-.14.55-.22.96-.12.63-.18.75-.4.78-.22.03-.26-.02-.26-.31 0-.7-.57-.92-2.18-.87l-.93.03-.33 1.42c-.18.78-.33 1.49-.33 1.56 0 .2 1.8.18 2.23-.03.18-.09.4-.31.48-.5.09-.21.24-.34.37-.34.28 0 .28-.08-.03 1.4-.21 1.04-.29 1.24-.47 1.24-.13 0-.21-.08-.21-.2 0-.51-1.1-.9-2.12-.74l-.45.07-.24 1.23c-.42 2.16-.4 2.36.24 2.6.71.27.3.37-1.59.4-1.55.03-1.85.01-1.85-.13zm-69.27-2.362c-.53-.223-.99-.913-.99-1.476 0-.873.83-1.653 1.76-1.65 1.11.004 1.79.632 1.79 1.644.01 1.29-1.26 2.03-2.55 1.49zm60.11.052c-.2-.083-.52-.334-.7-.56-.27-.333-.33-.514-.32-.98.02-1.008.69-1.63 1.77-1.63.54 0 .72.055 1.08.33.82.61.95 1.63.3 2.35-.54.604-1.36.793-2.11.49zM39.96 67c-.23-.238-.25-.213 1.09-1.634l.452-.48.672.14c.37.078.673.174.673.214 0 .074-2.53 1.978-2.627 1.978-.03 0-.15-.097-.27-.217zm60.072 0l-.263-.196.89-.946c.49-.52.93-.946.99-.946.29 0 1.3.27 1.28.34-.03.072-2.23 1.718-2.51 1.88-.07.036-.24-.023-.38-.13zm78.496.002l-.285-.2.924-.945c.507-.52.965-.945 1.017-.945.24 0 1.3.264 1.29.32 0 .06-2.23 1.733-2.52 1.895-.07.04-.26-.015-.413-.125zm-168.52-.564c-.48-.446-.012-1.306.71-1.306.504 0 .766.245.766.715 0 .733-.926 1.104-1.477.59zm79.688.078c-.29-.204-.273-.883.03-1.165.486-.45 1.416-.15 1.416.46 0 .66-.89 1.1-1.44.72zm78.424-.078c-.49-.454-.01-1.306.73-1.306s1.06.77.52 1.268c-.367.338-.92.355-1.26.038zm-103.46-3.14c-.18-.186-.14-.253.714-1.117l.91-.92.675.15c.37.08.67.17.67.21-.01.11-2.38 1.8-2.59 1.85-.11.03-.28-.04-.38-.15z"/><path fill="#e2011c" d="M103.924 57.108l.276-.662c.467-1.197.95-2.11 1.65-3.113.74-1.062 2.37-2.626 3.047-2.925.833-.368 1.868-.497 3.15-.394 1.1.09 4.477.603 5.84.89 1.038.216 2.558.237 3.273.043 1.377-.372 2.193-1.093 2.58-2.278.298-.91.295-1.74-.007-2.29-.406-.74-.337-.94.65-1.81.486-.44.885-.84.886-.89 0-.3-.68-1.47-.85-1.48-.11 0-.32-.1-.47-.21l-.28-.21.58-.28c.8-.38 1.39-.97 1.39-1.39 0-.18-.17-.62-.38-.98-.4-.69-.5-1.35-.28-1.74.14-.26.4-.37 1.64-.7 1.04-.28 1.42-.57 1.57-1.19.12-.53.06-.87-.28-1.51-.28-.52-2.1-3.11-2.62-3.74-.71-.85-1.58-2.32-1.83-3.11-.25-.78-.26-.83-.07-1.83.39-2.13.16-3.89-.95-7.32-.83-2.56-1.05-3.18-1.3-3.66-.47-.86-.41-1.06.55-1.79.46-.35.88-.72.94-.83.29-.5-.04-1.47-.58-1.74-.35-.17-.54-.05-.89.55-.27.46-.38.54-.66.54-.47 0-.55-.18-.25-.55.34-.44.32-.51-.23-.58-.41-.05-.62-.2-1.51-1.04-1.18-1.12-1.98-1.64-3.56-2.32-.73-.31-.98-.46-.72-.42.23.03 1.03.09 1.79.13 2.19.1 2.72-.17 3.23-1.64.34-1 .51-1.46-.29-2.16L116.1 0h65.508v57.108h-77.684z"/><path fill="#003189" d="M48.063 57.108c-.475-.046-.887-.066-.916-.093-.05-.046.487-.367 2.946-1.76.79-.448 1.114-.688 1.004-.743-.09-.044-.777-.114-1.53-.156-1.118-.06-1.442-.044-1.77.097-.223.095-1.108.344-1.968.554-2.14.52-2.85.878-3.54 1.76l-.26.34H0V0h83.406L81.79.98c-.89.412-1.924.983-2.298 1.27-1.268.97-2.977 3.182-3.403 4.405-.16.45-.3.617-.78.923-.74.466-1.62 1.354-2.35 2.366-.99 1.374-2.88 4.47-3.25 5.328-.58 1.332-.53 2.347.32 6.328.37 1.753.77 3.534.89 3.957.12.423.25 1.14.29 1.593.07.81.13.985.64 1.978.14.272.25.58.25.686 0 .106.1.253.23.33.13.077.23.255.23.413 0 .19.27.552.86 1.155 1.35 1.38 2.33 2.674 2.33 3.083 0 .336-.53.423-1.39.227-1-.23-1.82-.724-3.08-1.864-.54-.485-.97-.81-.97-.724 0 .086.36.537.81 1 .89.926 1.03 1.178.84 1.513-.17.294-.58.38-1.14.237-.65-.165-1.02.065-.92.557.06.31.05.34-.14.28-.36-.13-1.16-.28-1.87-.35-.66-.06-.71-.09-1.1-.6-.3-.39-.54-.57-.85-.65-1.17-.3-4.09-.78-6.04-.98-3.44-.35-4.27-.38-5.92-.19-1.27.14-1.61.23-2.3.55-1.23.58-3.36 2.4-3.36 2.87 0 .22.47.15 1-.16 1.62-.93 7.19-2.25 9.92-2.35 1.35-.05 1.28.01-.35.29-.45.08-1.51.33-2.36.57-.85.24-2.32.6-3.26.81-.94.2-2.01.47-2.36.59l-.65.22 1 .01c5.12.05 10.94 1.56 13.32 3.45 1.02.81 1.39.91 2.89.76 2.06-.2 4.72-1.11 5.89-2.02.51-.39.92-.55.92-.34 0 .36-.67 2.29-.96 2.76-.32.54-.34.61-.17.73.1.07.16.16.12.19-.04.04.04.1.18.14.39.12.29.23-.33.37-.6.15-1.08.4-1.08.57 0 .06.08.11.18.11.3 0 .08.2-.32.28-.27.06-.32.1-.2.17s.12.1.01.1c-.08 0-.15.11-.15.25 0 .17-.12.29-.36.39-.59.25-.43.38.38.31.41-.04.66-.04.56 0-.1.03-.76.31-1.47.62-.72.3-1.65.67-2.07.81-.48.16-.78.32-.81.44-.04.19.18.18.74-.02.1-.04.19-.02.19.03s-1.23.71-2.73 1.47c-1.51.76-2.91 1.54-3.13 1.73-.22.2-.49.36-.62.36-.12 0-.28.13-.36.28-.23.47-.19.53.36.44.81-.13 1.19-.12 1.24.03.03.08-.05.14-.18.14s-.29.07-.37.16c-.08.09-.28.18-.45.19-.21.03-.4.16-.56.39-.13.19-.34.38-.47.41-.13.03.053.04.41.01 5.31-.37 6.3-.55 8.443-1.56 1.826-.86 3.72-2.15 5.07-3.43.39-.37.75-.67.8-.67.183 0 .083.61-.187 1.16-.47.94-1.45 1.8-3.47 3.05-1.02.63-2.12 1.23-2.446 1.32-1.014.3-2.65.62-4.37.85-5.593.75-7.734 1.32-9.854 2.63-.358.21-.73.38-.83.36-.1-.01-.37.12-.59.3-.63.51-.17.42 1.15-.21 1.36-.65 1.99-.75.92-.15-1.31.74-2.3 1.21-3.28 1.21H48zm-6.948-6.37c.212-.083.914-.45 1.56-.814.647-.364 1.414-.764 1.707-.887l1.83-.77c1.497-.628 3.695-1.22 3.82-1.03.045.066.373.14.73.163.497.032.584.062.38.13-.146.047-.266.13-.266.184 0 .198 1.105.14 1.57-.085.183-.09.595-.19.916-.23.4-.05.584-.12.584-.23 0-.13.102-.15.462-.09.497.08 1.564-.11 4.44-.78 1.945-.46 3.42-.92 4.715-1.47l.937-.4-.937-.56c-2.285-1.36-4.58-2.2-9.617-3.51-.877-.23-1.647-.47-1.712-.53-.078-.07-.04-.08.118-.03.503.17.886.2.886.07 0-.16-.38-.29-1.128-.39-.683-.09-1.124-.28-.65-.28.735 0-.528-.44-1.942-.66-1.047-.17-1.107-.21-.67-.41.38-.17.79-.82.683-1.08-.09-.23-.2-.2-.77.15-1.09.68-2.09 1.8-2.65 2.96-.32.66-.21.72 1.44.79 1.36.05 1.38.06 1.03.23-.19.09-.58.21-.87.25-.96.13-1.49.56-1.01.81.14.07.09.13-.26.29-.39.17-.41.21-.23.3.12.06.46.09.76.07.42-.03.61.01.81.17l.26.21-.52.3c-.29.17-.61.47-.72.66-.11.19-.5.65-.88 1.02-.37.37-.68.75-.68.85 0 .09-.54.58-1.21 1.07-1.79 1.33-2.57 2.07-2.57 2.42 0 .19-.1.35-.28.46-.56.34-.85.73-.54.73.07 0 .3-.07.51-.15zm13.813-1.284c.442-.055.955-.183 1.138-.284l.334-.184-.57-.264-.57-.264-.568.214c-.313.118-.746.277-.962.353-.872.307-.985.72-.168.606.31-.04.923-.12 1.366-.17zm-19.993-4.998c2.63-2.56 4.488-4.08 6.845-5.6.8-.516 1.366-.815 1.394-.737.076.21.42.15.978-.18.642-.38.963-.77 1.764-2.11.83-1.4 1.146-1.75 2.345-2.61.57-.4 1.39-1.01 1.84-1.34.65-.48.8-.56.75-.37-.04.14-.01.24.08.24.27 0 1.54-.51 1.58-.63.07-.2-1.21-.4-2.16-.34-.73.04-.98.12-1.89.57-2.12 1.07-3.66 2.22-6.59 4.95-2.11 1.96-3.77 3.28-4.61 3.65-.27.12-.48.38-.81 1-.64 1.22-1.8 2.97-2.89 4.39-1.03 1.34-1.25 1.8-.45.94.28-.29 1.11-1.13 1.86-1.86zM61.267 56.48c3.16-.612 3.51-.658 5.727-.748 2.49-.102 2.808-.162 4.306-.817.48-.21.668-.248.735-.15.116.173.93-.24 2.517-1.275.65-.423 1.567-.965 2.04-1.203.713-.36.93-.42 1.274-.36.366.063.475.02.942-.36 1.296-1.063 2.402-1.554 3.507-1.557.33 0 .443.044.443.175 0 .112.065.154.177.114.33-.12.18.01-.666.6-.98.67-.89.88.11.23.96-.62.97-.62.97-.37 0 .14-.37.5-1.04 1.02-1.53 1.18-2.61 2.16-4.25 3.85l-1.47 1.47H57.9l3.365-.63zm.03-22.372c.114-.028.3-.028.413 0 .114.028.02.05-.206.05-.228 0-.32-.022-.207-.05z"/><path fill="#7f7f7f" d="M116.38 29.93c-.516-.074-.25-.252.375-.252.626 0 .956-.224.956-.648 0-.2-.04-.232-.24-.173-.17.05-.29.008-.41-.143-.1-.14-.36-.24-.74-.287-.67-.083-1.76-.688-1.57-.87.07-.062.42-.136.77-.163.62-.048.66-.07.78-.422.1-.263.23-.39.45-.44.18-.038.45-.183.61-.323.17-.14.7-.5 1.18-.79.82-.5 1.33-1.03 1.15-1.2-.19-.18-1.96-.37-2.8-.31-.97.07-2.64.4-3.33.65-.71.25-.51.03.48-.51 1.33-.74 3.89-1.42 5.3-1.42.55 0 2.39.4 2.61.57.43.33-.04 1.49-.83 2.07l-.33.24.27.27.27.27-.28.21c-.15.11-.36.21-.46.21-.1 0-.36.15-.57.34-.32.29-.36.38-.27.61.07.17.07.34-.02.49-.08.14-.1.45-.05.81.1.73-.04.99-.62 1.14-.42.11-1.98.13-2.66.03z"/><g fill="#373c42" style="line-height:125%" font-size="14.948" font-family="sans-serif" letter-spacing="0" word-spacing="0"><path d="M237.278 61.846h6.442V28.69h-6.442v11.847c-2.325-2.162-4.99-3.243-8.09-3.243-6.683 0-12.11 5.135-12.11 12.614 0 7.343 5.717 12.57 12.256 12.57 3.246 0 5.668-1.082 7.944-3.155v2.523zm-6.78-19.056c4.068 0 7.07 2.838 7.07 7.028 0 4.37-3.1 7.163-7.07 7.163-4.022 0-6.928-3.01-6.928-7.11 0-3.92 2.664-7.07 6.927-7.07zm38.757 19.056h6.442V37.924h-6.442v2.613c-2.325-2.162-4.99-3.243-8.09-3.243-6.684 0-12.11 5.135-12.11 12.614 0 7.343 5.717 12.57 12.256 12.57 3.25 0 5.67-1.082 7.95-3.155v2.523zm-6.78-19.056c4.067 0 7.07 2.838 7.07 7.028 0 4.37-3.1 7.163-7.07 7.163-4.022 0-6.928-3.01-6.928-7.11 0-3.92 2.664-7.07 6.927-7.07zm20.495-4.866h-3.293v5.136h3.294v18.786h6.45V43.06h3.83v-5.136h-3.82v-8.83h-6.44v8.83zm32.83 23.922h6.443V37.924H315.8v2.613c-2.324-2.162-4.988-3.243-8.088-3.243-6.685 0-12.11 5.135-12.11 12.614 0 7.343 5.716 12.57 12.255 12.57 3.246 0 5.668-1.082 7.944-3.155v2.523zm-6.78-19.056c4.07 0 7.072 2.838 7.072 7.028 0 4.37-3.1 7.163-7.072 7.163-4.02 0-6.927-3.01-6.927-7.11 0-3.92 2.664-7.07 6.927-7.07zm23.258 12.794c-2.035 0-3.73 1.487-3.73 3.424 0 1.892 1.695 3.47 3.73 3.47 2.083 0 3.68-1.578 3.68-3.47 0-1.892-1.646-3.424-3.68-3.424zm35.472-17.66h-6.443v2.613c-2.422-2.117-4.94-3.243-8.138-3.243-6.54 0-12.02 4.865-12.02 12.253 0 7.163 5.42 12.3 12.35 12.3 3.34 0 5.66-1.037 7.8-2.974 0 2.252-.05 3.874-1.6 5.226-1.16.99-3.1 1.57-5.48 1.57-2.72 0-4.65-.63-5.96-2.07h-7.12c1.74 5 6.24 7.57 13.32 7.57 3.92 0 7.02-.86 9.34-2.66 2.95-2.34 3.92-5.45 3.92-10.09v-20.5zm-13.13 4.866c4.263 0 7.024 2.973 7.024 6.847 0 4.055-2.955 6.713-6.927 6.713-4.02 0-7.073-2.793-7.073-6.758 0-3.694 2.713-6.802 6.975-6.802zm31.737-5.496c-7.024 0-13.32 5.36-13.32 12.614 0 7.028 5.91 12.57 13.368 12.57 7.847 0 13.61-5.678 13.61-12.615 0-7.073-6.15-12.57-13.658-12.57zm.097 5.676c4.214 0 7.072 2.883 7.072 6.938 0 4.19-3.1 6.892-7.072 6.892-4.166 0-6.927-2.883-6.927-6.937 0-3.965 2.906-6.893 6.927-6.893zm18.778 5.902c0 1.982-.097 3.108.242 5.045 1.017 5.586 4.844 8.515 11.044 8.515 3.584 0 6.248-.9 8.283-3.02 2.72-2.792 3.01-6.035 3.01-10.45V37.924h-6.44v12.75c0 4.054-1.4 6.262-4.84 6.262-3.39 0-4.84-2.253-4.84-6.533v-12.48h-6.44v10.95zm37.324 12.974h4.166l10.947-23.922h-6.54l-6.49 14.1-6.49-14.1h-6.59l10.99 23.922z" style="-inkscape-font-specification:'Century Gothic Std Bold'" font-weight="bold" font-size="46.714" font-family="Century Gothic Std"/><path d="M463.07 57.105q1.225 0 2.05.794.855.76.855 1.88 0 1.11-.854 1.9-.85.77-2.05.77-1.19 0-2.05-.77-.82-.8-.82-1.91t.83-1.88q.86-.8 2.05-.8zm27.027-18.595l-.512 1.748h-4.158l-3.133 11.576q-2.08 7.655-4.187 11.84-2.99 5.906-6.436 8.158-2.62 1.722-5.24 1.722-1.7 0-2.9-.954-.88-.662-.88-1.722 0-.847.74-1.483.71-.61 1.77-.61.77 0 1.31.45.52.45.52 1.034 0 .58-.6 1.08-.45.37-.45.55 0 .24.2.37.26.18.8.18 1.23 0 2.59-.72 1.34-.72 2.39-2.15 1.06-1.41 1.99-4.08.4-1.11 2.14-7.34L481 40.24h-4.953l.4-1.75q2.36 0 3.3-.29.94-.32 1.71-1.167.8-.876 2.05-3.23 1.68-3.18 3.22-4.93 2.11-2.357 4.416-3.523 2.33-1.19 4.38-1.19 2.16 0 3.47 1.032 1.31 1.007 1.31 2.2 0 .926-.65 1.562-.66.633-1.68.633-.886 0-1.456-.48-.54-.48-.54-1.14 0-.42.37-1.03.37-.64.37-.85 0-.37-.257-.555-.37-.268-1.08-.268-1.795 0-3.22 1.06-1.91 1.405-3.42 4.4-.77 1.56-2.82 7.76h4.18z" style="-inkscape-font-specification:'Times New Roman, Italic'" font-style="italic" font-size="56.25" font-family="Times New Roman"/><path d="M492.034 39.358l9.826-1.484-4.1 12.874q4.982-7.92 9.055-11.072 2.307-1.802 3.76-1.802.94 0 1.48.53.542.503.542 1.484 0 1.748-.97 3.337-.682 1.192-1.964 1.192-.655 0-1.14-.397-.455-.398-.57-1.22-.056-.502-.255-.66-.228-.213-.54-.213-.485 0-.912.212-.74.37-2.25 2.06-2.364 2.59-5.127 6.73-1.2 1.75-2.05 3.94-1.2 3.02-1.37 3.63l-.91 3.33h-4.36l5.27-16.45q.91-2.86.91-4.08 0-.48-.43-.8-.57-.43-1.51-.43-.6 0-2.2.23l-.2-.98z" style="-inkscape-font-specification:'Times New Roman, Italic'" font-style="italic" font-size="56.25" font-family="Times New Roman"/></g></svg>