<svg aria-hidden="true" width="14" height="14" viewBox="0 0 14 14" fill="none" xmlns="http://www.w3.org/2000/svg">
<path d="M6.75 0.15625L6.53125 0.375C6.375 0.53125 6.375 0.75 6.53125 0.90625L12.0938 6.46875H0.375C0.15625 6.46875 0 6.65625 0 6.84375V7.15625C0 7.375 0.15625 7.53125 0.375 7.53125H12.0938L6.53125 13.125C6.375 13.2812 6.375 13.5 6.53125 13.6562L6.75 13.875C6.90625 14.0312 7.125 14.0312 7.28125 13.875L13.875 7.28125C14.0312 7.125 14.0312 6.90625 13.875 6.75L7.28125 0.15625C7.125 0 6.90625 0 6.75 0.15625Z" fill="#0883F2"/>
</svg>
