<svg xmlns="http://www.w3.org/2000/svg" width="17.5" height="23.5" viewBox="0 0 35 47"><g><g><path fill="#198cf2" d="M33.976 41.31l-7.34-1.28-3.046 6.797-9.196-17.31L24.78 24z"/></g><g><path fill="#198cf2" d="M.02 41.31l7.339-1.28 3.047 6.797 9.195-17.31L9.216 24z"/></g><g><path fill="#fff" d="M33.976 17.807c0 9.029-7.32 16.349-16.35 16.349-9.03 0-16.348-7.32-16.348-16.35 0-9.03 7.319-16.35 16.349-16.35 9.029 0 16.349 7.32 16.349 16.35z"/></g><g><path fill="#198cf2" d="M.536 17.806C.536 8.384 8.204.717 17.627.717c9.424 0 17.09 7.667 17.09 17.09 0 9.422-7.666 17.09-17.09 17.09S.536 27.228.536 17.806zm1.482 0c0 8.608 7.002 15.61 15.609 15.61 8.606 0 15.609-7.002 15.609-15.61 0-8.607-7.003-15.608-15.61-15.608C9.02 2.198 2.018 9.2 2.018 17.806z"/></g><g><path fill="#198cf2" d="M30.831 17.807c0 7.293-5.912 13.205-13.205 13.205S4.421 25.1 4.421 17.807 10.334 4.6 17.627 4.6c7.293 0 13.205 5.913 13.205 13.206z"/></g><g><path fill="#fff" d="M16.2 24.124c-.377 0-.756-.144-1.044-.431l-4.862-4.836a1.481 1.481 0 1 1 2.09-2.1l4.86 4.835a1.48 1.48 0 0 1-1.044 2.532z"/></g><g><path fill="#fff" d="M16.199 24.124a1.483 1.483 0 0 1-1.269-2.244l6.666-11.11a1.481 1.481 0 1 1 2.54 1.525l-6.665 11.11a1.481 1.481 0 0 1-1.272.719z"/></g></g></svg>
