<svg width="10" height="10" viewBox="0 0 10 10" fill="none" xmlns="http://www.w3.org/2000/svg">
<path fill-rule="evenodd" clip-rule="evenodd" d="M8.5 4H9C9.27614 4 9.5 4.22386 9.5 4.5V9.5C9.5 9.77614 9.27614 10 9 10H1C0.723858 10 0.5 9.77614 0.5 9.5V4.5C0.5 4.22386 0.723858 4 1 4H1.5V3.5C1.5 2.24957 2.1671 1.09413 3.25 0.468911C4.3329 -0.156304 5.6671 -0.156304 6.75 0.468911C7.8329 1.09413 8.5 2.24957 8.5 3.5V4ZM1.5 5V9H8.5V5H1.5ZM4.5 6H5.5V8H4.5V6ZM7.5 4V3.5C7.5 2.11929 6.38071 1 5 1C3.61929 1 2.5 2.11929 2.5 3.5V4H7.5Z" fill="#198CF2"/>
</svg>
