<svg aria-hidden="true" width="19" height="12" viewBox="0 0 19 12" fill="none" xmlns="http://www.w3.org/2000/svg">
<path d="M9.5 7C10.5938 7 11.5 6.125 11.5 5C11.5 3.90625 10.5938 3 9.5 3C9.46875 3 9.4375 3.03125 9.40625 3.03125C9.4375 3.15625 9.5 3.375 9.5 3.53125C9.5 4.34375 8.8125 5.03125 8 5.03125C7.84375 5.03125 7.625 4.96875 7.5 4.9375C7.5 4.96875 7.5 5 7.5 5C7.5 6.125 8.375 7 9.5 7ZM18.375 5.5625C16.6875 2.25 13.3125 0 9.5 0C5.65625 0 2.28125 2.25 0.59375 5.5625C0.53125 5.6875 0.5 5.875 0.5 6.03125C0.5 6.15625 0.53125 6.34375 0.59375 6.46875C2.28125 9.78125 5.65625 12 9.5 12C13.3125 12 16.6875 9.78125 18.375 6.46875C18.4375 6.34375 18.4688 6.15625 18.4688 6C18.4688 5.875 18.4375 5.6875 18.375 5.5625ZM9.5 1C11.6875 1 13.5 2.8125 13.5 5C13.5 7.21875 11.6875 9 9.5 9C7.28125 9 5.5 7.21875 5.5 5C5.5 2.8125 7.28125 1.03125 9.5 1ZM9.5 11C6.125 11 3.0625 9.09375 1.5 6C2.25 4.53125 4.0625 2.71875 5.53125 1.96875C4.875 2.8125 4.5 3.875 4.5 5C4.5 7.78125 6.71875 10 9.5 10C12.25 10 14.5 7.78125 14.5 5C14.5 3.875 14.0938 2.8125 13.4375 1.96875C14.9062 2.71875 16.7188 4.53125 17.5 6C15.9062 9.09375 12.8438 11 9.5 11Z" fill="#161616"/>
</svg>
