<svg xmlns="http://www.w3.org/2000/svg" fill="none" viewBox="0 0 18 18">
<path d="M17.5 9.00068C17.5 13.6947 13.6945 17.5 9 17.5C4.30549 17.5 0.5 13.6947 0.5 9.00068C0.5 4.30657 4.30622 0.5 9.00068 0.5C13.695 0.5 17.5 4.30647 17.5 9.00068Z" fill="#999999" stroke="white"/>
<path d="M12.0312 8.0625H11.6094V6.79688C11.6094 5.33789 10.3965 4.125 8.9375 4.125C7.46094 4.125 6.26562 5.33789 6.26562 6.79688V8.0625H5.84375C5.36914 8.0625 5 8.44922 5 8.90625V12.2812C5 12.7559 5.36914 13.125 5.84375 13.125H12.0312C12.4883 13.125 12.875 12.7559 12.875 12.2812V8.90625C12.875 8.44922 12.4883 8.0625 12.0312 8.0625ZM10.2031 8.0625H7.67188V6.79688C7.67188 6.11133 8.23438 5.53125 8.9375 5.53125C9.62305 5.53125 10.2031 6.11133 10.2031 6.79688V8.0625Z" fill="white"/>
</svg>
