<svg aria-hidden="true" width="10" height="10" viewBox="0 0 10 10" fill="none" xmlns="http://www.w3.org/2000/svg">
<path fill-rule="evenodd" clip-rule="evenodd" d="M5 10C2.2385 10 0 7.7615 0 5C0 2.2385 2.2385 0 5 0C7.7615 0 10 2.2385 10 5C10 7.7615 7.7615 10 5 10ZM2.50641 8.128C3.21418 8.69385 4.09375 9.00144 4.99991 9C5.98491 9 6.88641 8.644 7.58341 8.054C6.92552 7.37895 6.02251 6.99878 5.07991 7C4.10193 6.99887 3.16834 7.40808 2.50641 8.128ZM1.80794 7.40996C2.6573 6.50858 3.84143 5.9983 5.07994 5.99996C6.27323 5.99841 7.41797 6.47235 8.26094 7.31696C9.44903 5.64479 9.17965 3.34491 7.63729 1.99256C6.09494 0.640209 3.77958 0.673757 2.27706 2.07023C0.774536 3.4667 0.571899 5.77342 1.80794 7.41046V7.40996ZM5 5.5C3.89543 5.5 3 4.60457 3 3.5C3 2.39543 3.89543 1.5 5 1.5C6.10457 1.5 7 2.39543 7 3.5C7 4.60457 6.10457 5.5 5 5.5ZM5 4.5C5.55228 4.5 6 4.05228 6 3.5C6 2.94772 5.55228 2.5 5 2.5C4.44772 2.5 4 2.94772 4 3.5C4 4.05228 4.44772 4.5 5 4.5Z" fill="#198CF2"/>
</svg>
