<svg aria-hidden="true" width="11" height="10" viewBox="0 0 11 10" fill="none" xmlns="http://www.w3.org/2000/svg">
<path d="M10.2966 8.84766L1.66382 0.214844C1.5271 0.078125 1.35132 0 1.19507 0C0.843506 0 0.511475 0.292969 0.511475 0.703125V9.31641C0.511475 9.70703 0.804443 10 1.19507 10H9.80835C10.4333 10 10.7263 9.27734 10.2966 8.84766ZM1.44897 9.0625V1.30859L9.20288 9.0625H1.44897ZM3.01147 7.4C3.01147 7.45523 3.05625 7.5 3.11147 7.5H5.19193C5.28102 7.5 5.32564 7.39229 5.26264 7.32929L3.18219 5.24884C3.11919 5.18584 3.01147 5.23046 3.01147 5.31955V7.4Z" fill="#3558a2"/>
</svg>
